<svg width="140" height="140" viewBox="0 0 140 140" fill="none" xmlns="http://www.w3.org/2000/svg">
<path d="M15.9472 2.30532C16.7265 2.12212 17.5332 2.19595 18.3261 2.18228C21.5254 2.20962 24.7246 2.15767 27.9238 2.20142C29.2035 2.14399 30.3054 3.39087 30.1058 4.64868C29.9937 5.72056 28.9957 6.58188 27.9238 6.55181C24.2625 6.58188 20.6011 6.55454 16.9425 6.56274C16.0211 6.62837 15.0449 6.19087 14.6566 5.3186C14.0769 4.18931 14.7222 2.65259 15.9472 2.30532Z" fill="white" fill-opacity="0.6"/>
<path d="M33.4855 2.34922C34.1473 2.13047 34.8609 2.19609 35.55 2.17969C37.8332 2.21797 40.1219 2.14687 42.4051 2.20703C43.6465 2.19609 44.6801 3.42656 44.4914 4.64609C44.3766 5.7918 43.2637 6.65039 42.1289 6.56016C39.5641 6.56563 36.9992 6.57383 34.4344 6.55742C33.3187 6.62852 32.2469 5.77266 32.1348 4.64883C31.9953 3.6918 32.5805 2.69375 33.4855 2.34922Z" fill="white" fill-opacity="0.6"/>
<path d="M56.1834 2.3878C59.5138 1.89835 62.9783 2.32217 66.0845 3.62647C70.2928 5.37647 73.8064 8.73155 75.7506 12.8523C77.3283 16.1499 77.8834 19.9206 77.3502 23.5355C76.7213 27.9378 74.4326 32.0694 71.0556 34.9569C68.1025 37.5191 64.3236 39.1077 60.4244 39.4112C56.6373 39.7312 52.7627 38.848 49.4924 36.9175C45.5467 34.6151 42.5006 30.8171 41.1306 26.4585C39.6459 21.821 40.0806 16.6011 42.3392 12.2835C45.0244 7.02803 50.3291 3.20811 56.1834 2.3878ZM56.4596 6.78194C52.9924 7.37803 49.7849 9.31671 47.6385 12.103C45.4838 14.8483 44.4119 18.4085 44.6853 21.8866C44.956 25.9417 47.0943 29.8081 50.351 32.2308C53.2767 34.4429 57.0775 35.4628 60.7197 34.9734C64.5232 34.514 68.0752 32.4112 70.3474 29.3323C72.565 26.3765 73.5521 22.5374 73.0299 18.8788C72.5158 15.0097 70.3092 11.4167 67.1154 9.17999C64.0721 6.99796 60.1428 6.13389 56.4596 6.78194Z" fill="white" fill-opacity="0.6"/>
<path d="M56.741 10.921C56.752 9.64134 58.0918 8.62415 59.3305 8.91399C60.3996 9.0972 61.157 10.1527 61.0859 11.2191C61.1105 14.0027 61.0832 16.7863 61.0941 19.5699C63.0082 20.6636 64.9113 21.7765 66.8227 22.873C67.7578 23.3324 68.3949 24.396 68.0969 25.4433C67.8207 26.7558 66.1828 27.5187 65.007 26.8488C63.298 25.9492 61.6602 24.9183 59.9758 23.9749C59.068 23.4226 58.0672 22.996 57.277 22.2714C56.6836 21.6671 56.7164 20.762 56.7109 19.9773C56.7465 16.9585 56.6754 13.9398 56.741 10.921Z" fill="white" fill-opacity="0.6"/>
<path d="M11.2848 13.1995C13.9016 13.0983 16.5238 13.2022 19.1434 13.153C20.0375 13.1585 21.0875 13.0737 21.7574 13.7901C22.6625 14.635 22.6023 16.2374 21.6371 17.0112C20.9645 17.621 19.9965 17.528 19.157 17.5471C16.5922 17.5034 14.0246 17.5882 11.4598 17.5089C10.4043 17.4925 9.48282 16.5819 9.41446 15.5374C9.28868 14.4272 10.1582 13.2979 11.2848 13.1995Z" fill="white" fill-opacity="0.6"/>
<path d="M27.7157 13.2679C29.3946 13.0245 31.1063 13.2296 32.7989 13.1558C33.9063 13.1585 35.2981 12.989 36.0118 14.0444C36.9743 15.2229 36.2278 17.2327 34.7184 17.4679C33.0887 17.6347 31.4453 17.4897 29.8102 17.5444C28.7493 17.5308 27.4368 17.7003 26.6985 16.7487C25.6922 15.6495 26.2664 13.6479 27.7157 13.2679Z" fill="white" fill-opacity="0.6"/>
<path d="M85.8674 23.8197C88.3912 23.4997 90.9369 23.3767 93.4689 23.1087C94.4068 23.0513 95.4978 22.7943 96.2963 23.4478C96.9963 23.9537 97.2451 24.8669 97.1138 25.6927C96.8267 28.3505 96.515 31.0056 96.2279 33.6607C96.1869 34.5576 95.7494 35.4927 94.8717 35.84C93.6385 36.4306 92.006 35.5447 91.8556 34.1802C91.7955 33.1767 92.0006 32.1814 92.1017 31.1861C84.7545 38.588 77.4154 45.9954 70.0763 53.4029C69.4529 54.1056 68.4494 54.4665 67.5443 54.1056C59.0596 51.3603 50.5802 48.604 42.0955 45.8587C33.6353 52.4622 25.156 59.0411 16.6959 65.6447C16.149 66.0685 15.4955 66.4677 14.7709 66.3474C13.6252 66.249 12.6873 65.1251 12.8322 63.9767C12.8623 63.2576 13.3545 62.6861 13.8959 62.2677C22.6623 55.4591 31.4123 48.6287 40.1732 41.8146C40.8896 41.1802 41.8959 41.1365 42.7572 41.4755C51.0724 44.1826 59.3986 46.8568 67.7138 49.5693C74.8779 42.3396 82.0502 35.1181 89.2088 27.8802C87.7267 27.8802 85.8892 28.6513 84.6943 27.429C83.5267 26.2861 84.2322 24.0302 85.8674 23.8197Z" fill="white" fill-opacity="0.6"/>
<path d="M15.9767 24.2405C17.2017 24.0409 18.4595 24.1256 19.6954 24.1666C20.8712 24.2131 21.8064 25.3971 21.6505 26.551C21.5575 27.6612 20.5157 28.5499 19.4028 28.4979C18.0767 28.4459 16.5919 28.7932 15.3833 28.1151C13.904 27.1936 14.2814 24.6616 15.9767 24.2405Z" fill="white" fill-opacity="0.6"/>
<path d="M26.3541 24.2404C29.3127 23.9889 32.3014 24.2158 35.2737 24.1283C36.4166 24.0955 37.885 24.0135 38.5276 25.1865C39.4436 26.551 38.2897 28.5854 36.6463 28.4924C33.5428 28.5361 30.4393 28.5006 27.3358 28.5088C26.3979 28.5717 25.4026 28.1205 25.0225 27.2236C24.4647 26.0889 25.1319 24.5713 26.3541 24.2404Z" fill="white" fill-opacity="0.6"/>
<path d="M11.0549 35.1811C16.2967 35.0089 21.5549 35.1675 26.8049 35.1046C27.8494 34.9925 29.0061 35.4819 29.3561 36.5401C29.8975 37.8718 28.7983 39.4932 27.3545 39.4632C22.3397 39.5233 17.3193 39.4604 12.3018 39.4932C11.4022 39.526 10.3631 39.3866 9.82169 38.5717C8.90021 37.4096 9.59474 35.4655 11.0549 35.1811Z" fill="white" fill-opacity="0.6"/>
<path d="M36.2063 35.173C37.4969 35.0527 38.8039 35.0745 40.0946 35.1566C41.7078 35.3179 42.4953 37.5026 41.4071 38.6866C40.3598 39.8925 38.5907 39.3866 37.1934 39.4905C36.0969 39.5972 34.8828 39.0366 34.5903 37.9046C34.2184 36.7534 35.0004 35.378 36.2063 35.173Z" fill="white" fill-opacity="0.6"/>
<path d="M85.6136 44.8307C85.537 43.6358 86.5514 42.512 87.7655 42.5475C92.5096 42.5092 97.2565 42.5311 102.001 42.5366C103.286 42.4299 104.423 43.5784 104.333 44.8581C104.339 51.3303 104.349 57.8081 104.328 64.2803C104.399 65.6229 103.045 66.7795 101.73 66.4733C100.694 66.2928 99.9198 65.2948 99.9718 64.2502C99.9471 58.467 99.9718 52.6866 99.9608 46.9034C96.6358 46.9034 93.3081 46.9034 89.9831 46.9034C89.9694 53.6108 90.0104 60.3209 89.9639 67.0284C90.0214 68.4803 88.3862 69.6041 87.0464 69.0545C86.0921 68.7346 85.5343 67.7229 85.6081 66.744C85.6108 59.4405 85.5999 52.1342 85.6136 44.8307Z" fill="white" fill-opacity="0.6"/>
<path d="M34.0324 61.4253C38.5359 61.264 43.0558 61.4144 47.5648 61.3515C48.459 61.3789 49.498 61.2257 50.2308 61.8683C50.8707 62.3578 51.0566 63.1945 51.0293 63.9601C51.0211 78.2828 51.0266 92.6054 51.0266 106.925C51.0101 107.885 51.0894 108.85 50.9637 109.807C50.7941 110.866 49.7414 111.612 48.6914 111.555C44.218 111.582 39.7418 111.546 35.2656 111.571C34.4508 111.574 33.5183 111.555 32.9277 110.901C32.3562 110.373 32.2824 109.559 32.2906 108.828C32.307 93.7839 32.2851 78.7394 32.3015 63.6949C32.2387 62.6476 32.9742 61.5949 34.0324 61.4253ZM36.6711 65.7347C36.6711 79.5515 36.6711 93.371 36.6711 107.188C39.9988 107.188 43.3238 107.188 46.6515 107.188C46.6488 93.3683 46.6515 79.5515 46.6515 65.7347C43.3238 65.7347 39.9988 65.7347 36.6711 65.7347Z" fill="white" fill-opacity="0.6"/>
<path d="M58.956 69.719C58.8385 68.4448 59.9459 67.2717 61.2283 67.351C65.9724 67.3319 70.7193 67.3264 75.4662 67.3538C76.5955 67.3182 77.6482 68.2671 77.6564 69.4128C77.7138 71.8026 77.6783 74.1924 77.6756 76.5823C77.733 77.5831 77.0767 78.5729 76.0951 78.8354C74.881 79.2237 73.4482 78.3159 73.347 77.0307C73.2431 75.2616 73.3388 73.487 73.306 71.7151C69.9783 71.7151 66.6533 71.7124 63.3256 71.7151C63.3228 83.5221 63.331 95.3264 63.3228 107.133C64.217 107.177 65.2724 107.259 65.8029 108.104C66.7189 109.285 65.9779 111.246 64.4931 111.487C63.2572 111.623 61.9994 111.607 60.7607 111.506C59.6314 111.364 58.8576 110.229 58.9533 109.127C58.9506 95.9909 58.9478 82.8549 58.956 69.719Z" fill="white" fill-opacity="0.6"/>
<path d="M83.7845 74.8015C90.9376 70.6371 99.6548 69.2972 107.735 71.0746C114.899 72.5949 121.505 76.5515 126.255 82.1242C132.287 89.0969 135.204 98.6234 134.152 107.781C133.632 112.574 132.049 117.245 129.58 121.384C130.222 121.589 130.969 121.753 131.363 122.366C132.224 123.457 131.688 125.273 130.354 125.691C128.45 126.293 126.523 126.815 124.6 127.348C123.416 127.731 122.038 126.886 121.872 125.65C121.697 124.061 121.751 122.459 121.647 120.865C121.552 119.689 121.483 118.166 122.714 117.534C123.966 116.771 125.506 117.614 126 118.88C128.177 114.961 129.569 110.592 129.845 106.105C130.299 99.6078 128.557 92.966 124.901 87.5656C121.12 81.9328 115.304 77.7164 108.785 75.8461C101.213 73.6148 92.7669 74.6293 85.9419 78.5969C84.829 79.3379 83.1638 78.8375 82.7099 77.566C82.2696 76.5324 82.7946 75.2883 83.7845 74.8015Z" fill="white" fill-opacity="0.6"/>
<path d="M7.48128 79.1795C12.0012 79.062 16.5293 79.1768 21.052 79.1249C21.9352 79.1358 22.9661 79.0346 23.6551 79.71C24.2539 80.2131 24.3879 81.028 24.3743 81.769C24.3661 90.8854 24.377 100.002 24.3688 109.118C24.4946 110.371 23.4582 111.587 22.1785 111.544C17.6996 111.596 13.2207 111.538 8.74183 111.571C7.97621 111.555 7.11214 111.615 6.48324 111.087C5.85433 110.633 5.61917 109.837 5.64105 109.094C5.63558 100.439 5.64652 91.785 5.63558 83.1307C5.63558 82.3979 5.60003 81.6624 5.693 80.935C5.81332 80.0409 6.58714 79.2862 7.48128 79.1795ZM10.0161 83.5081C10.0133 91.4022 10.016 99.2936 10.0133 107.188C13.341 107.188 16.6688 107.188 19.9938 107.188C19.9938 99.2936 19.9965 91.4022 19.9938 83.5081C16.6688 83.5081 13.3411 83.5081 10.0161 83.5081Z" fill="white" fill-opacity="0.6"/>
<path d="M76.0022 80.9291C76.828 80.6666 77.8205 80.5271 78.5369 81.1342C79.442 81.7603 79.4283 82.958 79.453 83.9396C79.4639 85.5912 79.6334 87.2373 79.5787 88.8888C79.5377 90.2916 77.8889 91.2842 76.6174 90.7154C75.9283 90.4885 75.5811 89.8131 75.2229 89.2388C72.1467 94.6584 70.774 101.029 71.474 107.231C72.2424 114.753 76.0459 121.923 81.9084 126.713C88.8783 132.532 98.6236 134.799 107.442 132.633C110.198 131.991 112.834 130.905 115.295 129.519C116.233 128.909 117.595 129.133 118.237 130.063C118.984 131.031 118.694 132.592 117.619 133.197C108.924 138.373 97.8389 139.234 88.4299 135.524C78.351 131.715 70.4268 122.76 67.8756 112.292C65.699 103.72 67.0526 94.3056 71.6436 86.7396C70.9326 86.5263 70.1151 86.3049 69.7432 85.5885C69.0213 84.4701 69.6201 82.7803 70.9162 82.4166C72.5951 81.8752 74.3123 81.4431 76.0022 80.9291Z" fill="white" fill-opacity="0.6"/>
<path d="M94.7299 84.517C95.3889 83.2154 95.4819 81.244 97.0924 80.7354C98.7166 80.492 100.371 80.6916 102.006 80.6205C103.059 80.6451 104.355 80.4428 105.11 81.3643C105.774 82.3022 106.026 83.4561 106.474 84.5033C107.787 84.9244 109.061 85.4522 110.286 86.0838C111.686 85.608 113.214 84.2436 114.715 85.1432C115.987 86.1467 117.023 87.4154 118.21 88.5174C118.967 89.2857 120.039 90.1115 119.826 91.3365C119.577 92.4111 119 93.3709 118.587 94.3854C119.219 95.6131 119.747 96.8928 120.176 98.2053C121.478 98.8287 123.416 98.949 123.933 100.538C124.176 102.102 123.974 103.699 124.042 105.276C124.007 106.381 124.269 107.74 123.321 108.552C122.377 109.23 121.212 109.479 120.16 109.936C119.741 111.246 119.216 112.517 118.587 113.737C119.011 114.828 119.697 115.847 119.848 117.026C119.875 118.287 118.71 119.033 117.948 119.862C116.805 120.909 115.845 122.172 114.573 123.063C113.078 123.777 111.653 122.503 110.283 122.041C109.058 122.67 107.781 123.197 106.471 123.624C105.823 124.972 105.681 127.094 103.906 127.436C101.727 127.542 99.5287 127.534 97.3495 127.438C95.5475 127.138 95.3971 124.991 94.7545 123.632C93.4448 123.195 92.1623 122.672 90.9346 122.041C89.5647 122.508 88.1456 123.772 86.6471 123.066C85.3811 122.172 84.4213 120.914 83.2811 119.872C82.5155 119.044 81.3534 118.3 81.367 117.04C81.5202 115.858 82.201 114.833 82.6303 113.739C82.0014 112.52 81.4682 111.251 81.0608 109.941C79.8139 109.304 78.0366 109.214 77.3639 107.817C77.0057 106.644 77.2381 105.388 77.178 104.183C77.2409 102.919 77.0112 101.615 77.3366 100.379C77.9573 98.9217 79.7811 98.8233 81.0444 98.1998C81.4682 96.8873 81.9959 95.6104 82.6303 94.3854C82.1436 92.9662 80.7545 91.394 81.7334 89.8928C82.7889 88.6076 84.0768 87.533 85.2088 86.3162C85.9061 85.6162 86.6717 84.6947 87.7764 84.8287C88.903 85.042 89.8928 85.6736 90.951 86.0838C92.1569 85.444 93.4229 84.9217 94.7299 84.517ZM99.2362 85.0037C98.8752 85.8951 98.6209 86.844 98.0987 87.6615C97.6858 88.2768 96.9174 88.4381 96.2584 88.6486C95.1182 88.9631 94.0108 89.3951 92.9854 89.9803C92.3073 90.3275 91.6045 90.8307 90.8034 90.6939C89.8491 90.4889 88.9959 89.9912 88.1073 89.6139C87.4592 90.2619 86.8112 90.91 86.1631 91.558C86.5459 92.4686 87.0682 93.3408 87.2487 94.3225C87.3471 95.2959 86.6553 96.0861 86.2698 96.9229C85.567 98.167 85.3073 99.5889 84.7713 100.899C84.1123 102.031 82.6577 102.184 81.5557 102.681C81.553 103.6 81.553 104.522 81.5557 105.44C82.4635 105.804 83.4397 106.05 84.2573 106.605C85.1022 107.303 85.1295 108.5 85.5206 109.455C85.9088 110.783 86.7866 111.899 87.2241 113.203C87.3854 114.42 86.5733 115.476 86.1631 116.564C86.8112 117.212 87.4592 117.86 88.11 118.508C89.078 118.114 89.9995 117.507 91.0604 117.403C92.1788 117.469 93.051 118.292 94.0627 118.686C95.2002 119.268 96.51 119.413 97.6366 120.009C98.5881 120.758 98.7604 122.068 99.2362 123.121C100.152 123.118 101.065 123.118 101.981 123.121C102.496 122.027 102.635 120.57 103.759 119.903C104.932 119.399 106.217 119.189 107.357 118.593C108.295 118.199 109.129 117.447 110.185 117.401C111.229 117.529 112.145 118.109 113.105 118.508C113.756 117.863 114.406 117.212 115.055 116.564C114.655 115.555 113.999 114.598 113.953 113.488C114.149 112.276 115.019 111.319 115.421 110.176C115.932 109.107 115.998 107.847 116.681 106.868C117.483 106.072 118.661 105.883 119.662 105.438C119.665 104.519 119.662 103.603 119.662 102.687C118.615 102.2 117.297 102.044 116.553 101.082C115.979 100.018 115.845 98.7768 115.314 97.6912C114.915 96.6412 114.106 95.7471 113.953 94.615C114.007 93.5131 114.655 92.5588 115.057 91.5608C114.406 90.91 113.758 90.2619 113.11 89.6166C112.008 90.0295 110.931 90.8744 109.698 90.6639C108.528 90.2701 107.53 89.4881 106.354 89.1025C105.391 88.6869 104.278 88.6131 103.417 87.9924C102.621 87.1857 102.422 86.0072 101.981 85.0037C101.065 85.001 100.152 85.001 99.2362 85.0037Z" fill="white" fill-opacity="0.6"/>
<path d="M98.2842 92.0748C101.39 91.4733 104.726 92.1186 107.354 93.8932C110.113 95.717 112.085 98.6975 112.631 101.965C113.159 104.932 112.533 108.09 110.895 110.622C109.008 113.594 105.787 115.692 102.29 116.148C98.9158 116.638 95.3638 115.612 92.7662 113.406C90.1412 111.224 88.5006 107.896 88.4131 104.478C88.2845 101.358 89.433 98.2217 91.5275 95.9111C93.2857 93.9424 95.6947 92.5752 98.2842 92.0748ZM98.8365 96.4252C96.4166 96.9776 94.322 98.7494 93.3787 101.044C92.3533 103.442 92.6486 106.348 94.1443 108.484C96.206 111.623 100.647 112.821 103.999 111.122C107.461 109.537 109.317 105.241 108.06 101.637C106.917 97.869 102.662 95.4463 98.8365 96.4252Z" fill="white" fill-opacity="0.6"/>
</svg>
