<svg width="140" height="140" viewBox="0 0 140 140" fill="none" xmlns="http://www.w3.org/2000/svg">
<g clip-path="url(#clip0_355_25141)">
<path d="M17.4125 0H122.358C126.842 0.246094 131.225 2.11914 134.422 5.28828C137.75 8.51211 139.746 13.0156 140 17.634V101.828C139.754 105.662 138.37 109.427 135.95 112.424C133.055 116.074 128.743 118.571 124.124 119.216C122.596 119.454 121.045 119.399 119.506 119.402C109.889 119.402 100.27 119.402 90.6527 119.402C90.6199 122.437 90.6828 125.475 90.6199 128.513C90.4695 132.702 87.9156 136.678 84.2051 138.605C82.7285 139.418 81.066 139.811 79.4035 140H27.8223C23.1465 139.677 18.8098 136.481 17.2594 132.038C16.5266 130.134 16.4992 128.067 16.5375 126.055C16.5375 123.807 16.543 121.559 16.532 119.312C11.4352 118.737 6.62539 115.989 3.60391 111.833C1.4875 109.011 0.322656 105.566 0 102.071V17.6449C0.243359 13.0266 2.23672 8.52305 5.56719 5.30195C8.71172 2.17656 13.0047 0.319922 17.4125 0ZM8.75547 7.93516C5.87344 10.5684 4.14805 14.4102 4.1125 18.3148C4.08789 22.5039 4.10703 26.693 4.1043 30.8793C38.1063 30.8793 72.1082 30.8793 106.113 30.8793C107.059 30.7973 108.046 31.3523 108.336 32.282C108.817 33.5453 107.737 35.041 106.389 34.9754C72.2941 34.9918 38.1992 34.9754 4.1043 34.9836C4.09883 56.6836 4.1043 78.3809 4.09883 100.081C4.01406 102.832 4.61016 105.621 5.99922 108.011C8.16211 111.852 12.1707 114.562 16.5348 115.169C16.5457 107.488 16.532 99.8074 16.5402 92.1293C16.4719 91.093 17.2676 90.0977 18.3039 89.9773C19.548 89.7641 20.7457 90.8961 20.6363 92.1457C20.6473 104.092 20.6309 116.041 20.6445 127.988C20.6473 129.828 21.3172 131.657 22.5121 133.06C24.027 134.87 26.3648 135.942 28.7273 135.898C45.4016 135.893 62.0758 135.909 78.75 135.89C82.8324 135.909 86.4828 132.319 86.532 128.237C86.5648 121.784 86.5375 115.328 86.5457 108.872C81.941 110.764 77.3418 112.667 72.7398 114.562C71.9441 114.871 71.1621 115.325 70.2789 115.295C57.3344 115.306 44.3871 115.292 31.4398 115.303C30.8656 115.3 30.2449 115.276 29.7664 114.912C28.8695 114.316 28.618 112.976 29.2441 112.098C29.6543 111.456 30.4309 111.141 31.1773 111.196C43.7145 111.199 56.2488 111.199 68.7832 111.196C69.1742 108.445 69.5707 105.692 69.9535 102.941C57.0254 102.938 44.0945 102.941 31.1664 102.938C30.1 103.034 29.0363 102.244 28.916 101.164C28.7164 100.002 29.7145 98.823 30.8957 98.8477C44.1109 98.823 57.3262 98.8477 70.5414 98.8367C70.793 97.6363 70.6344 96.2473 71.4984 95.2684C72.7152 93.7098 73.9266 92.1457 75.1406 90.5844C60.4871 90.5734 45.8309 90.5844 31.1773 90.5816C30.1273 90.6828 29.0746 89.9227 28.9242 88.8672C28.7109 87.7816 29.5422 86.6305 30.6441 86.5129C31.7324 86.4309 32.8262 86.4992 33.9172 86.4801C48.7047 86.4937 63.4894 86.4527 78.2769 86.4992C81.0797 83.0047 83.7867 79.4336 86.5457 75.9035C86.543 68.3758 86.5484 60.848 86.543 53.3203C86.573 50.9414 85.4766 48.5844 83.6254 47.0859C82.1953 45.891 80.3305 45.2676 78.4711 45.284C61.7941 45.284 45.1172 45.2703 28.4402 45.2895C24.3852 45.273 20.7375 48.8086 20.6555 52.8691C20.6172 62.6828 20.6555 72.4938 20.6363 82.3074C20.7047 83.3328 19.9227 84.3227 18.9 84.4594C17.6504 84.6945 16.4309 83.557 16.5402 82.2992C16.5457 72.4883 16.5211 62.6773 16.5512 52.8664C16.625 47.9145 20.1168 43.2852 24.8254 41.7949C26.425 41.2344 28.1367 41.1496 29.8184 41.177C46.0387 41.1852 62.2617 41.1742 78.4848 41.1824C81.148 41.166 83.8086 42.0383 85.9168 43.6734C88.8152 45.8719 90.6172 49.4402 90.6391 53.0824C90.6609 58.9258 90.6363 64.7691 90.65 70.6125C95.3203 64.6352 99.9633 58.6359 104.62 52.6449C105.725 51.1273 107.037 49.7027 108.746 48.8551C112.361 46.9109 117.111 47.4332 120.2 50.1457C122.776 52.3141 124.132 55.8059 123.725 59.1473C123.514 61.0613 122.727 62.8934 121.538 64.4055C111.245 77.6617 100.939 90.907 90.6473 104.163C90.6445 107.874 90.65 111.582 90.6445 115.292C99.709 115.309 108.773 115.295 117.835 115.3C120.515 115.27 123.271 115.508 125.852 114.614C131.6 112.859 135.849 107.193 135.885 101.177C135.915 79.1109 135.89 57.0473 135.896 34.9836C129.325 34.9781 122.754 34.9836 116.186 34.9836C115.177 35.0711 114.149 34.3738 113.966 33.3594C113.663 32.1617 114.68 30.8738 115.916 30.8957C122.574 30.8602 129.238 30.8902 135.896 30.8793C135.896 26.7859 135.904 22.6926 135.893 18.5965C135.887 16.2969 135.36 13.9945 134.299 11.9492C131.914 7.19961 126.741 4.0332 121.417 4.10703C87.232 4.09609 53.0469 4.1043 18.859 4.10156C15.1648 4.02773 11.4625 5.40859 8.75547 7.93516ZM110.195 52.7434C108.989 53.4844 108.238 54.7176 107.371 55.7949C110.619 58.3324 113.884 60.8453 117.13 63.3855C118.037 62.207 119.112 61.0723 119.479 59.5875C120.168 57.1758 119.202 54.4059 117.152 52.9566C115.164 51.4691 112.273 51.3926 110.195 52.7434ZM104.852 59.0352C103.584 60.6594 102.326 62.2918 101.054 63.9133C104.297 66.4617 107.568 68.9746 110.816 71.5148C112.085 69.8879 113.351 68.2582 114.611 66.6258C111.371 64.0801 108.101 61.5699 104.852 59.0352ZM98.5359 67.1672C90.948 76.9234 83.3656 86.6824 75.7859 96.4441C79.0398 98.9707 82.291 101.505 85.5477 104.032C93.1328 94.273 100.729 84.5195 108.298 74.7441C105.038 72.2258 101.798 69.6828 98.5359 67.1672ZM74.4352 100.6C73.9895 103.723 73.541 106.848 73.1035 109.971C76.0047 108.776 78.9086 107.592 81.8043 106.381C79.4117 104.379 76.8852 102.531 74.4352 100.6Z" fill="white" fill-opacity="0.6"/>
<path d="M15.917 10.4696C19.7287 9.50706 23.9096 12.2578 24.5549 16.1242C25.4135 19.9715 22.5096 24.0922 18.6104 24.5981C14.8178 25.3008 10.8721 22.3996 10.3826 18.5824C9.73457 14.9676 12.3322 11.2024 15.917 10.4696ZM16.2424 14.6668C14.9682 15.2192 14.1697 16.6875 14.4596 18.0602C14.7221 19.6844 16.4475 20.8793 18.0607 20.5266C19.7861 20.2532 20.9947 18.3336 20.4643 16.6602C20.035 14.8938 17.883 13.8848 16.2424 14.6668Z" fill="white" fill-opacity="0.6"/>
<path d="M36.1894 10.5492C40.064 9.37341 44.4855 12.1379 45.1445 16.1246C46.0167 20.0047 43.0472 24.1472 39.1097 24.6121C35.3581 25.2547 31.4863 22.3863 30.9804 18.6211C30.3323 15.1101 32.7468 11.4297 36.1894 10.5492ZM36.996 14.6015C35.6234 15.0965 34.7402 16.6414 35.0519 18.0769C35.3308 19.7558 37.1683 20.9508 38.8171 20.4914C40.4523 20.1386 41.5378 18.3094 41.0702 16.7043C40.6655 14.9871 38.6366 13.9289 36.996 14.6015Z" fill="white" fill-opacity="0.6"/>
<path d="M59.1526 10.4731C63.0682 9.47231 67.3557 12.4172 67.8452 16.4204C68.5206 20.2075 65.6167 24.1286 61.805 24.6043C58.0288 25.2797 54.1159 22.3868 53.6237 18.5887C52.9729 14.9739 55.5678 11.2086 59.1526 10.4731ZM59.4643 14.6758C58.201 15.2309 57.419 16.6856 57.6952 18.0446C57.9604 19.7754 59.8827 20.9977 61.5616 20.4672C63.2432 20.0543 64.2714 18.0664 63.6425 16.4532C63.101 14.7961 61.0339 13.9184 59.4643 14.6758Z" fill="white" fill-opacity="0.6"/>
<path d="M79.4094 10.5548C80.4375 10.2595 81.5176 10.2923 82.5758 10.2977C95.9715 10.3087 109.367 10.2868 122.76 10.3087C126.123 10.3497 129.17 13.0813 129.615 16.4063C130.012 18.8345 129.033 21.4184 127.143 22.988C125.793 24.1528 124.002 24.7325 122.23 24.6997C108.555 24.6942 94.8832 24.7161 81.2086 24.6888C77.7223 24.6997 74.5367 21.8286 74.184 18.3614C73.6863 14.9298 76.068 11.4216 79.4094 10.5548ZM80.2269 14.6044C78.8762 15.102 77.9957 16.6169 78.2828 18.0388C78.5234 19.5399 79.9781 20.6692 81.4875 20.5927C94.9762 20.6091 108.465 20.5899 121.956 20.6036C122.815 20.6173 123.728 20.4915 124.412 19.9227C125.67 18.9766 125.976 17.027 125.052 15.7501C124.447 14.8122 123.31 14.3391 122.216 14.3993C108.64 14.4048 95.0637 14.3993 81.4875 14.402C81.0609 14.413 80.6262 14.4458 80.2269 14.6044Z" fill="white" fill-opacity="0.6"/>
<path d="M31.7736 53.6591C32.2084 53.5716 32.6541 53.5442 33.0998 53.5388C46.3095 53.5388 59.5166 53.5388 72.7263 53.5388C73.9103 53.5388 75.1381 53.4595 76.2619 53.8997C78.4357 54.6571 80.0791 56.727 80.3088 59.0185C80.5494 60.9817 79.7482 63.0188 78.2635 64.3231C77.0631 65.406 75.4279 65.9309 73.8201 65.879C60.2412 65.8763 46.6623 65.8872 33.0834 65.8735C31.1064 65.9036 29.1541 64.9192 28.0056 63.3087C26.767 61.6352 26.4908 59.311 27.2892 57.3888C28.0412 55.5048 29.7802 54.0528 31.7736 53.6591ZM32.3287 57.7552C31.224 58.1024 30.617 59.4642 31.1064 60.5169C31.4592 61.4028 32.4381 61.8567 33.3541 61.7802C46.9412 61.772 60.531 61.7911 74.1181 61.7692C75.2775 61.8267 76.3275 60.7739 76.2455 59.6118C76.2209 58.5181 75.2092 57.5829 74.1154 57.6458C60.8045 57.6321 47.4963 57.6485 34.1853 57.6376C33.5674 57.6513 32.9302 57.5802 32.3287 57.7552Z" fill="white" fill-opacity="0.6"/>
<path d="M30.6742 74.1531C46.5227 74.0793 62.3793 74.1312 78.2305 74.1285C79.4855 74.0519 80.5848 75.3043 80.3141 76.5402C80.1582 77.5219 79.2094 78.2793 78.2168 78.2164C62.5379 78.2273 46.8617 78.2164 31.1828 78.2219C30.1547 78.3258 29.1102 77.6066 28.9352 76.5703C28.6809 75.4601 29.5367 74.2598 30.6742 74.1531Z" fill="white" fill-opacity="0.6"/>
<path d="M30.1549 123.703C30.5678 123.528 31.0245 123.55 31.462 123.536C39.4764 123.547 47.4909 123.531 55.5053 123.545C56.6127 123.457 57.6709 124.376 57.6956 125.494C57.7858 126.673 56.6975 127.736 55.5217 127.638C47.3979 127.646 39.2741 127.638 31.1502 127.641C30.2506 127.709 29.3291 127.179 29.0284 126.312C28.6209 125.319 29.1651 124.091 30.1549 123.703Z" fill="white" fill-opacity="0.6"/>
</g>
<defs>
<clipPath id="clip0_355_25141">
<rect width="140" height="140" fill="white"/>
</clipPath>
</defs>
</svg>
