<svg width="140" height="140" viewBox="0 0 140 140" fill="none" xmlns="http://www.w3.org/2000/svg">
<g clip-path="url(#clip0_355_25157)">
<path d="M63.5035 0H76.4699C77.3504 0.224219 78.1707 0.929687 78.1707 1.90039C78.2637 4.8207 78.1598 7.74648 78.2144 10.6668C78.1816 11.5145 78.3238 12.4988 77.7141 13.1879C76.9539 14.1449 75.3406 14.1422 74.5832 13.1852C74.0363 12.5754 74.1101 11.7086 74.091 10.9512C74.1101 8.66797 74.0992 6.38477 74.1019 4.10156C71.3676 4.10156 68.6332 4.10156 65.8988 4.10156C65.8961 13.6773 65.8988 23.2504 65.8988 32.8262C65.9316 33.6055 65.6773 34.4559 64.9828 34.8879C64.3074 35.3746 63.4215 35.2516 62.7023 34.9453C57.291 32.7715 51.866 30.6332 46.4547 28.4566C45.7 28.1449 44.7539 27.8988 44.0566 28.4758C43.0148 29.1867 42.8152 30.8191 43.8133 31.6613C51.9535 39.8398 60.1402 47.9773 68.2859 56.1531C68.8519 56.7629 69.6996 57.2031 70.5445 56.9324C71.4359 56.6234 72.0156 55.8195 72.6801 55.1934C80.4238 47.4387 88.1758 39.6895 95.9305 31.943C96.2394 31.6039 96.5703 31.2566 96.748 30.8246C97.1855 29.616 96.1765 28.1203 94.8805 28.1121C94.4156 28.1422 93.9754 28.2953 93.5488 28.4566C88.2031 30.6059 82.8465 32.725 77.5035 34.8715C76.7816 35.1641 75.9203 35.4129 75.1957 34.9945C74.3863 34.6008 74.0473 33.6711 74.1019 32.818C74.1074 28.6207 74.0883 24.4207 74.1101 20.2234C74.0637 19.3703 74.5394 18.5145 75.3433 18.1863C76.5574 17.6121 78.1625 18.5582 78.1707 19.9172C78.2582 23.3297 78.1734 26.7477 78.2062 30.1629C82.9121 28.2898 87.6207 26.4195 92.3238 24.5355C93.7293 23.9477 95.3453 23.8137 96.7945 24.3305C99.7777 25.334 101.664 28.834 100.727 31.8691C100.24 33.693 98.725 34.918 97.459 36.2086C89.7535 43.9086 82.0617 51.6195 74.348 59.3113C72.125 61.6328 68.0726 61.7066 65.7894 59.4344C57.5262 51.2094 49.3012 42.9406 41.0433 34.7074C40.0781 33.7613 39.3262 32.5527 39.1183 31.1992C38.6125 28.3937 40.3625 25.4105 43.0094 24.3988C44.434 23.8383 46.0527 23.9012 47.4691 24.459C52.2488 26.343 57.0148 28.268 61.7945 30.1629C61.8055 20.8305 61.7808 11.498 61.8055 2.16563C61.7207 1.11289 62.5219 0.246094 63.5035 0Z" fill="white" fill-opacity="0.6"/>
<path d="M24.2102 43.5859C24.9621 40.7394 27.9672 38.7105 30.8875 39.0742C32.2957 39.2163 33.5918 39.9328 34.5816 40.9226C42.3309 48.6636 50.0801 56.4074 57.8211 64.1566C58.584 64.9331 59.4152 65.655 60.0469 66.5519C61.3785 68.4523 61.4605 71.1265 60.2629 73.1117C59.6258 74.1699 58.6688 74.9738 57.8156 75.846C50.1238 83.5515 42.4184 91.2406 34.7238 98.9433C33.7723 99.9113 32.5609 100.669 31.202 100.877C28.3992 101.371 25.4105 99.6378 24.4016 96.9855C23.8082 95.4953 23.9203 93.7972 24.5328 92.3288C26.4113 87.623 28.2898 82.9144 30.1629 78.2058C28.3008 78.1621 26.4332 78.2851 24.5738 78.1539C23.4445 78.0499 22.6297 76.8331 22.8813 75.7476C23.0453 74.8179 23.9203 74.1015 24.8609 74.1206C27.2371 74.0578 29.6133 74.1343 31.9895 74.0906C32.8918 74.1152 33.9773 73.9812 34.65 74.7277C35.3555 75.3867 35.3281 76.4585 34.9508 77.2843C32.7797 82.6984 30.6359 88.1288 28.4594 93.5402C28.1449 94.2949 27.8961 95.241 28.473 95.9382C29.1785 96.9773 30.8109 97.1851 31.6531 96.1925C39.8836 88.0113 48.073 79.7863 56.2789 71.5804C57.2305 70.7656 57.2277 69.2179 56.268 68.4085C48.0676 60.2081 39.8809 51.9859 31.6531 43.8074C30.8055 42.8093 29.1648 43.0253 28.4621 44.0753C27.8961 44.7726 28.1504 45.7105 28.4594 46.4597C30.6113 51.7999 32.7141 57.1593 34.8715 62.4996C35.1668 63.2132 35.4156 64.0691 35 64.7937C34.6117 65.6031 33.6875 65.9476 32.8316 65.8984C23.2559 65.8984 13.6773 65.8984 4.10156 65.8984C4.10156 68.6328 4.10156 71.3671 4.10156 74.1015C8.01992 74.096 11.941 74.1124 15.8594 74.0906C16.6141 74.1042 17.4809 74.0632 18.0633 74.6374C18.9437 75.3949 18.9465 76.907 18.0605 77.6617C17.4863 78.2386 16.6223 78.1949 15.8703 78.214C11.3012 78.1812 6.73203 78.2277 2.16289 78.1921C1.11016 78.2714 0.248828 77.4757 0 76.4968V63.5222C0.213281 62.8277 0.642578 62.1167 1.38906 61.9144C2.3707 61.7066 3.38242 61.8105 4.37773 61.7941C12.9719 61.7996 21.5687 61.7968 30.1629 61.7968C28.2898 57.0855 26.4113 52.3796 24.5355 47.6738C24.0051 46.3859 23.8355 44.9367 24.2102 43.5859Z" fill="white" fill-opacity="0.6"/>
<path d="M105.153 41.177C106.071 40.2254 107.212 39.4297 108.532 39.1699C111.398 38.5082 114.545 40.2664 115.59 42.9926C116.189 44.4883 116.079 46.1946 115.467 47.6684C113.591 52.377 111.71 57.0828 109.839 61.7942C119.166 61.8078 128.496 61.7805 137.823 61.8078C138.881 61.7203 139.756 62.5215 140 63.5113V76.4668C139.767 77.4621 138.892 78.2742 137.831 78.1922C128.502 78.2223 119.169 78.1922 109.839 78.2059C111.71 82.9199 113.594 87.6313 115.472 92.3426C116.194 94.0516 116.183 96.0914 115.251 97.7184C113.862 100.286 110.52 101.656 107.759 100.603C106.298 100.103 105.254 98.9242 104.198 97.8606C96.3781 90.0293 88.5468 82.2117 80.7238 74.3832C78.9492 72.6742 78.3886 69.8715 79.3675 67.6129C79.9117 66.2567 81.0519 65.2969 82.0527 64.2852C89.7554 56.5852 97.4609 48.8879 105.153 41.177ZM108.338 43.8074C100.13 51.9969 91.9402 60.2055 83.737 68.4004C83.2339 68.8762 82.8894 69.5625 83.007 70.2707C83.1246 71.2004 83.9476 71.7746 84.5437 72.4117C92.4351 80.2867 100.313 88.1754 108.196 96.0586C108.707 96.5918 109.437 97.0266 110.2 96.8051C111.393 96.5727 112.276 95.2164 111.723 94.0571C109.487 88.3285 107.154 82.6328 104.915 76.9071C104.327 75.6055 105.464 74.0086 106.878 74.1125C116.552 74.0879 126.224 74.1098 135.898 74.1016C135.898 71.3672 135.898 68.6328 135.898 65.8985C126.235 65.893 116.574 65.9121 106.914 65.8903C105.511 66.0024 104.343 64.452 104.898 63.1449C106.952 57.8922 109.068 52.6613 111.152 47.4196C111.453 46.5801 111.972 45.7434 111.857 44.8192C111.589 43.2742 109.372 42.5387 108.338 43.8074Z" fill="white" fill-opacity="0.6"/>
<path d="M65.231 81.0992C66.0978 80.1941 67.1451 79.4093 68.381 79.1031C70.4755 78.5179 72.8353 79.1496 74.3611 80.7C82.5587 88.8839 90.7455 97.0789 98.9349 105.268C99.9849 106.286 100.772 107.62 100.92 109.094C101.308 112.085 99.1728 115.161 96.2306 115.831C94.8607 116.176 93.4224 115.935 92.14 115.394C87.4998 113.529 82.8513 111.689 78.2056 109.837C78.2001 111.596 78.2029 113.351 78.2138 115.109C78.2001 115.853 78.2248 116.714 77.6451 117.275C76.8931 118.123 75.4275 118.134 74.6701 117.286C73.9509 116.572 74.1259 115.481 74.0931 114.568C74.1451 111.918 74.0357 109.263 74.1369 106.616C74.1806 105.29 75.7173 104.382 76.9177 104.924C81.8287 106.827 86.7013 108.826 91.6013 110.759C92.5912 111.131 93.5427 111.634 94.5873 111.853C96.0666 112.14 97.3626 110.283 96.6572 108.976C96.1787 108.197 95.4568 107.609 94.8251 106.958C87.0787 99.2144 79.3431 91.4625 71.5912 83.7269C70.7736 82.7671 69.215 82.7671 68.4056 83.7351C60.208 91.9382 51.9966 100.128 43.8126 108.339C42.8091 109.181 43.0197 110.816 44.0615 111.527C44.7615 112.099 45.7103 111.85 46.4677 111.538C51.8681 109.364 57.2849 107.232 62.6853 105.061C63.4072 104.752 64.3013 104.612 64.9767 105.107C65.6822 105.536 65.931 106.387 65.8982 107.171C65.8982 116.747 65.8982 126.323 65.8982 135.899C68.6326 135.899 71.3669 135.899 74.1013 135.899C74.0986 132.164 74.1068 128.426 74.0931 124.691C74.1068 124.012 74.1068 123.247 74.6154 122.727C75.3291 121.866 76.7591 121.803 77.5521 122.588C78.1564 123.102 78.2138 123.936 78.2111 124.671C78.1837 129.06 78.2275 133.452 78.1919 137.84C78.2712 138.893 77.4673 139.754 76.4884 140H63.5412C62.8439 139.795 62.1275 139.369 61.9197 138.625C61.7037 137.635 61.8103 136.612 61.7939 135.609C61.7966 127.018 61.7994 118.429 61.7939 109.837C57.0798 111.711 52.3712 113.6 47.6544 115.473C46.3173 116.017 44.797 116.173 43.4052 115.733C40.649 114.907 38.7158 111.962 39.074 109.102C39.2216 107.696 39.9326 106.403 40.9251 105.419C49.0244 97.3085 57.1373 89.2148 65.231 81.0992Z" fill="white" fill-opacity="0.6"/>
</g>
<defs>
<clipPath id="clip0_355_25157">
<rect width="140" height="140" fill="white"/>
</clipPath>
</defs>
</svg>
