<svg width="429" height="32" viewBox="0 0 429 32" fill="none" xmlns="http://www.w3.org/2000/svg">
<g clip-path="url(#clip0_355_21694)">
<path d="M24 13.1713H14.8309L12.0084 4L9.1691 13.1713L0 13.1537L7.41545 18.8287L4.5762 28L11.9916 22.325L19.4071 28L16.5846 18.8287L24 13.1713Z" fill="#F4C13F"/>
</g>
<g clip-path="url(#clip1_355_21694)">
<path d="M52 13.1713H42.8309L40.0084 4L37.1691 13.1713L28 13.1537L35.4154 18.8287L32.5762 28L39.9916 22.325L47.4071 28L44.5846 18.8287L52 13.1713Z" fill="#F4C13F"/>
</g>
<g clip-path="url(#clip2_355_21694)">
<path d="M80 13.1713H70.8309L68.0084 4L65.1691 13.1713L56 13.1537L63.4154 18.8287L60.5762 28L67.9916 22.325L75.4071 28L72.5846 18.8287L80 13.1713Z" fill="#F4C13F"/>
</g>
<g clip-path="url(#clip3_355_21694)">
<path d="M108 13.1713H98.8309L96.0084 4L93.1691 13.1713L84 13.1537L91.4154 18.8287L88.5762 28L95.9916 22.325L103.407 28L100.585 18.8287L108 13.1713Z" fill="#F4C13F"/>
</g>
<g clip-path="url(#clip4_355_21694)">
<path d="M136 13.1713H126.831L124.008 4L121.169 13.1713L112 13.1537L119.415 18.8287L116.576 28L123.992 22.325L131.407 28L128.585 18.8287L136 13.1713Z" fill="white"/>
<path d="M121.169 13.1713L124.008 4L123.992 22.325L116.576 28L119.415 18.8287L112 13.1537L121.169 13.1713Z" fill="#F4C13F"/>
</g>
<line x1="152.5" y1="2" x2="152.5" y2="30" stroke="url(#paint0_linear_355_21694)" stroke-opacity="0.75"/>
<path d="M193.427 10.041H203.214V11.863H199.361V22.1337H197.249V11.863H193.411L193.427 10.041ZM202.795 13.3786H204.601V15.0716H204.633C204.698 14.8297 204.81 14.604 204.972 14.3783C205.133 14.1525 205.326 13.9429 205.568 13.7656C205.794 13.5721 206.052 13.427 206.342 13.3141C206.616 13.2012 206.907 13.1367 207.197 13.1367C207.423 13.1367 207.584 13.1529 207.664 13.1529C207.745 13.169 207.842 13.1851 207.922 13.1851V15.0393C207.793 15.0071 207.648 14.9909 207.503 14.9748C207.358 14.9587 207.229 14.9426 207.084 14.9426C206.761 14.9426 206.455 15.0071 206.165 15.1361C205.875 15.265 205.633 15.4585 205.407 15.7004C205.197 15.9584 205.02 16.2647 204.891 16.6356C204.762 17.0064 204.698 17.4417 204.698 17.9254V22.0853H202.763L202.795 13.3786ZM216.79 22.1337H214.888V20.9083H214.855C214.614 21.3598 214.259 21.6983 213.791 21.9724C213.324 22.2465 212.84 22.3755 212.356 22.3755C211.212 22.3755 210.373 22.1014 209.857 21.521C209.341 20.9567 209.083 20.086 209.083 18.9412V13.3786H211.018V18.7477C211.018 19.5217 211.163 20.0699 211.47 20.3762C211.76 20.6987 212.179 20.8599 212.711 20.8599C213.114 20.8599 213.453 20.7954 213.727 20.6664C214.001 20.5375 214.227 20.3762 214.388 20.1666C214.565 19.957 214.678 19.699 214.759 19.4088C214.839 19.1186 214.872 18.7961 214.872 18.4575V13.3786H216.806V22.1337H216.79ZM220.08 19.3282C220.144 19.8925 220.354 20.2795 220.724 20.5213C221.095 20.7471 221.547 20.8599 222.063 20.8599C222.24 20.8599 222.45 20.8438 222.675 20.8116C222.901 20.7793 223.127 20.7309 223.32 20.6503C223.53 20.5697 223.691 20.4568 223.82 20.2956C223.949 20.1344 224.014 19.9409 223.998 19.699C223.981 19.4572 223.901 19.2476 223.723 19.0863C223.546 18.9251 223.336 18.8122 223.079 18.6994C222.821 18.6026 222.514 18.522 222.176 18.4575C221.837 18.393 221.498 18.3124 221.144 18.2318C220.789 18.1512 220.434 18.0544 220.096 17.9416C219.757 17.8287 219.467 17.6836 219.193 17.474C218.935 17.2805 218.709 17.0386 218.564 16.7323C218.403 16.4259 218.322 16.0712 218.322 15.6198C218.322 15.1361 218.435 14.7491 218.677 14.4266C218.902 14.1041 219.209 13.8462 219.564 13.6527C219.918 13.4592 220.321 13.3141 220.757 13.2335C221.192 13.1529 221.611 13.1206 221.998 13.1206C222.45 13.1206 222.885 13.169 223.288 13.2657C223.691 13.3625 224.078 13.5076 224.401 13.7333C224.739 13.9429 225.013 14.2331 225.223 14.5717C225.449 14.9103 225.578 15.3295 225.642 15.8132H223.627C223.53 15.3457 223.32 15.0393 222.998 14.8781C222.659 14.7168 222.288 14.6362 221.853 14.6362C221.724 14.6362 221.547 14.6524 221.369 14.6685C221.176 14.7007 221.015 14.733 220.837 14.7975C220.676 14.862 220.531 14.9587 220.418 15.0716C220.305 15.1844 220.241 15.3457 220.241 15.5391C220.241 15.781 220.321 15.9584 220.483 16.1035C220.644 16.2486 220.853 16.3614 221.128 16.4743C221.386 16.5711 221.692 16.6517 222.03 16.7162C222.369 16.7807 222.724 16.8613 223.079 16.9419C223.433 17.0225 223.772 17.1193 224.11 17.2321C224.449 17.345 224.755 17.4901 225.013 17.6997C225.271 17.8932 225.497 18.135 225.658 18.4253C225.82 18.7155 225.9 19.0863 225.9 19.5055C225.9 20.0215 225.787 20.4568 225.545 20.8277C225.304 21.1824 224.997 21.4887 224.626 21.7145C224.256 21.9402 223.82 22.1014 223.369 22.2143C222.901 22.311 222.45 22.3755 221.998 22.3755C221.45 22.3755 220.934 22.311 220.466 22.1821C219.999 22.0531 219.58 21.8596 219.241 21.6177C218.902 21.3598 218.628 21.0534 218.435 20.6664C218.241 20.2956 218.129 19.8441 218.112 19.3121H220.063V19.3282H220.08ZM226.448 13.3786H227.916V10.7343H229.85V13.3625H231.592V14.7975H229.85V19.4733C229.85 19.6829 229.867 19.8441 229.883 20.0054C229.899 20.1505 229.947 20.2795 229.996 20.3762C230.06 20.473 230.157 20.5536 230.27 20.6019C230.399 20.6503 230.56 20.6826 230.786 20.6826C230.915 20.6826 231.06 20.6826 231.189 20.6664C231.318 20.6503 231.463 20.6342 231.592 20.6019V22.1014C231.382 22.1337 231.173 22.1498 230.963 22.1659C230.753 22.1982 230.56 22.1982 230.334 22.1982C229.818 22.1982 229.415 22.1498 229.109 22.0531C228.802 21.9563 228.561 21.8112 228.383 21.6339C228.206 21.4404 228.093 21.2146 228.028 20.9405C227.964 20.6664 227.932 20.3278 227.916 19.9731V14.8136H226.448V13.3463V13.3786ZM232.946 13.3786H234.768V14.5717H234.8C235.074 14.0558 235.445 13.7011 235.929 13.4753C236.413 13.2496 236.929 13.1367 237.509 13.1367C238.202 13.1367 238.799 13.2496 239.315 13.5076C239.831 13.7494 240.25 14.0719 240.589 14.5072C240.927 14.9265 241.185 15.4263 241.347 15.9906C241.508 16.5549 241.604 17.1676 241.604 17.7964C241.604 18.393 241.524 18.9573 241.379 19.5055C241.218 20.0537 240.992 20.5536 240.685 20.9728C240.379 21.392 239.992 21.7306 239.508 21.9886C239.025 22.2465 238.477 22.3755 237.832 22.3755C237.557 22.3755 237.267 22.3433 236.993 22.2949C236.719 22.2465 236.445 22.1659 236.187 22.0531C235.929 21.9402 235.687 21.7951 235.478 21.6177C235.252 21.4404 235.074 21.2308 234.929 21.005H234.897V25.3745H232.962V13.3786H232.946ZM239.702 17.7642C239.702 17.3772 239.654 16.9903 239.541 16.6194C239.444 16.2486 239.283 15.9261 239.073 15.6359C238.863 15.3457 238.606 15.1199 238.315 14.9426C238.009 14.7652 237.654 14.6846 237.267 14.6846C236.461 14.6846 235.848 14.9587 235.429 15.523C235.026 16.0874 234.816 16.8452 234.816 17.7803C234.816 18.2318 234.865 18.6349 234.978 19.0057C235.091 19.3766 235.236 19.699 235.461 19.9731C235.671 20.2472 235.929 20.4568 236.235 20.6181C236.542 20.7793 236.88 20.8599 237.283 20.8599C237.735 20.8599 238.09 20.7632 238.396 20.5858C238.702 20.4085 238.944 20.1666 239.154 19.8925C239.347 19.6023 239.492 19.2798 239.573 18.909C239.654 18.522 239.702 18.1512 239.702 17.7642ZM243.104 10.041H245.039V11.863H243.104V10.041ZM243.104 13.3786H245.039V22.1337H243.104V13.3786ZM246.764 10.041H248.699V22.1337H246.764V10.041ZM254.6 22.3755C253.907 22.3755 253.278 22.2627 252.73 22.0208C252.182 21.779 251.73 21.4726 251.343 21.0695C250.972 20.6664 250.682 20.1666 250.489 19.6023C250.295 19.038 250.182 18.4091 250.182 17.7481C250.182 17.087 250.279 16.4743 250.489 15.91C250.682 15.3457 250.972 14.862 251.343 14.4427C251.714 14.0397 252.182 13.7172 252.73 13.4915C253.278 13.2657 253.907 13.1367 254.6 13.1367C255.293 13.1367 255.922 13.2496 256.47 13.4915C257.019 13.7172 257.47 14.0397 257.857 14.4427C258.228 14.8458 258.518 15.3457 258.712 15.91C258.905 16.4743 259.018 17.087 259.018 17.7481C259.018 18.4253 258.921 19.038 258.712 19.6023C258.502 20.1666 258.228 20.6503 257.857 21.0695C257.486 21.4726 257.019 21.7951 256.47 22.0208C255.922 22.2465 255.31 22.3755 254.6 22.3755ZM254.6 20.8438C255.019 20.8438 255.406 20.7471 255.713 20.5697C256.035 20.3923 256.277 20.1505 256.487 19.8603C256.696 19.57 256.841 19.2314 256.938 18.8767C257.035 18.5059 257.083 18.135 257.083 17.7481C257.083 17.3772 257.035 17.0064 256.938 16.6356C256.841 16.2647 256.696 15.9422 256.487 15.652C256.277 15.3618 256.019 15.1361 255.713 14.9587C255.39 14.7813 255.019 14.6846 254.6 14.6846C254.181 14.6846 253.794 14.7813 253.488 14.9587C253.165 15.1361 252.923 15.3779 252.714 15.652C252.504 15.9422 252.359 16.2647 252.262 16.6356C252.165 17.0064 252.117 17.3772 252.117 17.7481C252.117 18.135 252.165 18.5059 252.262 18.8767C252.359 19.2476 252.504 19.57 252.714 19.8603C252.923 20.1505 253.181 20.3923 253.488 20.5697C253.81 20.7632 254.181 20.8438 254.6 20.8438ZM259.598 13.3786H261.066V10.7343H263V13.3625H264.742V14.7975H263V19.4733C263 19.6829 263.017 19.8441 263.033 20.0054C263.049 20.1505 263.097 20.2795 263.146 20.3762C263.21 20.473 263.307 20.5536 263.42 20.6019C263.549 20.6503 263.71 20.6826 263.936 20.6826C264.065 20.6826 264.21 20.6826 264.339 20.6664C264.468 20.6503 264.613 20.6342 264.742 20.6019V22.1014C264.532 22.1337 264.323 22.1498 264.113 22.1659C263.903 22.1982 263.71 22.1982 263.484 22.1982C262.968 22.1982 262.565 22.1498 262.259 22.0531C261.952 21.9563 261.711 21.8112 261.533 21.6339C261.356 21.4404 261.243 21.2146 261.179 20.9405C261.114 20.6664 261.082 20.3278 261.066 19.9731V14.8136H259.598V13.3463V13.3786Z" fill="white"/>
<path d="M191.17 10.0415H182.318L179.593 1.625L176.852 10.0415L168 10.0254L175.159 15.2333L172.418 23.6498L179.577 18.4419L186.736 23.6498L184.011 15.2333L191.17 10.0415Z" fill="#00B67A"/>
<path d="M184.623 17.1357L184.011 15.2332L179.593 18.4417L184.623 17.1357Z" fill="#005128"/>
<path d="M272.967 23V13.1738H274.408V14.668H274.514C274.695 14.1816 275.021 13.7891 275.489 13.4902C275.964 13.1855 276.494 13.0332 277.08 13.0332C277.191 13.0332 277.329 13.0361 277.493 13.042C277.657 13.042 277.783 13.0449 277.871 13.0508V14.5801C277.818 14.5684 277.701 14.5508 277.52 14.5273C277.338 14.5039 277.145 14.4922 276.939 14.4922C276.465 14.4922 276.04 14.5918 275.665 14.791C275.29 14.9902 274.994 15.2627 274.777 15.6084C274.566 15.9541 274.461 16.3496 274.461 16.7949V23H272.967ZM281.703 23.2285C281.082 23.2285 280.517 23.1113 280.007 22.877C279.497 22.6367 279.093 22.291 278.794 21.8398C278.495 21.3887 278.346 20.8438 278.346 20.2051C278.346 19.6426 278.457 19.1885 278.68 18.8428C278.902 18.4912 279.198 18.2158 279.567 18.0166C279.942 17.8115 280.353 17.6592 280.798 17.5596C281.249 17.46 281.703 17.3809 282.16 17.3223C282.758 17.2461 283.241 17.1875 283.61 17.1465C283.985 17.1055 284.258 17.0352 284.428 16.9355C284.604 16.8359 284.691 16.666 284.691 16.4258V16.373C284.691 15.7461 284.519 15.2598 284.173 14.9141C283.833 14.5625 283.314 14.3867 282.617 14.3867C281.902 14.3867 281.34 14.5449 280.93 14.8613C280.52 15.1719 280.232 15.5059 280.068 15.8633L278.627 15.3535C278.885 14.7559 279.228 14.29 279.655 13.9561C280.089 13.6221 280.558 13.3877 281.062 13.2529C281.571 13.1182 282.072 13.0508 282.564 13.0508C282.881 13.0508 283.244 13.0889 283.654 13.165C284.064 13.2354 284.463 13.3877 284.85 13.6221C285.242 13.8506 285.564 14.1992 285.816 14.668C286.074 15.1309 286.203 15.752 286.203 16.5312V23H284.691V21.6641H284.621C284.521 21.875 284.352 22.1035 284.111 22.3496C283.871 22.5898 283.552 22.7979 283.153 22.9736C282.761 23.1436 282.277 23.2285 281.703 23.2285ZM281.932 21.875C282.529 21.875 283.033 21.7578 283.443 21.5234C283.854 21.2891 284.164 20.9873 284.375 20.6182C284.586 20.2432 284.691 19.8535 284.691 19.4492V18.0605C284.627 18.1367 284.486 18.207 284.27 18.2715C284.059 18.3301 283.812 18.3828 283.531 18.4297C283.256 18.4766 282.986 18.5176 282.723 18.5527C282.459 18.582 282.248 18.6055 282.09 18.623C281.697 18.6758 281.331 18.7607 280.991 18.8779C280.651 18.9893 280.376 19.1562 280.165 19.3789C279.96 19.6016 279.857 19.9062 279.857 20.293C279.857 20.8145 280.051 21.21 280.438 21.4795C280.83 21.7432 281.328 21.875 281.932 21.875ZM292.391 13.1738V14.457H287.311V13.1738H292.391ZM288.787 10.8359H290.281V20.1875C290.281 20.6973 290.387 21.0723 290.598 21.3125C290.809 21.5469 291.143 21.6641 291.6 21.6641C291.699 21.6641 291.802 21.6582 291.907 21.6465C292.019 21.6348 292.139 21.6172 292.268 21.5938L292.584 22.9473C292.443 23 292.271 23.041 292.065 23.0703C291.866 23.1055 291.664 23.123 291.459 23.123C290.668 23.123 290.023 22.8887 289.525 22.4199C289.033 21.9512 288.787 21.3418 288.787 20.5918V10.8359ZM297.84 23.2109C296.896 23.2109 296.079 23 295.388 22.5781C294.702 22.1562 294.175 21.5674 293.806 20.8115C293.437 20.0498 293.252 19.168 293.252 18.166C293.252 17.1582 293.434 16.2705 293.797 15.5029C294.16 14.7354 294.67 14.1348 295.326 13.7012C295.988 13.2676 296.762 13.0508 297.646 13.0508C298.156 13.0508 298.663 13.1357 299.167 13.3057C299.671 13.4756 300.128 13.751 300.538 14.1318C300.954 14.5127 301.285 15.0166 301.531 15.6436C301.777 16.2705 301.9 17.041 301.9 17.9551V18.6055H294.324V17.3047H301.083L300.389 17.7969C300.389 17.1406 300.286 16.5576 300.081 16.0479C299.876 15.5381 299.568 15.1367 299.158 14.8438C298.754 14.5508 298.25 14.4043 297.646 14.4043C297.043 14.4043 296.524 14.5537 296.091 14.8525C295.663 15.1455 295.335 15.5293 295.106 16.0039C294.878 16.4785 294.764 16.9883 294.764 17.5332V18.3945C294.764 19.1387 294.893 19.7686 295.15 20.2842C295.408 20.7998 295.769 21.1924 296.231 21.4619C296.694 21.7256 297.23 21.8574 297.84 21.8574C298.232 21.8574 298.59 21.8018 298.912 21.6904C299.234 21.5732 299.513 21.4004 299.747 21.1719C299.981 20.9375 300.16 20.6504 300.283 20.3105L301.742 20.7324C301.59 21.2246 301.332 21.6582 300.969 22.0332C300.611 22.4023 300.166 22.6924 299.633 22.9033C299.1 23.1084 298.502 23.2109 297.84 23.2109ZM310.268 15.3887L308.914 15.7578C308.785 15.4238 308.562 15.1074 308.246 14.8086C307.936 14.5039 307.449 14.3516 306.787 14.3516C306.189 14.3516 305.691 14.4922 305.293 14.7734C304.895 15.0488 304.695 15.3945 304.695 15.8105C304.695 16.1855 304.83 16.4844 305.1 16.707C305.375 16.9297 305.803 17.1113 306.383 17.252L307.842 17.6035C308.715 17.8145 309.365 18.1396 309.793 18.5791C310.227 19.0186 310.443 19.5781 310.443 20.2578C310.443 20.8203 310.282 21.3242 309.96 21.7695C309.638 22.2148 309.189 22.5664 308.615 22.8242C308.041 23.082 307.373 23.2109 306.611 23.2109C305.609 23.2109 304.78 22.9912 304.124 22.5518C303.474 22.1123 303.061 21.4766 302.885 20.6445L304.309 20.293C304.443 20.8203 304.701 21.2158 305.082 21.4795C305.469 21.7432 305.973 21.875 306.594 21.875C307.291 21.875 307.848 21.7256 308.264 21.4268C308.686 21.1221 308.896 20.7617 308.896 20.3457C308.896 19.6543 308.41 19.1914 307.438 18.957L305.803 18.5703C304.9 18.3535 304.238 18.0225 303.816 17.5771C303.395 17.1318 303.184 16.5723 303.184 15.8984C303.184 15.3418 303.339 14.8496 303.649 14.4219C303.966 13.9941 304.396 13.6602 304.941 13.4199C305.486 13.1738 306.102 13.0508 306.787 13.0508C307.766 13.0508 308.53 13.2676 309.081 13.7012C309.638 14.1289 310.033 14.6914 310.268 15.3887ZM322.291 18.9922V13.1738H323.785V23H322.291V21.3301H322.186C321.951 21.8281 321.591 22.2529 321.104 22.6045C320.624 22.9561 320.012 23.1289 319.268 23.123C318.652 23.123 318.107 22.9912 317.633 22.7275C317.158 22.458 316.783 22.0479 316.508 21.4971C316.238 20.9463 316.104 20.252 316.104 19.4141V13.1738H317.598V19.3262C317.598 20.0352 317.8 20.6035 318.204 21.0312C318.614 21.459 319.133 21.6699 319.76 21.6641C320.135 21.6641 320.516 21.5703 320.902 21.3828C321.295 21.1895 321.623 20.8965 321.887 20.5039C322.156 20.1055 322.291 19.6016 322.291 18.9922ZM332.662 15.3887L331.309 15.7578C331.18 15.4238 330.957 15.1074 330.641 14.8086C330.33 14.5039 329.844 14.3516 329.182 14.3516C328.584 14.3516 328.086 14.4922 327.688 14.7734C327.289 15.0488 327.09 15.3945 327.09 15.8105C327.09 16.1855 327.225 16.4844 327.494 16.707C327.77 16.9297 328.197 17.1113 328.777 17.252L330.236 17.6035C331.109 17.8145 331.76 18.1396 332.188 18.5791C332.621 19.0186 332.838 19.5781 332.838 20.2578C332.838 20.8203 332.677 21.3242 332.354 21.7695C332.032 22.2148 331.584 22.5664 331.01 22.8242C330.436 23.082 329.768 23.2109 329.006 23.2109C328.004 23.2109 327.175 22.9912 326.519 22.5518C325.868 22.1123 325.455 21.4766 325.279 20.6445L326.703 20.293C326.838 20.8203 327.096 21.2158 327.477 21.4795C327.863 21.7432 328.367 21.875 328.988 21.875C329.686 21.875 330.242 21.7256 330.658 21.4268C331.08 21.1221 331.291 20.7617 331.291 20.3457C331.291 19.6543 330.805 19.1914 329.832 18.957L328.197 18.5703C327.295 18.3535 326.633 18.0225 326.211 17.5771C325.789 17.1318 325.578 16.5723 325.578 15.8984C325.578 15.3418 325.733 14.8496 326.044 14.4219C326.36 13.9941 326.791 13.6602 327.336 13.4199C327.881 13.1738 328.496 13.0508 329.182 13.0508C330.16 13.0508 330.925 13.2676 331.476 13.7012C332.032 14.1289 332.428 14.6914 332.662 15.3887ZM341.381 23.2285C340.76 23.2285 340.194 23.1113 339.685 22.877C339.175 22.6367 338.771 22.291 338.472 21.8398C338.173 21.3887 338.023 20.8438 338.023 20.2051C338.023 19.6426 338.135 19.1885 338.357 18.8428C338.58 18.4912 338.876 18.2158 339.245 18.0166C339.62 17.8115 340.03 17.6592 340.476 17.5596C340.927 17.46 341.381 17.3809 341.838 17.3223C342.436 17.2461 342.919 17.1875 343.288 17.1465C343.663 17.1055 343.936 17.0352 344.105 16.9355C344.281 16.8359 344.369 16.666 344.369 16.4258V16.373C344.369 15.7461 344.196 15.2598 343.851 14.9141C343.511 14.5625 342.992 14.3867 342.295 14.3867C341.58 14.3867 341.018 14.5449 340.607 14.8613C340.197 15.1719 339.91 15.5059 339.746 15.8633L338.305 15.3535C338.562 14.7559 338.905 14.29 339.333 13.9561C339.767 13.6221 340.235 13.3877 340.739 13.2529C341.249 13.1182 341.75 13.0508 342.242 13.0508C342.559 13.0508 342.922 13.0889 343.332 13.165C343.742 13.2354 344.141 13.3877 344.527 13.6221C344.92 13.8506 345.242 14.1992 345.494 14.668C345.752 15.1309 345.881 15.752 345.881 16.5312V23H344.369V21.6641H344.299C344.199 21.875 344.029 22.1035 343.789 22.3496C343.549 22.5898 343.229 22.7979 342.831 22.9736C342.438 23.1436 341.955 23.2285 341.381 23.2285ZM341.609 21.875C342.207 21.875 342.711 21.7578 343.121 21.5234C343.531 21.2891 343.842 20.9873 344.053 20.6182C344.264 20.2432 344.369 19.8535 344.369 19.4492V18.0605C344.305 18.1367 344.164 18.207 343.947 18.2715C343.736 18.3301 343.49 18.3828 343.209 18.4297C342.934 18.4766 342.664 18.5176 342.4 18.5527C342.137 18.582 341.926 18.6055 341.768 18.623C341.375 18.6758 341.009 18.7607 340.669 18.8779C340.329 18.9893 340.054 19.1562 339.843 19.3789C339.638 19.6016 339.535 19.9062 339.535 20.293C339.535 20.8145 339.729 21.21 340.115 21.4795C340.508 21.7432 341.006 21.875 341.609 21.875ZM354.758 15.3887L353.404 15.7578C353.275 15.4238 353.053 15.1074 352.736 14.8086C352.426 14.5039 351.939 14.3516 351.277 14.3516C350.68 14.3516 350.182 14.4922 349.783 14.7734C349.385 15.0488 349.186 15.3945 349.186 15.8105C349.186 16.1855 349.32 16.4844 349.59 16.707C349.865 16.9297 350.293 17.1113 350.873 17.252L352.332 17.6035C353.205 17.8145 353.855 18.1396 354.283 18.5791C354.717 19.0186 354.934 19.5781 354.934 20.2578C354.934 20.8203 354.772 21.3242 354.45 21.7695C354.128 22.2148 353.68 22.5664 353.105 22.8242C352.531 23.082 351.863 23.2109 351.102 23.2109C350.1 23.2109 349.271 22.9912 348.614 22.5518C347.964 22.1123 347.551 21.4766 347.375 20.6445L348.799 20.293C348.934 20.8203 349.191 21.2158 349.572 21.4795C349.959 21.7432 350.463 21.875 351.084 21.875C351.781 21.875 352.338 21.7256 352.754 21.4268C353.176 21.1221 353.387 20.7617 353.387 20.3457C353.387 19.6543 352.9 19.1914 351.928 18.957L350.293 18.5703C349.391 18.3535 348.729 18.0225 348.307 17.5771C347.885 17.1318 347.674 16.5723 347.674 15.8984C347.674 15.3418 347.829 14.8496 348.14 14.4219C348.456 13.9941 348.887 13.6602 349.432 13.4199C349.977 13.1738 350.592 13.0508 351.277 13.0508C352.256 13.0508 353.021 13.2676 353.571 13.7012C354.128 14.1289 354.523 14.6914 354.758 15.3887ZM364.707 23.2109C363.764 23.2109 362.946 23 362.255 22.5781C361.569 22.1562 361.042 21.5674 360.673 20.8115C360.304 20.0498 360.119 19.168 360.119 18.166C360.119 17.1582 360.301 16.2705 360.664 15.5029C361.027 14.7354 361.537 14.1348 362.193 13.7012C362.855 13.2676 363.629 13.0508 364.514 13.0508C365.023 13.0508 365.53 13.1357 366.034 13.3057C366.538 13.4756 366.995 13.751 367.405 14.1318C367.821 14.5127 368.152 15.0166 368.398 15.6436C368.645 16.2705 368.768 17.041 368.768 17.9551V18.6055H361.191V17.3047H367.95L367.256 17.7969C367.256 17.1406 367.153 16.5576 366.948 16.0479C366.743 15.5381 366.436 15.1367 366.025 14.8438C365.621 14.5508 365.117 14.4043 364.514 14.4043C363.91 14.4043 363.392 14.5537 362.958 14.8525C362.53 15.1455 362.202 15.5293 361.974 16.0039C361.745 16.4785 361.631 16.9883 361.631 17.5332V18.3945C361.631 19.1387 361.76 19.7686 362.018 20.2842C362.275 20.7998 362.636 21.1924 363.099 21.4619C363.562 21.7256 364.098 21.8574 364.707 21.8574C365.1 21.8574 365.457 21.8018 365.779 21.6904C366.102 21.5732 366.38 21.4004 366.614 21.1719C366.849 20.9375 367.027 20.6504 367.15 20.3105L368.609 20.7324C368.457 21.2246 368.199 21.6582 367.836 22.0332C367.479 22.4023 367.033 22.6924 366.5 22.9033C365.967 23.1084 365.369 23.2109 364.707 23.2109ZM370.912 13.1738L373.25 17.1992L375.605 13.1738H377.346L374.182 18.0957L377.346 23H375.605L373.25 19.1855L370.912 23H369.172L372.283 18.0957L369.172 13.1738H370.912ZM382.232 23.2109C381.318 23.2109 380.527 22.9941 379.859 22.5605C379.197 22.1211 378.685 21.5205 378.321 20.7588C377.964 19.9971 377.785 19.127 377.785 18.1484C377.785 17.1465 377.97 16.2646 378.339 15.5029C378.708 14.7354 379.224 14.1348 379.886 13.7012C380.554 13.2676 381.33 13.0508 382.215 13.0508C382.906 13.0508 383.527 13.1797 384.078 13.4375C384.635 13.6895 385.089 14.0469 385.44 14.5098C385.798 14.9727 386.018 15.5117 386.1 16.127H384.588C384.512 15.8281 384.374 15.5469 384.175 15.2832C383.976 15.0195 383.712 14.8086 383.384 14.6504C383.062 14.4863 382.678 14.4043 382.232 14.4043C381.646 14.4043 381.134 14.5566 380.694 14.8613C380.255 15.166 379.912 15.5967 379.666 16.1533C379.42 16.7041 379.297 17.3516 379.297 18.0957C379.297 18.8516 379.417 19.5137 379.657 20.082C379.897 20.6445 380.237 21.0811 380.677 21.3916C381.122 21.7021 381.641 21.8574 382.232 21.8574C382.824 21.8574 383.331 21.7051 383.753 21.4004C384.175 21.0898 384.453 20.668 384.588 20.1348H386.1C386.018 20.7148 385.807 21.2363 385.467 21.6992C385.133 22.1621 384.69 22.5312 384.14 22.8066C383.595 23.0762 382.959 23.2109 382.232 23.2109ZM391.637 23.2109C390.693 23.2109 389.876 23 389.185 22.5781C388.499 22.1562 387.972 21.5674 387.603 20.8115C387.233 20.0498 387.049 19.168 387.049 18.166C387.049 17.1582 387.23 16.2705 387.594 15.5029C387.957 14.7354 388.467 14.1348 389.123 13.7012C389.785 13.2676 390.559 13.0508 391.443 13.0508C391.953 13.0508 392.46 13.1357 392.964 13.3057C393.468 13.4756 393.925 13.751 394.335 14.1318C394.751 14.5127 395.082 15.0166 395.328 15.6436C395.574 16.2705 395.697 17.041 395.697 17.9551V18.6055H388.121V17.3047H394.88L394.186 17.7969C394.186 17.1406 394.083 16.5576 393.878 16.0479C393.673 15.5381 393.365 15.1367 392.955 14.8438C392.551 14.5508 392.047 14.4043 391.443 14.4043C390.84 14.4043 390.321 14.5537 389.888 14.8525C389.46 15.1455 389.132 15.5293 388.903 16.0039C388.675 16.4785 388.561 16.9883 388.561 17.5332V18.3945C388.561 19.1387 388.689 19.7686 388.947 20.2842C389.205 20.7998 389.565 21.1924 390.028 21.4619C390.491 21.7256 391.027 21.8574 391.637 21.8574C392.029 21.8574 392.387 21.8018 392.709 21.6904C393.031 21.5732 393.31 21.4004 393.544 21.1719C393.778 20.9375 393.957 20.6504 394.08 20.3105L395.539 20.7324C395.387 21.2246 395.129 21.6582 394.766 22.0332C394.408 22.4023 393.963 22.6924 393.43 22.9033C392.896 23.1084 392.299 23.2109 391.637 23.2109ZM398.615 9.9043V23H397.121V9.9043H398.615ZM402.043 9.9043V23H400.549V9.9043H402.043ZM408.09 23.2109C407.146 23.2109 406.329 23 405.638 22.5781C404.952 22.1562 404.425 21.5674 404.056 20.8115C403.687 20.0498 403.502 19.168 403.502 18.166C403.502 17.1582 403.684 16.2705 404.047 15.5029C404.41 14.7354 404.92 14.1348 405.576 13.7012C406.238 13.2676 407.012 13.0508 407.896 13.0508C408.406 13.0508 408.913 13.1357 409.417 13.3057C409.921 13.4756 410.378 13.751 410.788 14.1318C411.204 14.5127 411.535 15.0166 411.781 15.6436C412.027 16.2705 412.15 17.041 412.15 17.9551V18.6055H404.574V17.3047H411.333L410.639 17.7969C410.639 17.1406 410.536 16.5576 410.331 16.0479C410.126 15.5381 409.818 15.1367 409.408 14.8438C409.004 14.5508 408.5 14.4043 407.896 14.4043C407.293 14.4043 406.774 14.5537 406.341 14.8525C405.913 15.1455 405.585 15.5293 405.356 16.0039C405.128 16.4785 405.014 16.9883 405.014 17.5332V18.3945C405.014 19.1387 405.143 19.7686 405.4 20.2842C405.658 20.7998 406.019 21.1924 406.481 21.4619C406.944 21.7256 407.48 21.8574 408.09 21.8574C408.482 21.8574 408.84 21.8018 409.162 21.6904C409.484 21.5732 409.763 21.4004 409.997 21.1719C410.231 20.9375 410.41 20.6504 410.533 20.3105L411.992 20.7324C411.84 21.2246 411.582 21.6582 411.219 22.0332C410.861 22.4023 410.416 22.6924 409.883 22.9033C409.35 23.1084 408.752 23.2109 408.09 23.2109ZM415.068 17.0938V23H413.574V13.1738H415.016V14.7207H415.156C415.385 14.2168 415.733 13.8125 416.202 13.5078C416.671 13.2031 417.277 13.0508 418.021 13.0508C418.684 13.0508 419.264 13.1855 419.762 13.4551C420.26 13.7246 420.646 14.1348 420.922 14.6855C421.203 15.2305 421.344 15.9219 421.344 16.7598V23H419.85V16.8652C419.85 16.0977 419.647 15.4971 419.243 15.0635C418.839 14.624 418.288 14.4043 417.591 14.4043C417.11 14.4043 416.68 14.5098 416.299 14.7207C415.918 14.9316 415.616 15.2363 415.394 15.6348C415.177 16.0332 415.068 16.5195 415.068 17.0938ZM427.531 13.1738V14.457H422.451V13.1738H427.531ZM423.928 10.8359H425.422V20.1875C425.422 20.6973 425.527 21.0723 425.738 21.3125C425.949 21.5469 426.283 21.6641 426.74 21.6641C426.84 21.6641 426.942 21.6582 427.048 21.6465C427.159 21.6348 427.279 21.6172 427.408 21.5938L427.725 22.9473C427.584 23 427.411 23.041 427.206 23.0703C427.007 23.1055 426.805 23.123 426.6 23.123C425.809 23.123 425.164 22.8887 424.666 22.4199C424.174 21.9512 423.928 21.3418 423.928 20.5918V10.8359Z" fill="white" fill-opacity="0.7"/>
<defs>
<linearGradient id="paint0_linear_355_21694" x1="152" y1="29.5" x2="152" y2="2" gradientUnits="userSpaceOnUse">
<stop stop-color="white" stop-opacity="0"/>
<stop offset="0.532171" stop-color="white"/>
<stop offset="1" stop-color="white" stop-opacity="0"/>
</linearGradient>
<clipPath id="clip0_355_21694">
<rect width="24" height="24" fill="white" transform="translate(0 4)"/>
</clipPath>
<clipPath id="clip1_355_21694">
<rect width="24" height="24" fill="white" transform="translate(28 4)"/>
</clipPath>
<clipPath id="clip2_355_21694">
<rect width="24" height="24" fill="white" transform="translate(56 4)"/>
</clipPath>
<clipPath id="clip3_355_21694">
<rect width="24" height="24" fill="white" transform="translate(84 4)"/>
</clipPath>
<clipPath id="clip4_355_21694">
<rect width="24" height="24" fill="white" transform="translate(112 4)"/>
</clipPath>
</defs>
</svg>
