<svg width="416" height="266" viewBox="0 0 416 266" fill="none" xmlns="http://www.w3.org/2000/svg">
<mask id="mask0_355_21383" style="mask-type:alpha" maskUnits="userSpaceOnUse" x="0" y="0" width="416" height="266">
<rect width="416" height="266" rx="20" fill="#11192C"/>
</mask>
<g mask="url(#mask0_355_21383)">
<line x1="18.5" y1="-2.18557e-08" x2="18.5" y2="266" stroke="white" stroke-opacity="0.06"/>
<line x1="416" y1="18.5" y2="18.5" stroke="white" stroke-opacity="0.06"/>
<line x1="38.5" y1="-2.18557e-08" x2="38.5" y2="266" stroke="white" stroke-opacity="0.06"/>
<line x1="416" y1="38.5" y2="38.5" stroke="white" stroke-opacity="0.06"/>
<line x1="58.5" y1="-2.18557e-08" x2="58.5" y2="266" stroke="white" stroke-opacity="0.06"/>
<line x1="416" y1="58.5" y2="58.5" stroke="white" stroke-opacity="0.06"/>
<line x1="78.5" y1="-2.18557e-08" x2="78.5" y2="266" stroke="white" stroke-opacity="0.06"/>
<line x1="416" y1="78.5" y2="78.5" stroke="white" stroke-opacity="0.06"/>
<line x1="98.5" y1="-2.18557e-08" x2="98.5" y2="266" stroke="white" stroke-opacity="0.06"/>
<line x1="416" y1="98.5" y2="98.5" stroke="white" stroke-opacity="0.06"/>
<line x1="118.5" y1="-2.18557e-08" x2="118.5" y2="266" stroke="white" stroke-opacity="0.06"/>
<line x1="416" y1="118.5" y2="118.5" stroke="white" stroke-opacity="0.06"/>
<line x1="138.5" y1="-2.18557e-08" x2="138.5" y2="266" stroke="white" stroke-opacity="0.06"/>
<line x1="416" y1="138.5" y2="138.5" stroke="white" stroke-opacity="0.06"/>
<line x1="158.5" y1="-2.18557e-08" x2="158.5" y2="266" stroke="white" stroke-opacity="0.06"/>
<line x1="416" y1="158.5" y2="158.5" stroke="white" stroke-opacity="0.06"/>
<line x1="178.5" y1="-2.18557e-08" x2="178.5" y2="266" stroke="white" stroke-opacity="0.06"/>
<line x1="416" y1="178.5" y2="178.5" stroke="white" stroke-opacity="0.06"/>
<line x1="198.5" y1="-2.18557e-08" x2="198.5" y2="266" stroke="white" stroke-opacity="0.06"/>
<line x1="416" y1="198.5" y2="198.5" stroke="white" stroke-opacity="0.06"/>
<line x1="218.5" y1="-2.18557e-08" x2="218.5" y2="266" stroke="white" stroke-opacity="0.06"/>
<line x1="416" y1="218.5" y2="218.5" stroke="white" stroke-opacity="0.06"/>
<line x1="238.5" y1="-2.18557e-08" x2="238.5" y2="266" stroke="white" stroke-opacity="0.06"/>
<line x1="416" y1="238.5" y2="238.5" stroke="white" stroke-opacity="0.06"/>
<line x1="258.5" y1="-2.18557e-08" x2="258.5" y2="266" stroke="white" stroke-opacity="0.06"/>
<line x1="416" y1="258.5" y2="258.5" stroke="white" stroke-opacity="0.06"/>
<line x1="278.5" y1="-2.18557e-08" x2="278.5" y2="266" stroke="white" stroke-opacity="0.06"/>
<line x1="298.5" y1="-2.18557e-08" x2="298.5" y2="266" stroke="white" stroke-opacity="0.06"/>
<line x1="318.5" y1="-2.18557e-08" x2="318.5" y2="266" stroke="white" stroke-opacity="0.06"/>
<line x1="338.5" y1="-2.18557e-08" x2="338.5" y2="266" stroke="white" stroke-opacity="0.06"/>
<line x1="358.5" y1="-2.18557e-08" x2="358.5" y2="266" stroke="white" stroke-opacity="0.06"/>
<line x1="378.5" y1="-2.18557e-08" x2="378.5" y2="266" stroke="white" stroke-opacity="0.06"/>
<line x1="398.5" y1="-2.18557e-08" x2="398.5" y2="266" stroke="white" stroke-opacity="0.06"/>
</g>
</svg>
