<svg width="72" height="72" viewBox="0 0 72 72" fill="none" xmlns="http://www.w3.org/2000/svg">
<g clip-path="url(#clip0_355_18373)">
<path d="M54.862 65.8664C52.6964 66.4078 50.452 66.4866 48.2287 66.4655C47.5453 66.4514 46.838 66.533 46.177 66.3066C45.1153 65.9227 44.3011 64.8638 44.3152 63.7177C44.3067 61.8361 44.3025 59.956 44.318 58.0744C44.3278 56.6808 45.5681 55.4278 46.9617 55.3983C48.8461 55.3364 50.767 55.5319 52.6134 55.0524C55.1827 54.4308 57.4228 52.7658 58.9486 50.6325C60.1608 48.9605 60.8245 46.9214 60.9033 44.8627C60.9258 44.0133 60.9652 43.1597 60.8695 42.3132C60.6375 40.4007 58.8769 38.806 56.9461 38.7849C53.5528 38.7427 50.1581 38.7975 46.7662 38.7582C44.5992 38.73 42.4884 37.7583 41.0259 36.1664C39.5578 34.6758 38.7619 32.5931 38.7731 30.5077C38.7619 25.3552 38.7717 20.2027 38.7689 15.0502C38.7492 13.7171 38.7633 12.353 39.2189 11.0817C40.0978 8.55471 42.2817 6.49737 44.8748 5.81955C46.3373 5.4244 47.8631 5.56643 49.358 5.53831C54.1814 5.54252 59.0048 5.52987 63.8283 5.54534C66.022 5.54393 68.1848 6.47768 69.6825 8.0794C71.1295 9.52502 71.948 11.5346 72 13.5736L72 44.5125C71.9241 45.4955 71.9395 46.4883 71.7511 47.46C71.2758 50.9475 69.8695 54.2817 67.8586 57.1575C64.7944 61.5338 60.0441 64.636 54.862 65.8664Z" fill="white" fill-opacity="0.75"/>
<path d="M16.1742 65.8458C13.972 66.4125 11.6826 66.4857 9.41854 66.466C8.73511 66.4519 8.02495 66.5335 7.36823 66.2944C6.31495 65.8964 5.52885 64.8375 5.54151 63.6971C5.53448 61.831 5.52885 59.9649 5.54432 58.0988C5.54854 56.7066 6.76917 55.4438 8.16136 55.4002C9.70964 55.3411 11.2692 55.4761 12.8076 55.2554C17.6423 54.5888 21.7246 50.2941 22.0931 45.42C22.1564 44.3443 22.214 43.2572 22.0748 42.1871C21.7907 40.3083 20.0273 38.7868 18.126 38.7825C14.7356 38.746 11.3423 38.798 7.95182 38.7572C5.72432 38.7207 3.57276 37.6744 2.10745 36.008C0.78276 34.5835 0.0458861 32.6682 -0.000519489 30.7275L-0.000517989 13.5755C0.045888 11.4661 0.930421 9.39895 2.4562 7.93927C3.97214 6.38395 6.12933 5.51911 8.29777 5.54302C13.9382 5.54161 19.5801 5.52614 25.222 5.55146C28.5773 5.57114 31.6921 7.93786 32.7806 11.0808C33.1293 12.0835 33.2404 13.1522 33.232 14.2097C33.2278 24.2377 33.2376 34.2657 33.2264 44.295C33.2151 48.3113 32.0971 52.3135 30.0018 55.7405C27.0332 60.8157 21.8709 64.4804 16.1742 65.8458Z" fill="white" fill-opacity="0.75"/>
</g>
<defs>
<clipPath id="clip0_355_18373">
<rect width="72" height="72" fill="white" transform="translate(72 72) rotate(-180)"/>
</clipPath>
</defs>
</svg>
