<svg width="419" height="292" viewBox="0 0 419 292" fill="none" xmlns="http://www.w3.org/2000/svg">
<g clip-path="url(#clip0_355_14895)">
<path d="M54.4234 17.18C53.0034 17.18 51.7334 16.83 50.6134 16.14C49.4934 15.44 48.6234 14.45 47.9834 13.17C47.3434 11.88 47.0234 10.36 47.0234 8.6C47.0234 6.83 47.3434 5.31 47.9834 4.02C48.6234 2.73 49.5034 1.74 50.6134 1.04C51.7334 0.35 53.0034 0 54.4234 0C55.8534 0 57.1234 0.35 58.2334 1.04C59.3434 1.74 60.2134 2.73 60.8534 4.02C61.4934 5.31 61.8034 6.84 61.8034 8.6C61.8034 10.36 61.4834 11.88 60.8534 13.17C60.2234 14.46 59.3434 15.44 58.2334 16.14C57.1234 16.83 55.8534 17.18 54.4234 17.18ZM54.4234 15.3C55.4334 15.3 56.3534 15.04 57.1734 14.53C57.9934 14.02 58.6434 13.26 59.1234 12.27C59.6034 11.27 59.8434 10.05 59.8434 8.61C59.8434 7.16 59.6034 5.93 59.1234 4.93C58.6434 3.93 57.9934 3.17 57.1734 2.66C56.3534 2.15 55.4434 1.89 54.4234 1.89C53.4034 1.89 52.4934 2.14 51.6734 2.66C50.8534 3.18 50.1934 3.92 49.7034 4.92C49.2134 5.92 48.9734 7.15 48.9734 8.6C48.9734 10.05 49.2134 11.27 49.7034 12.26C50.1934 13.25 50.8434 14.01 51.6734 14.52C52.5034 15.03 53.4134 15.3 54.4234 15.3Z" fill="#4229FF"/>
<path d="M70.8609 17.18C69.4409 17.18 68.1709 16.83 67.0509 16.14C65.9309 15.44 65.0609 14.45 64.4209 13.17C63.7809 11.89 63.4609 10.36 63.4609 8.6C63.4609 6.83 63.7809 5.31 64.4209 4.02C65.0609 2.73 65.9409 1.74 67.0509 1.04C68.1709 0.35 69.4409 0 70.8609 0C72.2909 0 73.5609 0.35 74.6709 1.04C75.7809 1.74 76.6509 2.73 77.2909 4.02C77.9309 5.31 78.2409 6.84 78.2409 8.6C78.2409 10.36 77.9209 11.88 77.2909 13.17C76.6609 14.46 75.7809 15.44 74.6709 16.14C73.5609 16.83 72.2909 17.18 70.8609 17.18ZM70.8609 15.3C71.8709 15.3 72.7909 15.04 73.6109 14.53C74.4309 14.02 75.0809 13.26 75.5609 12.27C76.0409 11.27 76.2809 10.05 76.2809 8.61C76.2809 7.16 76.0409 5.93 75.5609 4.93C75.0809 3.93 74.4309 3.17 73.6109 2.66C72.7909 2.15 71.8809 1.89 70.8609 1.89C69.8409 1.89 68.9309 2.15 68.1109 2.66C67.2909 3.17 66.6309 3.93 66.1409 4.93C65.6509 5.93 65.4109 7.16 65.4109 8.61C65.4109 10.06 65.6509 11.28 66.1409 12.27C66.6309 13.26 67.2809 14.02 68.1109 14.53C68.9409 15.04 69.8509 15.3 70.8609 15.3Z" fill="#4229FF"/>
<path d="M80.5547 16.9587V0.21875H86.2147C87.5247 0.21875 88.5947 0.45875 89.4347 0.92875C90.2647 1.39875 90.8847 2.03875 91.2947 2.83875C91.6947 3.63875 91.9047 4.53875 91.9047 5.51875C91.9047 6.49875 91.7047 7.39875 91.3047 8.19875C90.9047 9.00875 90.2847 9.64875 89.4547 10.1287C88.6247 10.6087 87.5547 10.8387 86.2447 10.8387H82.2047V9.03875H86.1847C87.0847 9.03875 87.8047 8.88875 88.3547 8.57875C88.9047 8.26875 89.2947 7.84875 89.5447 7.31875C89.7947 6.78875 89.9147 6.17875 89.9147 5.51875C89.9147 4.84875 89.7947 4.24875 89.5447 3.71875C89.2947 3.18875 88.8947 2.77875 88.3447 2.46875C87.7947 2.16875 87.0647 2.00875 86.1647 2.00875H82.5947V16.9488H80.5547V16.9587Z" fill="#4229FF"/>
<path d="M99.3833 17.25C98.1833 17.25 97.1533 17.06 96.2733 16.67C95.3933 16.28 94.7133 15.75 94.2133 15.05C93.7133 14.36 93.4333 13.55 93.3633 12.64H95.4533C95.5133 13.27 95.7333 13.79 96.1033 14.2C96.4733 14.61 96.9433 14.92 97.5233 15.12C98.1033 15.32 98.7233 15.42 99.3833 15.42C100.153 15.42 100.853 15.29 101.463 15.04C102.083 14.79 102.573 14.43 102.933 13.97C103.293 13.51 103.473 12.98 103.473 12.36C103.473 11.81 103.313 11.36 103.003 11.01C102.693 10.66 102.283 10.39 101.773 10.17C101.263 9.95 100.723 9.76 100.123 9.6L98.0833 9.02C96.7733 8.65 95.7333 8.11 94.9733 7.41C94.2133 6.71 93.8333 5.79 93.8333 4.66C93.8333 3.72 94.0833 2.91 94.5933 2.21C95.1033 1.51 95.7833 0.97 96.6533 0.58C97.5133 0.19 98.4733 0 99.5333 0C100.613 0 101.573 0.19 102.413 0.58C103.253 0.97 103.913 1.49 104.413 2.15C104.903 2.81 105.173 3.56 105.203 4.4H103.223C103.123 3.58 102.733 2.94 102.043 2.48C101.353 2.02 100.493 1.8 99.4733 1.8C98.7433 1.8 98.0933 1.92 97.5433 2.16C96.9933 2.4 96.5633 2.73 96.2533 3.15C95.9433 3.57 95.7933 4.05 95.7933 4.59C95.7933 5.18 95.9733 5.66 96.3433 6.02C96.7133 6.38 97.1433 6.67 97.6533 6.87C98.1633 7.07 98.6133 7.23 99.0333 7.35L100.713 7.82C101.143 7.94 101.633 8.1 102.163 8.3C102.703 8.5 103.213 8.77 103.713 9.12C104.213 9.46 104.623 9.9 104.943 10.44C105.263 10.98 105.423 11.64 105.423 12.42C105.423 13.32 105.183 14.13 104.713 14.86C104.243 15.59 103.553 16.17 102.653 16.6C101.753 17.03 100.663 17.25 99.3833 17.25Z" fill="#4229FF"/>
<path d="M107.086 20.9272L108.076 14.6172H110.296L108.566 20.9272H107.086Z" fill="#4229FF"/>
<path d="M124.133 17.25C122.933 17.25 121.903 17.06 121.023 16.67C120.143 16.28 119.463 15.75 118.963 15.05C118.463 14.36 118.183 13.55 118.113 12.64H120.203C120.263 13.27 120.483 13.79 120.853 14.2C121.223 14.61 121.693 14.92 122.273 15.12C122.853 15.32 123.473 15.42 124.133 15.42C124.903 15.42 125.603 15.29 126.213 15.04C126.833 14.79 127.323 14.43 127.683 13.97C128.043 13.51 128.223 12.98 128.223 12.36C128.223 11.81 128.063 11.36 127.753 11.01C127.443 10.66 127.023 10.4 126.523 10.19C126.013 9.97 125.473 9.78 124.873 9.62L122.833 9.04C121.523 8.67 120.483 8.13 119.723 7.43C118.963 6.73 118.583 5.81 118.583 4.68C118.583 3.74 118.833 2.93 119.343 2.23C119.853 1.53 120.533 0.99 121.403 0.6C122.263 0.19 123.223 0 124.293 0C125.373 0 126.333 0.19 127.173 0.58C128.013 0.97 128.673 1.49 129.173 2.15C129.663 2.81 129.933 3.56 129.963 4.4H127.983C127.883 3.58 127.493 2.94 126.803 2.48C126.093 2.03 125.243 1.8 124.223 1.8C123.493 1.8 122.843 1.92 122.293 2.16C121.743 2.4 121.313 2.73 121.003 3.15C120.693 3.57 120.543 4.05 120.543 4.59C120.543 5.18 120.723 5.66 121.093 6.02C121.463 6.38 121.893 6.67 122.403 6.87C122.913 7.07 123.363 7.23 123.783 7.35L125.463 7.82C125.893 7.94 126.383 8.1 126.913 8.3C127.453 8.5 127.963 8.77 128.463 9.12C128.963 9.46 129.373 9.9 129.693 10.44C130.013 10.98 130.173 11.64 130.173 12.42C130.173 13.32 129.933 14.13 129.463 14.86C128.993 15.59 128.303 16.17 127.403 16.6C126.503 17.03 125.423 17.25 124.133 17.25Z" fill="#4229FF"/>
<path d="M139.173 17.18C137.753 17.18 136.483 16.83 135.363 16.14C134.243 15.44 133.373 14.45 132.733 13.17C132.093 11.89 131.773 10.36 131.773 8.6C131.773 6.83 132.093 5.31 132.733 4.02C133.373 2.73 134.253 1.74 135.363 1.04C136.473 0.35 137.743 0 139.173 0C140.603 0 141.873 0.35 142.983 1.04C144.093 1.74 144.963 2.73 145.603 4.02C146.243 5.31 146.553 6.84 146.553 8.6C146.553 10.36 146.233 11.88 145.603 13.17C144.973 14.46 144.093 15.44 142.983 16.14C141.873 16.83 140.603 17.18 139.173 17.18ZM139.173 15.3C140.183 15.3 141.103 15.04 141.923 14.53C142.743 14.02 143.393 13.26 143.873 12.27C144.353 11.27 144.593 10.05 144.593 8.61C144.593 7.16 144.353 5.93 143.873 4.93C143.393 3.93 142.743 3.17 141.923 2.66C141.103 2.15 140.193 1.89 139.173 1.89C138.153 1.89 137.243 2.15 136.423 2.66C135.603 3.17 134.943 3.93 134.453 4.93C133.963 5.93 133.723 7.16 133.723 8.61C133.723 10.06 133.963 11.28 134.453 12.27C134.943 13.26 135.593 14.02 136.423 14.53C137.253 15.04 138.163 15.3 139.173 15.3Z" fill="#4229FF"/>
<path d="M148.864 0.21875H151.294L156.974 14.0988H157.174L162.854 0.21875H165.354V16.9488H163.364V4.24875H163.204L157.934 16.9587H156.114L150.914 4.24875H150.754V16.9587H148.844V0.21875H148.864Z" fill="#4229FF"/>
<path d="M168.324 16.9587V0.21875H178.434V2.01875H170.344V7.60875H177.894V9.40875H170.344V15.1587H178.544V16.9587H168.324Z" fill="#4229FF"/>
<path d="M180.074 2.01875V0.21875H192.634V2.01875H187.374V16.9587H185.354V2.01875H180.074Z" fill="#4229FF"/>
<path d="M194.672 16.9587V0.21875H196.692V7.67875H205.612V0.21875H207.632V16.9488H205.612V9.47875H196.692V16.9587H194.672Z" fill="#4229FF"/>
<path d="M212.614 0.21875V16.9488H210.594V0.21875H212.614Z" fill="#4229FF"/>
<path d="M228.886 0.21875V16.9488H226.886L217.786 3.80875H217.606V16.9488H215.586V0.21875H217.536L226.696 13.3787H226.856V0.21875H228.886Z" fill="#4229FF"/>
<path d="M238.655 17.18C237.175 17.18 235.875 16.83 234.755 16.14C233.635 15.44 232.765 14.45 232.135 13.17C231.505 11.89 231.195 10.36 231.195 8.6C231.195 6.83 231.505 5.31 232.135 4.02C232.765 2.73 233.625 1.74 234.725 1.04C235.825 0.34 237.095 0 238.525 0C239.405 0 240.235 0.13 240.995 0.39C241.755 0.65 242.445 1.03 243.035 1.51C243.635 2 244.135 2.57 244.535 3.24C244.935 3.91 245.215 4.64 245.375 5.45H243.285C243.105 4.9 242.875 4.4 242.585 3.96C242.295 3.52 241.955 3.15 241.545 2.84C241.135 2.53 240.685 2.29 240.185 2.13C239.685 1.97 239.125 1.88 238.525 1.88C237.535 1.88 236.635 2.14 235.825 2.65C235.015 3.16 234.365 3.92 233.885 4.92C233.405 5.92 233.165 7.15 233.165 8.6C233.165 10.05 233.405 11.27 233.895 12.26C234.385 13.26 235.035 14.01 235.875 14.52C236.705 15.03 237.635 15.29 238.675 15.29C239.635 15.29 240.475 15.08 241.205 14.67C241.935 14.26 242.505 13.68 242.915 12.92C243.325 12.17 243.535 11.28 243.535 10.25L244.165 10.38H239.135V8.6H245.515V10.4C245.515 11.78 245.225 12.97 244.635 13.99C244.045 15.01 243.245 15.79 242.215 16.35C241.185 16.91 239.975 17.18 238.655 17.18Z" fill="#4229FF"/>
<path d="M260.054 17.18C258.574 17.18 257.274 16.83 256.154 16.14C255.034 15.44 254.164 14.45 253.534 13.17C252.904 11.89 252.594 10.36 252.594 8.6C252.594 6.83 252.904 5.31 253.534 4.02C254.164 2.73 255.024 1.74 256.124 1.04C257.224 0.34 258.494 0 259.924 0C260.804 0 261.634 0.13 262.394 0.39C263.154 0.65 263.844 1.03 264.434 1.51C265.034 2 265.534 2.57 265.934 3.24C266.334 3.91 266.614 4.64 266.774 5.45H264.684C264.504 4.9 264.274 4.4 263.984 3.96C263.694 3.52 263.354 3.15 262.944 2.84C262.534 2.53 262.084 2.29 261.584 2.13C261.084 1.97 260.524 1.88 259.924 1.88C258.934 1.88 258.034 2.14 257.224 2.65C256.414 3.16 255.764 3.92 255.284 4.92C254.804 5.92 254.564 7.15 254.564 8.6C254.564 10.05 254.804 11.27 255.294 12.26C255.784 13.26 256.434 14.01 257.274 14.52C258.104 15.03 259.034 15.29 260.074 15.29C261.034 15.29 261.874 15.08 262.604 14.67C263.334 14.26 263.904 13.68 264.314 12.92C264.724 12.17 264.934 11.28 264.934 10.25L265.564 10.38H260.534V8.6H266.914V10.4C266.914 11.78 266.624 12.97 266.034 13.99C265.444 15.01 264.644 15.79 263.614 16.35C262.584 16.91 261.384 17.18 260.054 17.18Z" fill="#4229FF"/>
<path d="M276.013 17.18C274.593 17.18 273.323 16.83 272.203 16.14C271.083 15.44 270.213 14.45 269.573 13.17C268.933 11.89 268.613 10.36 268.613 8.6C268.613 6.83 268.933 5.31 269.573 4.02C270.213 2.73 271.093 1.74 272.203 1.04C273.323 0.34 274.583 0 276.013 0C277.443 0 278.713 0.35 279.823 1.04C280.933 1.74 281.803 2.73 282.443 4.02C283.083 5.31 283.393 6.84 283.393 8.6C283.393 10.36 283.073 11.88 282.443 13.17C281.803 14.45 280.933 15.44 279.823 16.14C278.713 16.83 277.443 17.18 276.013 17.18ZM276.013 15.3C277.023 15.3 277.943 15.04 278.763 14.53C279.583 14.02 280.233 13.26 280.713 12.27C281.193 11.27 281.433 10.05 281.433 8.61C281.433 7.16 281.193 5.93 280.713 4.93C280.233 3.93 279.583 3.17 278.763 2.66C277.943 2.15 277.023 1.89 276.013 1.89C275.003 1.89 274.083 2.15 273.263 2.66C272.443 3.17 271.783 3.93 271.303 4.93C270.813 5.93 270.573 7.16 270.573 8.61C270.573 10.06 270.813 11.28 271.303 12.27C271.793 13.27 272.443 14.02 273.263 14.53C274.083 15.04 275.003 15.3 276.013 15.3Z" fill="#4229FF"/>
<path d="M294.201 16.9566L289.641 0.226562H291.691L295.191 13.8566H295.351L298.921 0.226562H301.211L304.761 13.8566H304.941L308.421 0.226562H310.491L305.911 16.9566H303.821L300.141 3.63656H300.011L296.331 16.9566H294.201Z" fill="#4229FF"/>
<path d="M312.004 16.9587V0.21875H317.664C318.974 0.21875 320.044 0.43875 320.884 0.88875C321.724 1.33875 322.334 1.94875 322.744 2.71875C323.144 3.48875 323.354 4.37875 323.354 5.35875C323.354 6.33875 323.154 7.20875 322.754 7.97875C322.354 8.74875 321.734 9.33875 320.904 9.76875C320.074 10.1988 319.004 10.4187 317.694 10.4187H313.134V8.59875H317.624C318.524 8.59875 319.244 8.46875 319.794 8.20875C320.344 7.94875 320.734 7.57875 320.984 7.08875C321.234 6.60875 321.354 6.02875 321.354 5.36875C321.354 4.69875 321.234 4.10875 320.974 3.60875C320.724 3.10875 320.324 2.71875 319.774 2.43875C319.224 2.15875 318.504 2.01875 317.594 2.01875H314.024V16.9587H312.004ZM321.644 16.9587L317.604 9.43875H319.894L324.004 16.9587H321.644Z" fill="#4229FF"/>
<path d="M332.392 17.18C330.972 17.18 329.702 16.83 328.582 16.14C327.462 15.44 326.592 14.45 325.952 13.17C325.312 11.89 324.992 10.36 324.992 8.6C324.992 6.83 325.312 5.31 325.952 4.02C326.592 2.73 327.472 1.74 328.582 1.04C329.702 0.34 330.962 0 332.392 0C333.822 0 335.092 0.35 336.202 1.04C337.312 1.74 338.182 2.73 338.822 4.02C339.462 5.31 339.772 6.84 339.772 8.6C339.772 10.36 339.452 11.88 338.822 13.17C338.182 14.45 337.312 15.44 336.202 16.14C335.092 16.83 333.822 17.18 332.392 17.18ZM332.392 15.3C333.402 15.3 334.322 15.04 335.142 14.53C335.962 14.02 336.612 13.26 337.092 12.27C337.572 11.27 337.812 10.05 337.812 8.61C337.812 7.16 337.572 5.93 337.092 4.93C336.612 3.93 335.962 3.17 335.142 2.66C334.322 2.15 333.402 1.89 332.392 1.89C331.382 1.89 330.462 2.15 329.642 2.66C328.822 3.17 328.162 3.93 327.682 4.93C327.192 5.93 326.952 7.16 326.952 8.61C326.952 10.06 327.192 11.28 327.682 12.27C328.172 13.27 328.822 14.02 329.642 14.53C330.462 15.04 331.382 15.3 332.392 15.3Z" fill="#4229FF"/>
<path d="M355.386 0.21875V16.9488H353.386L344.286 3.80875H344.106V16.9488H342.086V0.21875H344.036L353.196 13.3787H353.356V0.21875H355.386Z" fill="#4229FF"/>
<path d="M365.155 17.18C363.675 17.18 362.375 16.83 361.255 16.14C360.135 15.44 359.265 14.45 358.635 13.17C358.005 11.89 357.695 10.36 357.695 8.6C357.695 6.83 358.005 5.31 358.635 4.02C359.265 2.73 360.125 1.74 361.225 1.04C362.325 0.34 363.595 0 365.025 0C365.905 0 366.735 0.13 367.495 0.39C368.255 0.65 368.945 1.03 369.535 1.51C370.135 2 370.635 2.57 371.035 3.24C371.435 3.91 371.715 4.64 371.875 5.45H369.785C369.605 4.9 369.375 4.4 369.085 3.96C368.795 3.52 368.455 3.15 368.045 2.84C367.635 2.53 367.185 2.29 366.685 2.13C366.185 1.97 365.625 1.88 365.025 1.88C364.035 1.88 363.135 2.14 362.325 2.65C361.515 3.16 360.865 3.92 360.385 4.92C359.905 5.92 359.665 7.15 359.665 8.6C359.665 10.05 359.905 11.27 360.395 12.26C360.885 13.26 361.535 14.01 362.375 14.52C363.205 15.03 364.135 15.29 365.175 15.29C366.135 15.29 366.975 15.08 367.705 14.67C368.435 14.26 369.005 13.68 369.415 12.92C369.825 12.17 370.035 11.28 370.035 10.25L370.665 10.38H365.635V8.6H372.015V10.4C372.015 11.78 371.725 12.97 371.135 13.99C370.545 15.01 369.745 15.79 368.715 16.35C367.685 16.91 366.475 17.18 365.155 17.18Z" fill="#4229FF"/>
<path d="M56.4234 17.18C55.0034 17.18 53.7334 16.83 52.6134 16.14C51.4934 15.44 50.6234 14.45 49.9834 13.17C49.3434 11.88 49.0234 10.36 49.0234 8.6C49.0234 6.83 49.3434 5.31 49.9834 4.02C50.6234 2.73 51.5034 1.74 52.6134 1.04C53.7334 0.35 55.0034 0 56.4234 0C57.8534 0 59.1234 0.35 60.2334 1.04C61.3434 1.74 62.2134 2.73 62.8534 4.02C63.4934 5.31 63.8034 6.84 63.8034 8.6C63.8034 10.36 63.4834 11.88 62.8534 13.17C62.2234 14.46 61.3434 15.44 60.2334 16.14C59.1234 16.83 57.8534 17.18 56.4234 17.18ZM56.4234 15.3C57.4334 15.3 58.3534 15.04 59.1734 14.53C59.9934 14.02 60.6434 13.26 61.1234 12.27C61.6034 11.27 61.8434 10.05 61.8434 8.61C61.8434 7.16 61.6034 5.93 61.1234 4.93C60.6434 3.93 59.9934 3.17 59.1734 2.66C58.3534 2.15 57.4434 1.89 56.4234 1.89C55.4034 1.89 54.4934 2.14 53.6734 2.66C52.8534 3.18 52.1934 3.92 51.7034 4.92C51.2134 5.92 50.9734 7.15 50.9734 8.6C50.9734 10.05 51.2134 11.27 51.7034 12.26C52.1934 13.25 52.8434 14.01 53.6734 14.52C54.5034 15.03 55.4134 15.3 56.4234 15.3Z" fill="#4229FF"/>
<path d="M72.8609 17.18C71.4409 17.18 70.1709 16.83 69.0509 16.14C67.9309 15.44 67.0609 14.45 66.4209 13.17C65.7809 11.89 65.4609 10.36 65.4609 8.6C65.4609 6.83 65.7809 5.31 66.4209 4.02C67.0609 2.73 67.9409 1.74 69.0509 1.04C70.1709 0.35 71.4409 0 72.8609 0C74.2909 0 75.5609 0.35 76.6709 1.04C77.7809 1.74 78.6509 2.73 79.2909 4.02C79.9309 5.31 80.2409 6.84 80.2409 8.6C80.2409 10.36 79.9209 11.88 79.2909 13.17C78.6609 14.46 77.7809 15.44 76.6709 16.14C75.5609 16.83 74.2909 17.18 72.8609 17.18ZM72.8609 15.3C73.8709 15.3 74.7909 15.04 75.6109 14.53C76.4309 14.02 77.0809 13.26 77.5609 12.27C78.0409 11.27 78.2809 10.05 78.2809 8.61C78.2809 7.16 78.0409 5.93 77.5609 4.93C77.0809 3.93 76.4309 3.17 75.6109 2.66C74.7909 2.15 73.8809 1.89 72.8609 1.89C71.8409 1.89 70.9309 2.15 70.1109 2.66C69.2909 3.17 68.6309 3.93 68.1409 4.93C67.6509 5.93 67.4109 7.16 67.4109 8.61C67.4109 10.06 67.6509 11.28 68.1409 12.27C68.6309 13.26 69.2809 14.02 70.1109 14.53C70.9409 15.04 71.8509 15.3 72.8609 15.3Z" fill="#4229FF"/>
<path d="M82.5547 16.9587V0.21875H88.2147C89.5247 0.21875 90.5947 0.45875 91.4347 0.92875C92.2647 1.39875 92.8847 2.03875 93.2947 2.83875C93.6947 3.63875 93.9047 4.53875 93.9047 5.51875C93.9047 6.49875 93.7047 7.39875 93.3047 8.19875C92.9047 9.00875 92.2847 9.64875 91.4547 10.1287C90.6247 10.6087 89.5547 10.8387 88.2447 10.8387H84.2047V9.03875H88.1847C89.0847 9.03875 89.8047 8.88875 90.3547 8.57875C90.9047 8.26875 91.2947 7.84875 91.5447 7.31875C91.7947 6.78875 91.9147 6.17875 91.9147 5.51875C91.9147 4.84875 91.7947 4.24875 91.5447 3.71875C91.2947 3.18875 90.8947 2.77875 90.3447 2.46875C89.7947 2.16875 89.0647 2.00875 88.1647 2.00875H84.5947V16.9488H82.5547V16.9587Z" fill="#4229FF"/>
<path d="M101.383 17.25C100.183 17.25 99.1533 17.06 98.2733 16.67C97.3933 16.28 96.7133 15.75 96.2133 15.05C95.7133 14.36 95.4333 13.55 95.3633 12.64H97.4533C97.5133 13.27 97.7333 13.79 98.1033 14.2C98.4733 14.61 98.9433 14.92 99.5233 15.12C100.103 15.32 100.723 15.42 101.383 15.42C102.153 15.42 102.853 15.29 103.463 15.04C104.083 14.79 104.573 14.43 104.933 13.97C105.293 13.51 105.473 12.98 105.473 12.36C105.473 11.81 105.313 11.36 105.003 11.01C104.693 10.66 104.283 10.39 103.773 10.17C103.263 9.95 102.723 9.76 102.123 9.6L100.083 9.02C98.7733 8.65 97.7333 8.11 96.9733 7.41C96.2133 6.71 95.8333 5.79 95.8333 4.66C95.8333 3.72 96.0833 2.91 96.5933 2.21C97.1033 1.51 97.7833 0.97 98.6533 0.58C99.5133 0.19 100.473 0 101.533 0C102.613 0 103.573 0.19 104.413 0.58C105.253 0.97 105.913 1.49 106.413 2.15C106.903 2.81 107.173 3.56 107.203 4.4H105.223C105.123 3.58 104.733 2.94 104.043 2.48C103.353 2.02 102.493 1.8 101.473 1.8C100.743 1.8 100.093 1.92 99.5433 2.16C98.9933 2.4 98.5633 2.73 98.2533 3.15C97.9433 3.57 97.7933 4.05 97.7933 4.59C97.7933 5.18 97.9733 5.66 98.3433 6.02C98.7133 6.38 99.1433 6.67 99.6533 6.87C100.163 7.07 100.613 7.23 101.033 7.35L102.713 7.82C103.143 7.94 103.633 8.1 104.163 8.3C104.703 8.5 105.213 8.77 105.713 9.12C106.213 9.46 106.623 9.9 106.943 10.44C107.263 10.98 107.423 11.64 107.423 12.42C107.423 13.32 107.183 14.13 106.713 14.86C106.243 15.59 105.553 16.17 104.653 16.6C103.753 17.03 102.663 17.25 101.383 17.25Z" fill="#4229FF"/>
<path d="M109.086 20.9272L110.076 14.6172H112.296L110.566 20.9272H109.086Z" fill="#4229FF"/>
<path d="M126.133 17.25C124.933 17.25 123.903 17.06 123.023 16.67C122.143 16.28 121.463 15.75 120.963 15.05C120.463 14.36 120.183 13.55 120.113 12.64H122.203C122.263 13.27 122.483 13.79 122.853 14.2C123.223 14.61 123.693 14.92 124.273 15.12C124.853 15.32 125.473 15.42 126.133 15.42C126.903 15.42 127.603 15.29 128.213 15.04C128.833 14.79 129.323 14.43 129.683 13.97C130.043 13.51 130.223 12.98 130.223 12.36C130.223 11.81 130.063 11.36 129.753 11.01C129.443 10.66 129.023 10.4 128.523 10.19C128.013 9.97 127.473 9.78 126.873 9.62L124.833 9.04C123.523 8.67 122.483 8.13 121.723 7.43C120.963 6.73 120.583 5.81 120.583 4.68C120.583 3.74 120.833 2.93 121.343 2.23C121.853 1.53 122.533 0.99 123.403 0.6C124.263 0.19 125.223 0 126.293 0C127.373 0 128.333 0.19 129.173 0.58C130.013 0.97 130.673 1.49 131.173 2.15C131.663 2.81 131.933 3.56 131.963 4.4H129.983C129.883 3.58 129.493 2.94 128.803 2.48C128.093 2.03 127.243 1.8 126.223 1.8C125.493 1.8 124.843 1.92 124.293 2.16C123.743 2.4 123.313 2.73 123.003 3.15C122.693 3.57 122.543 4.05 122.543 4.59C122.543 5.18 122.723 5.66 123.093 6.02C123.463 6.38 123.893 6.67 124.403 6.87C124.913 7.07 125.363 7.23 125.783 7.35L127.463 7.82C127.893 7.94 128.383 8.1 128.913 8.3C129.453 8.5 129.963 8.77 130.463 9.12C130.963 9.46 131.373 9.9 131.693 10.44C132.013 10.98 132.173 11.64 132.173 12.42C132.173 13.32 131.933 14.13 131.463 14.86C130.993 15.59 130.303 16.17 129.403 16.6C128.503 17.03 127.423 17.25 126.133 17.25Z" fill="#4229FF"/>
<path d="M141.173 17.18C139.753 17.18 138.483 16.83 137.363 16.14C136.243 15.44 135.373 14.45 134.733 13.17C134.093 11.89 133.773 10.36 133.773 8.6C133.773 6.83 134.093 5.31 134.733 4.02C135.373 2.73 136.253 1.74 137.363 1.04C138.473 0.35 139.743 0 141.173 0C142.603 0 143.873 0.35 144.983 1.04C146.093 1.74 146.963 2.73 147.603 4.02C148.243 5.31 148.553 6.84 148.553 8.6C148.553 10.36 148.233 11.88 147.603 13.17C146.973 14.46 146.093 15.44 144.983 16.14C143.873 16.83 142.603 17.18 141.173 17.18ZM141.173 15.3C142.183 15.3 143.103 15.04 143.923 14.53C144.743 14.02 145.393 13.26 145.873 12.27C146.353 11.27 146.593 10.05 146.593 8.61C146.593 7.16 146.353 5.93 145.873 4.93C145.393 3.93 144.743 3.17 143.923 2.66C143.103 2.15 142.193 1.89 141.173 1.89C140.153 1.89 139.243 2.15 138.423 2.66C137.603 3.17 136.943 3.93 136.453 4.93C135.963 5.93 135.723 7.16 135.723 8.61C135.723 10.06 135.963 11.28 136.453 12.27C136.943 13.26 137.593 14.02 138.423 14.53C139.253 15.04 140.163 15.3 141.173 15.3Z" fill="#4229FF"/>
<path d="M150.864 0.21875H153.294L158.974 14.0988H159.174L164.854 0.21875H167.354V16.9488H165.364V4.24875H165.204L159.934 16.9587H158.114L152.914 4.24875H152.754V16.9587H150.844V0.21875H150.864Z" fill="#4229FF"/>
<path d="M170.324 16.9587V0.21875H180.434V2.01875H172.344V7.60875H179.894V9.40875H172.344V15.1587H180.544V16.9587H170.324Z" fill="#4229FF"/>
<path d="M182.074 2.01875V0.21875H194.634V2.01875H189.374V16.9587H187.354V2.01875H182.074Z" fill="#4229FF"/>
<path d="M196.672 16.9587V0.21875H198.692V7.67875H207.612V0.21875H209.632V16.9488H207.612V9.47875H198.692V16.9587H196.672Z" fill="#4229FF"/>
<path d="M214.614 0.21875V16.9488H212.594V0.21875H214.614Z" fill="#4229FF"/>
<path d="M230.886 0.21875V16.9488H228.886L219.786 3.80875H219.606V16.9488H217.586V0.21875H219.536L228.696 13.3787H228.856V0.21875H230.886Z" fill="#4229FF"/>
<path d="M240.655 17.18C239.175 17.18 237.875 16.83 236.755 16.14C235.635 15.44 234.765 14.45 234.135 13.17C233.505 11.89 233.195 10.36 233.195 8.6C233.195 6.83 233.505 5.31 234.135 4.02C234.765 2.73 235.625 1.74 236.725 1.04C237.825 0.34 239.095 0 240.525 0C241.405 0 242.235 0.13 242.995 0.39C243.755 0.65 244.445 1.03 245.035 1.51C245.635 2 246.135 2.57 246.535 3.24C246.935 3.91 247.215 4.64 247.375 5.45H245.285C245.105 4.9 244.875 4.4 244.585 3.96C244.295 3.52 243.955 3.15 243.545 2.84C243.135 2.53 242.685 2.29 242.185 2.13C241.685 1.97 241.125 1.88 240.525 1.88C239.535 1.88 238.635 2.14 237.825 2.65C237.015 3.16 236.365 3.92 235.885 4.92C235.405 5.92 235.165 7.15 235.165 8.6C235.165 10.05 235.405 11.27 235.895 12.26C236.385 13.26 237.035 14.01 237.875 14.52C238.705 15.03 239.635 15.29 240.675 15.29C241.635 15.29 242.475 15.08 243.205 14.67C243.935 14.26 244.505 13.68 244.915 12.92C245.325 12.17 245.535 11.28 245.535 10.25L246.165 10.38H241.135V8.6H247.515V10.4C247.515 11.78 247.225 12.97 246.635 13.99C246.045 15.01 245.245 15.79 244.215 16.35C243.185 16.91 241.975 17.18 240.655 17.18Z" fill="#4229FF"/>
<path d="M262.054 17.18C260.574 17.18 259.274 16.83 258.154 16.14C257.034 15.44 256.164 14.45 255.534 13.17C254.904 11.89 254.594 10.36 254.594 8.6C254.594 6.83 254.904 5.31 255.534 4.02C256.164 2.73 257.024 1.74 258.124 1.04C259.224 0.34 260.494 0 261.924 0C262.804 0 263.634 0.13 264.394 0.39C265.154 0.65 265.844 1.03 266.434 1.51C267.034 2 267.534 2.57 267.934 3.24C268.334 3.91 268.614 4.64 268.774 5.45H266.684C266.504 4.9 266.274 4.4 265.984 3.96C265.694 3.52 265.354 3.15 264.944 2.84C264.534 2.53 264.084 2.29 263.584 2.13C263.084 1.97 262.524 1.88 261.924 1.88C260.934 1.88 260.034 2.14 259.224 2.65C258.414 3.16 257.764 3.92 257.284 4.92C256.804 5.92 256.564 7.15 256.564 8.6C256.564 10.05 256.804 11.27 257.294 12.26C257.784 13.26 258.434 14.01 259.274 14.52C260.104 15.03 261.034 15.29 262.074 15.29C263.034 15.29 263.874 15.08 264.604 14.67C265.334 14.26 265.904 13.68 266.314 12.92C266.724 12.17 266.934 11.28 266.934 10.25L267.564 10.38H262.534V8.6H268.914V10.4C268.914 11.78 268.624 12.97 268.034 13.99C267.444 15.01 266.644 15.79 265.614 16.35C264.584 16.91 263.384 17.18 262.054 17.18Z" fill="#4229FF"/>
<path d="M278.013 17.18C276.593 17.18 275.323 16.83 274.203 16.14C273.083 15.44 272.213 14.45 271.573 13.17C270.933 11.89 270.613 10.36 270.613 8.6C270.613 6.83 270.933 5.31 271.573 4.02C272.213 2.73 273.093 1.74 274.203 1.04C275.323 0.34 276.583 0 278.013 0C279.443 0 280.713 0.35 281.823 1.04C282.933 1.74 283.803 2.73 284.443 4.02C285.083 5.31 285.393 6.84 285.393 8.6C285.393 10.36 285.073 11.88 284.443 13.17C283.803 14.45 282.933 15.44 281.823 16.14C280.713 16.83 279.443 17.18 278.013 17.18ZM278.013 15.3C279.023 15.3 279.943 15.04 280.763 14.53C281.583 14.02 282.233 13.26 282.713 12.27C283.193 11.27 283.433 10.05 283.433 8.61C283.433 7.16 283.193 5.93 282.713 4.93C282.233 3.93 281.583 3.17 280.763 2.66C279.943 2.15 279.023 1.89 278.013 1.89C277.003 1.89 276.083 2.15 275.263 2.66C274.443 3.17 273.783 3.93 273.303 4.93C272.813 5.93 272.573 7.16 272.573 8.61C272.573 10.06 272.813 11.28 273.303 12.27C273.793 13.27 274.443 14.02 275.263 14.53C276.083 15.04 277.003 15.3 278.013 15.3Z" fill="#4229FF"/>
<path d="M296.201 16.9566L291.641 0.226562H293.691L297.191 13.8566H297.351L300.921 0.226562H303.211L306.761 13.8566H306.941L310.421 0.226562H312.491L307.911 16.9566H305.821L302.141 3.63656H302.011L298.331 16.9566H296.201Z" fill="#4229FF"/>
<path d="M314.004 16.9587V0.21875H319.664C320.974 0.21875 322.044 0.43875 322.884 0.88875C323.724 1.33875 324.334 1.94875 324.744 2.71875C325.144 3.48875 325.354 4.37875 325.354 5.35875C325.354 6.33875 325.154 7.20875 324.754 7.97875C324.354 8.74875 323.734 9.33875 322.904 9.76875C322.074 10.1988 321.004 10.4187 319.694 10.4187H315.134V8.59875H319.624C320.524 8.59875 321.244 8.46875 321.794 8.20875C322.344 7.94875 322.734 7.57875 322.984 7.08875C323.234 6.60875 323.354 6.02875 323.354 5.36875C323.354 4.69875 323.234 4.10875 322.974 3.60875C322.724 3.10875 322.324 2.71875 321.774 2.43875C321.224 2.15875 320.504 2.01875 319.594 2.01875H316.024V16.9587H314.004ZM323.644 16.9587L319.604 9.43875H321.894L326.004 16.9587H323.644Z" fill="#4229FF"/>
<path d="M334.392 17.18C332.972 17.18 331.702 16.83 330.582 16.14C329.462 15.44 328.592 14.45 327.952 13.17C327.312 11.89 326.992 10.36 326.992 8.6C326.992 6.83 327.312 5.31 327.952 4.02C328.592 2.73 329.472 1.74 330.582 1.04C331.702 0.34 332.962 0 334.392 0C335.822 0 337.092 0.35 338.202 1.04C339.312 1.74 340.182 2.73 340.822 4.02C341.462 5.31 341.772 6.84 341.772 8.6C341.772 10.36 341.452 11.88 340.822 13.17C340.182 14.45 339.312 15.44 338.202 16.14C337.092 16.83 335.822 17.18 334.392 17.18ZM334.392 15.3C335.402 15.3 336.322 15.04 337.142 14.53C337.962 14.02 338.612 13.26 339.092 12.27C339.572 11.27 339.812 10.05 339.812 8.61C339.812 7.16 339.572 5.93 339.092 4.93C338.612 3.93 337.962 3.17 337.142 2.66C336.322 2.15 335.402 1.89 334.392 1.89C333.382 1.89 332.462 2.15 331.642 2.66C330.822 3.17 330.162 3.93 329.682 4.93C329.192 5.93 328.952 7.16 328.952 8.61C328.952 10.06 329.192 11.28 329.682 12.27C330.172 13.27 330.822 14.02 331.642 14.53C332.462 15.04 333.382 15.3 334.392 15.3Z" fill="#4229FF"/>
<path d="M357.386 0.21875V16.9488H355.386L346.286 3.80875H346.106V16.9488H344.086V0.21875H346.036L355.196 13.3787H355.356V0.21875H357.386Z" fill="#4229FF"/>
<path d="M367.155 17.18C365.675 17.18 364.375 16.83 363.255 16.14C362.135 15.44 361.265 14.45 360.635 13.17C360.005 11.89 359.695 10.36 359.695 8.6C359.695 6.83 360.005 5.31 360.635 4.02C361.265 2.73 362.125 1.74 363.225 1.04C364.325 0.34 365.595 0 367.025 0C367.905 0 368.735 0.13 369.495 0.39C370.255 0.65 370.945 1.03 371.535 1.51C372.135 2 372.635 2.57 373.035 3.24C373.435 3.91 373.715 4.64 373.875 5.45H371.785C371.605 4.9 371.375 4.4 371.085 3.96C370.795 3.52 370.455 3.15 370.045 2.84C369.635 2.53 369.185 2.29 368.685 2.13C368.185 1.97 367.625 1.88 367.025 1.88C366.035 1.88 365.135 2.14 364.325 2.65C363.515 3.16 362.865 3.92 362.385 4.92C361.905 5.92 361.665 7.15 361.665 8.6C361.665 10.05 361.905 11.27 362.395 12.26C362.885 13.26 363.535 14.01 364.375 14.52C365.205 15.03 366.135 15.29 367.175 15.29C368.135 15.29 368.975 15.08 369.705 14.67C370.435 14.26 371.005 13.68 371.415 12.92C371.825 12.17 372.035 11.28 372.035 10.25L372.665 10.38H367.635V8.6H374.015V10.4C374.015 11.78 373.725 12.97 373.135 13.99C372.545 15.01 371.745 15.79 370.715 16.35C369.685 16.91 368.475 17.18 367.155 17.18Z" fill="#4229FF"/>
<path d="M52.4234 17.18C51.0034 17.18 49.7334 16.83 48.6134 16.14C47.4934 15.44 46.6234 14.45 45.9834 13.17C45.3434 11.88 45.0234 10.36 45.0234 8.6C45.0234 6.83 45.3434 5.31 45.9834 4.02C46.6234 2.73 47.5034 1.74 48.6134 1.04C49.7334 0.35 51.0034 0 52.4234 0C53.8534 0 55.1234 0.35 56.2334 1.04C57.3434 1.74 58.2134 2.73 58.8534 4.02C59.4934 5.31 59.8034 6.84 59.8034 8.6C59.8034 10.36 59.4834 11.88 58.8534 13.17C58.2234 14.46 57.3434 15.44 56.2334 16.14C55.1234 16.83 53.8534 17.18 52.4234 17.18ZM52.4234 15.3C53.4334 15.3 54.3534 15.04 55.1734 14.53C55.9934 14.02 56.6434 13.26 57.1234 12.27C57.6034 11.27 57.8434 10.05 57.8434 8.61C57.8434 7.16 57.6034 5.93 57.1234 4.93C56.6434 3.93 55.9934 3.17 55.1734 2.66C54.3534 2.14 53.4334 1.89 52.4234 1.89C51.4134 1.89 50.4934 2.14 49.6734 2.66C48.8534 3.18 48.1934 3.92 47.7034 4.92C47.2134 5.92 46.9734 7.15 46.9734 8.6C46.9734 10.05 47.2134 11.27 47.7034 12.26C48.1934 13.25 48.8434 14.01 49.6734 14.52C50.5034 15.03 51.4134 15.3 52.4234 15.3Z" fill="#4229FF"/>
<path d="M68.8609 17.18C67.4409 17.18 66.1709 16.83 65.0509 16.14C63.9309 15.44 63.0609 14.45 62.4209 13.17C61.7809 11.89 61.4609 10.36 61.4609 8.6C61.4609 6.83 61.7809 5.31 62.4209 4.02C63.0609 2.73 63.9409 1.74 65.0509 1.04C66.1709 0.35 67.4409 0 68.8609 0C70.2909 0 71.5609 0.35 72.6709 1.04C73.7809 1.74 74.6509 2.73 75.2909 4.02C75.9309 5.31 76.2409 6.84 76.2409 8.6C76.2409 10.36 75.9209 11.88 75.2909 13.17C74.6609 14.46 73.7809 15.44 72.6709 16.14C71.5609 16.83 70.2909 17.18 68.8609 17.18ZM68.8609 15.3C69.8709 15.3 70.7909 15.04 71.6109 14.53C72.4309 14.02 73.0809 13.26 73.5609 12.27C74.0409 11.27 74.2809 10.05 74.2809 8.61C74.2809 7.16 74.0409 5.93 73.5609 4.93C73.0809 3.93 72.4309 3.17 71.6109 2.66C70.7909 2.15 69.8809 1.89 68.8609 1.89C67.8409 1.89 66.9309 2.15 66.1109 2.66C65.2909 3.17 64.6309 3.93 64.1409 4.93C63.6509 5.93 63.4109 7.16 63.4109 8.61C63.4109 10.06 63.6509 11.28 64.1409 12.27C64.6309 13.26 65.2809 14.02 66.1109 14.53C66.9409 15.04 67.8509 15.3 68.8609 15.3Z" fill="#4229FF"/>
<path d="M78.5547 16.9587V0.21875H84.2147C85.5247 0.21875 86.5947 0.45875 87.4347 0.92875C88.2647 1.39875 88.8847 2.03875 89.2947 2.83875C89.6947 3.63875 89.9047 4.53875 89.9047 5.51875C89.9047 6.49875 89.7047 7.39875 89.3047 8.19875C88.9047 9.00875 88.2847 9.64875 87.4547 10.1287C86.6247 10.6087 85.5547 10.8387 84.2447 10.8387H80.2047V9.03875H84.1847C85.0847 9.03875 85.8047 8.88875 86.3547 8.57875C86.9047 8.26875 87.2947 7.84875 87.5447 7.31875C87.7947 6.78875 87.9147 6.17875 87.9147 5.51875C87.9147 4.84875 87.7947 4.24875 87.5447 3.71875C87.2947 3.18875 86.8947 2.77875 86.3447 2.46875C85.7947 2.16875 85.0647 2.00875 84.1647 2.00875H80.5947V16.9488H78.5547V16.9587Z" fill="#4229FF"/>
<path d="M97.3833 17.25C96.1833 17.25 95.1533 17.06 94.2733 16.67C93.3933 16.28 92.7133 15.75 92.2133 15.05C91.7133 14.36 91.4333 13.55 91.3633 12.64H93.4533C93.5133 13.27 93.7333 13.79 94.1033 14.2C94.4733 14.61 94.9433 14.92 95.5233 15.12C96.1033 15.32 96.7233 15.42 97.3833 15.42C98.1533 15.42 98.8533 15.29 99.4633 15.04C100.083 14.79 100.573 14.43 100.933 13.97C101.293 13.51 101.473 12.98 101.473 12.36C101.473 11.81 101.313 11.36 101.003 11.01C100.693 10.66 100.283 10.39 99.7733 10.17C99.2633 9.95 98.7233 9.76 98.1233 9.6L96.0833 9.02C94.7733 8.65 93.7333 8.11 92.9733 7.41C92.2133 6.71 91.8333 5.79 91.8333 4.66C91.8333 3.72 92.0833 2.91 92.5933 2.21C93.1033 1.51 93.7833 0.97 94.6533 0.58C95.5133 0.19 96.4733 0 97.5333 0C98.6133 0 99.5733 0.19 100.413 0.58C101.253 0.97 101.913 1.49 102.413 2.15C102.903 2.81 103.173 3.56 103.203 4.4H101.223C101.123 3.58 100.733 2.94 100.043 2.48C99.3533 2.02 98.4933 1.8 97.4733 1.8C96.7433 1.8 96.0933 1.92 95.5433 2.16C94.9933 2.4 94.5633 2.73 94.2533 3.15C93.9433 3.57 93.7933 4.05 93.7933 4.59C93.7933 5.18 93.9733 5.66 94.3433 6.02C94.7133 6.38 95.1433 6.67 95.6533 6.87C96.1633 7.07 96.6133 7.23 97.0333 7.35L98.7133 7.82C99.1433 7.94 99.6333 8.1 100.163 8.3C100.703 8.5 101.213 8.77 101.713 9.12C102.213 9.46 102.623 9.9 102.943 10.44C103.263 10.98 103.423 11.64 103.423 12.42C103.423 13.32 103.183 14.13 102.713 14.86C102.243 15.59 101.553 16.17 100.653 16.6C99.7533 17.03 98.6633 17.25 97.3833 17.25Z" fill="#4229FF"/>
<path d="M105.086 20.9272L106.076 14.6172H108.296L106.566 20.9272H105.086Z" fill="#4229FF"/>
<path d="M122.133 17.25C120.933 17.25 119.903 17.06 119.023 16.67C118.143 16.28 117.463 15.75 116.963 15.05C116.463 14.36 116.183 13.55 116.113 12.64H118.203C118.263 13.27 118.483 13.79 118.853 14.2C119.223 14.61 119.693 14.92 120.273 15.12C120.853 15.32 121.473 15.42 122.133 15.42C122.903 15.42 123.603 15.29 124.213 15.04C124.833 14.79 125.323 14.43 125.683 13.97C126.043 13.51 126.223 12.98 126.223 12.36C126.223 11.81 126.063 11.36 125.753 11.01C125.443 10.66 125.023 10.4 124.523 10.19C124.013 9.97 123.473 9.78 122.873 9.62L120.833 9.04C119.523 8.67 118.483 8.13 117.723 7.43C116.963 6.73 116.583 5.81 116.583 4.68C116.583 3.74 116.833 2.93 117.343 2.23C117.853 1.53 118.533 0.99 119.403 0.6C120.263 0.19 121.223 0 122.293 0C123.373 0 124.333 0.19 125.173 0.58C126.013 0.97 126.673 1.49 127.173 2.15C127.663 2.81 127.933 3.56 127.963 4.4H125.983C125.883 3.58 125.493 2.94 124.803 2.48C124.093 2.03 123.243 1.8 122.223 1.8C121.493 1.8 120.843 1.92 120.293 2.16C119.743 2.4 119.313 2.73 119.003 3.15C118.693 3.57 118.543 4.05 118.543 4.59C118.543 5.18 118.723 5.66 119.093 6.02C119.463 6.38 119.893 6.67 120.403 6.87C120.913 7.07 121.363 7.23 121.783 7.35L123.463 7.82C123.893 7.94 124.383 8.1 124.913 8.3C125.453 8.5 125.963 8.77 126.463 9.12C126.963 9.46 127.373 9.9 127.693 10.44C128.013 10.98 128.173 11.64 128.173 12.42C128.173 13.32 127.933 14.13 127.463 14.86C126.993 15.59 126.303 16.17 125.403 16.6C124.503 17.03 123.423 17.25 122.133 17.25Z" fill="#4229FF"/>
<path d="M137.173 17.18C135.753 17.18 134.483 16.83 133.363 16.14C132.243 15.44 131.373 14.45 130.733 13.17C130.093 11.89 129.773 10.36 129.773 8.6C129.773 6.83 130.093 5.31 130.733 4.02C131.373 2.73 132.253 1.74 133.363 1.04C134.473 0.35 135.743 0 137.173 0C138.603 0 139.873 0.35 140.983 1.04C142.093 1.74 142.963 2.73 143.603 4.02C144.243 5.31 144.553 6.84 144.553 8.6C144.553 10.36 144.233 11.88 143.603 13.17C142.973 14.46 142.093 15.44 140.983 16.14C139.873 16.83 138.603 17.18 137.173 17.18ZM137.173 15.3C138.183 15.3 139.103 15.04 139.923 14.53C140.743 14.02 141.393 13.26 141.873 12.27C142.353 11.27 142.593 10.05 142.593 8.61C142.593 7.16 142.353 5.93 141.873 4.93C141.393 3.93 140.743 3.17 139.923 2.66C139.103 2.15 138.193 1.89 137.173 1.89C136.153 1.89 135.243 2.15 134.423 2.66C133.603 3.17 132.943 3.93 132.453 4.93C131.963 5.93 131.723 7.16 131.723 8.61C131.723 10.06 131.963 11.28 132.453 12.27C132.943 13.26 133.593 14.02 134.423 14.53C135.253 15.04 136.163 15.3 137.173 15.3Z" fill="#4229FF"/>
<path d="M146.864 0.21875H149.294L154.974 14.0988H155.174L160.854 0.21875H163.354V16.9488H161.364V4.24875H161.204L155.934 16.9587H154.114L148.914 4.24875H148.754V16.9587H146.844V0.21875H146.864Z" fill="#4229FF"/>
<path d="M166.324 16.9587V0.21875H176.434V2.01875H168.344V7.60875H175.894V9.40875H168.344V15.1587H176.544V16.9587H166.324Z" fill="#4229FF"/>
<path d="M178.074 2.01875V0.21875H190.634V2.01875H185.374V16.9587H183.354V2.01875H178.074Z" fill="#4229FF"/>
<path d="M192.672 16.9587V0.21875H194.692V7.67875H203.612V0.21875H205.632V16.9488H203.612V9.47875H194.692V16.9587H192.672Z" fill="#4229FF"/>
<path d="M210.614 0.21875V16.9488H208.594V0.21875H210.614Z" fill="#4229FF"/>
<path d="M226.886 0.21875V16.9488H224.886L215.786 3.80875H215.606V16.9488H213.586V0.21875H215.536L224.696 13.3787H224.856V0.21875H226.886Z" fill="#4229FF"/>
<path d="M236.655 17.18C235.175 17.18 233.875 16.83 232.755 16.14C231.635 15.44 230.765 14.45 230.135 13.17C229.505 11.89 229.195 10.36 229.195 8.6C229.195 6.83 229.505 5.31 230.135 4.02C230.765 2.73 231.625 1.74 232.725 1.04C233.825 0.34 235.095 0 236.525 0C237.405 0 238.235 0.13 238.995 0.39C239.755 0.65 240.445 1.03 241.035 1.51C241.635 2 242.135 2.57 242.535 3.24C242.935 3.91 243.215 4.64 243.375 5.45H241.285C241.105 4.9 240.875 4.4 240.585 3.96C240.295 3.52 239.955 3.15 239.545 2.84C239.135 2.53 238.685 2.29 238.185 2.13C237.685 1.97 237.125 1.88 236.525 1.88C235.535 1.88 234.635 2.14 233.825 2.65C233.015 3.16 232.365 3.92 231.885 4.92C231.405 5.92 231.165 7.15 231.165 8.6C231.165 10.05 231.405 11.27 231.895 12.26C232.385 13.26 233.035 14.01 233.875 14.52C234.705 15.03 235.635 15.29 236.675 15.29C237.635 15.29 238.475 15.08 239.205 14.67C239.935 14.26 240.505 13.68 240.915 12.92C241.325 12.17 241.535 11.28 241.535 10.25L242.165 10.38H237.135V8.6H243.515V10.4C243.515 11.78 243.225 12.97 242.635 13.99C242.045 15.01 241.245 15.79 240.215 16.35C239.185 16.91 237.975 17.18 236.655 17.18Z" fill="#4229FF"/>
<path d="M258.054 17.18C256.574 17.18 255.274 16.83 254.154 16.14C253.034 15.44 252.164 14.45 251.534 13.17C250.904 11.89 250.594 10.36 250.594 8.6C250.594 6.83 250.904 5.31 251.534 4.02C252.164 2.73 253.024 1.74 254.124 1.04C255.224 0.34 256.494 0 257.924 0C258.804 0 259.634 0.13 260.394 0.39C261.154 0.65 261.844 1.03 262.434 1.51C263.034 2 263.534 2.57 263.934 3.24C264.334 3.91 264.614 4.64 264.774 5.45H262.684C262.504 4.9 262.274 4.4 261.984 3.96C261.694 3.52 261.354 3.15 260.944 2.84C260.534 2.53 260.084 2.29 259.584 2.13C259.084 1.97 258.524 1.88 257.924 1.88C256.934 1.88 256.034 2.14 255.224 2.65C254.414 3.16 253.764 3.92 253.284 4.92C252.804 5.92 252.564 7.15 252.564 8.6C252.564 10.05 252.804 11.27 253.294 12.26C253.784 13.26 254.434 14.01 255.274 14.52C256.104 15.03 257.034 15.29 258.074 15.29C259.034 15.29 259.874 15.08 260.604 14.67C261.334 14.26 261.904 13.68 262.314 12.92C262.724 12.17 262.934 11.28 262.934 10.25L263.564 10.38H258.534V8.6H264.914V10.4C264.914 11.78 264.624 12.97 264.034 13.99C263.444 15.01 262.644 15.79 261.614 16.35C260.584 16.91 259.384 17.18 258.054 17.18Z" fill="#4229FF"/>
<path d="M274.013 17.18C272.593 17.18 271.323 16.83 270.203 16.14C269.083 15.44 268.213 14.45 267.573 13.17C266.933 11.89 266.613 10.36 266.613 8.6C266.613 6.83 266.933 5.31 267.573 4.02C268.213 2.73 269.093 1.74 270.203 1.04C271.323 0.34 272.583 0 274.013 0C275.443 0 276.713 0.35 277.823 1.04C278.933 1.74 279.803 2.73 280.443 4.02C281.083 5.31 281.393 6.84 281.393 8.6C281.393 10.36 281.073 11.88 280.443 13.17C279.803 14.45 278.933 15.44 277.823 16.14C276.713 16.83 275.443 17.18 274.013 17.18ZM274.013 15.3C275.023 15.3 275.943 15.04 276.763 14.53C277.583 14.02 278.233 13.26 278.713 12.27C279.193 11.27 279.433 10.05 279.433 8.61C279.433 7.16 279.193 5.93 278.713 4.93C278.233 3.93 277.583 3.17 276.763 2.66C275.943 2.15 275.023 1.89 274.013 1.89C273.003 1.89 272.083 2.15 271.263 2.66C270.443 3.17 269.783 3.93 269.303 4.93C268.813 5.93 268.573 7.16 268.573 8.61C268.573 10.06 268.813 11.28 269.303 12.27C269.793 13.27 270.443 14.02 271.263 14.53C272.083 15.04 273.003 15.3 274.013 15.3Z" fill="#4229FF"/>
<path d="M292.201 16.9566L287.641 0.226562H289.691L293.191 13.8566H293.351L296.921 0.226562H299.211L302.761 13.8566H302.941L306.421 0.226562H308.491L303.911 16.9566H301.821L298.141 3.63656H298.011L294.331 16.9566H292.201Z" fill="#4229FF"/>
<path d="M310.004 16.9587V0.21875H315.664C316.974 0.21875 318.044 0.43875 318.884 0.88875C319.724 1.33875 320.334 1.94875 320.744 2.71875C321.144 3.48875 321.354 4.37875 321.354 5.35875C321.354 6.33875 321.154 7.20875 320.754 7.97875C320.354 8.74875 319.734 9.33875 318.904 9.76875C318.074 10.1988 317.004 10.4187 315.694 10.4187H311.134V8.59875H315.624C316.524 8.59875 317.244 8.46875 317.794 8.20875C318.344 7.94875 318.734 7.57875 318.984 7.08875C319.234 6.60875 319.354 6.02875 319.354 5.36875C319.354 4.69875 319.234 4.10875 318.974 3.60875C318.724 3.10875 318.324 2.71875 317.774 2.43875C317.224 2.15875 316.504 2.01875 315.594 2.01875H312.024V16.9587H310.004ZM319.644 16.9587L315.604 9.43875H317.894L322.004 16.9587H319.644Z" fill="#4229FF"/>
<path d="M330.392 17.18C328.972 17.18 327.702 16.83 326.582 16.14C325.462 15.44 324.592 14.45 323.952 13.17C323.312 11.89 322.992 10.36 322.992 8.6C322.992 6.83 323.312 5.31 323.952 4.02C324.592 2.73 325.472 1.74 326.582 1.04C327.702 0.34 328.962 0 330.392 0C331.822 0 333.092 0.35 334.202 1.04C335.312 1.74 336.182 2.73 336.822 4.02C337.462 5.31 337.772 6.84 337.772 8.6C337.772 10.36 337.452 11.88 336.822 13.17C336.182 14.45 335.312 15.44 334.202 16.14C333.092 16.83 331.822 17.18 330.392 17.18ZM330.392 15.3C331.402 15.3 332.322 15.04 333.142 14.53C333.962 14.02 334.612 13.26 335.092 12.27C335.572 11.27 335.812 10.05 335.812 8.61C335.812 7.16 335.572 5.93 335.092 4.93C334.612 3.93 333.962 3.17 333.142 2.66C332.322 2.15 331.402 1.89 330.392 1.89C329.382 1.89 328.462 2.15 327.642 2.66C326.822 3.17 326.162 3.93 325.682 4.93C325.192 5.93 324.952 7.16 324.952 8.61C324.952 10.06 325.192 11.28 325.682 12.27C326.172 13.27 326.822 14.02 327.642 14.53C328.462 15.04 329.382 15.3 330.392 15.3Z" fill="#4229FF"/>
<path d="M353.386 0.21875V16.9488H351.386L342.286 3.80875H342.106V16.9488H340.086V0.21875H342.036L351.196 13.3787H351.356V0.21875H353.386Z" fill="#4229FF"/>
<path d="M363.155 17.18C361.675 17.18 360.375 16.83 359.255 16.14C358.135 15.44 357.265 14.45 356.635 13.17C356.005 11.89 355.695 10.36 355.695 8.6C355.695 6.83 356.005 5.31 356.635 4.02C357.265 2.73 358.125 1.74 359.225 1.04C360.325 0.34 361.595 0 363.025 0C363.905 0 364.735 0.13 365.495 0.39C366.255 0.65 366.945 1.03 367.535 1.51C368.135 2 368.635 2.57 369.035 3.24C369.435 3.91 369.715 4.64 369.875 5.45H367.785C367.605 4.9 367.375 4.4 367.085 3.96C366.795 3.52 366.455 3.15 366.045 2.84C365.635 2.53 365.185 2.29 364.685 2.13C364.185 1.97 363.625 1.88 363.025 1.88C362.035 1.88 361.135 2.14 360.325 2.65C359.515 3.16 358.865 3.92 358.385 4.92C357.905 5.92 357.665 7.15 357.665 8.6C357.665 10.05 357.905 11.27 358.395 12.26C358.885 13.26 359.535 14.01 360.375 14.52C361.205 15.03 362.135 15.29 363.175 15.29C364.135 15.29 364.975 15.08 365.705 14.67C366.435 14.26 367.005 13.68 367.415 12.92C367.825 12.17 368.035 11.28 368.035 10.25L368.665 10.38H363.635V8.6H370.015V10.4C370.015 11.78 369.725 12.97 369.135 13.99C368.545 15.01 367.745 15.79 366.715 16.35C365.685 16.91 364.475 17.18 363.155 17.18Z" fill="#4229FF"/>
<path d="M54.4234 17.18C53.0034 17.18 51.7334 16.83 50.6134 16.14C49.4934 15.44 48.6234 14.45 47.9834 13.17C47.3434 11.88 47.0234 10.36 47.0234 8.6C47.0234 6.83 47.3434 5.31 47.9834 4.02C48.6234 2.73 49.5034 1.74 50.6134 1.04C51.7334 0.35 53.0034 0 54.4234 0C55.8534 0 57.1234 0.35 58.2334 1.04C59.3434 1.74 60.2134 2.73 60.8534 4.02C61.4934 5.31 61.8034 6.84 61.8034 8.6C61.8034 10.36 61.4834 11.88 60.8534 13.17C60.2234 14.46 59.3434 15.44 58.2334 16.14C57.1234 16.83 55.8534 17.18 54.4234 17.18ZM54.4234 15.3C55.4334 15.3 56.3534 15.04 57.1734 14.53C57.9934 14.02 58.6434 13.26 59.1234 12.27C59.6034 11.27 59.8434 10.05 59.8434 8.61C59.8434 7.16 59.6034 5.93 59.1234 4.93C58.6434 3.93 57.9934 3.17 57.1734 2.66C56.3534 2.15 55.4434 1.89 54.4234 1.89C53.4034 1.89 52.4934 2.14 51.6734 2.66C50.8534 3.18 50.1934 3.92 49.7034 4.92C49.2134 5.92 48.9734 7.15 48.9734 8.6C48.9734 10.05 49.2134 11.27 49.7034 12.26C50.1934 13.25 50.8434 14.01 51.6734 14.52C52.5034 15.03 53.4134 15.3 54.4234 15.3Z" fill="white"/>
<path d="M70.8609 17.18C69.4409 17.18 68.1709 16.83 67.0509 16.14C65.9309 15.44 65.0609 14.45 64.4209 13.17C63.7809 11.89 63.4609 10.36 63.4609 8.6C63.4609 6.83 63.7809 5.31 64.4209 4.02C65.0609 2.73 65.9409 1.74 67.0509 1.04C68.1709 0.35 69.4409 0 70.8609 0C72.2909 0 73.5609 0.35 74.6709 1.04C75.7809 1.74 76.6509 2.73 77.2909 4.02C77.9309 5.31 78.2409 6.84 78.2409 8.6C78.2409 10.36 77.9209 11.88 77.2909 13.17C76.6609 14.46 75.7809 15.44 74.6709 16.14C73.5609 16.83 72.2909 17.18 70.8609 17.18ZM70.8609 15.3C71.8709 15.3 72.7909 15.04 73.6109 14.53C74.4309 14.02 75.0809 13.26 75.5609 12.27C76.0409 11.27 76.2809 10.05 76.2809 8.61C76.2809 7.16 76.0409 5.93 75.5609 4.93C75.0809 3.93 74.4309 3.17 73.6109 2.66C72.7909 2.15 71.8809 1.89 70.8609 1.89C69.8409 1.89 68.9309 2.15 68.1109 2.66C67.2909 3.17 66.6309 3.93 66.1409 4.93C65.6509 5.93 65.4109 7.16 65.4109 8.61C65.4109 10.06 65.6509 11.28 66.1409 12.27C66.6309 13.26 67.2809 14.02 68.1109 14.53C68.9409 15.04 69.8509 15.3 70.8609 15.3Z" fill="white"/>
<path d="M80.5547 16.9587V0.21875H86.2147C87.5247 0.21875 88.5947 0.45875 89.4347 0.92875C90.2647 1.39875 90.8847 2.03875 91.2947 2.83875C91.6947 3.63875 91.9047 4.53875 91.9047 5.51875C91.9047 6.49875 91.7047 7.39875 91.3047 8.19875C90.9047 9.00875 90.2847 9.64875 89.4547 10.1287C88.6247 10.6087 87.5547 10.8387 86.2447 10.8387H82.2047V9.03875H86.1847C87.0847 9.03875 87.8047 8.88875 88.3547 8.57875C88.9047 8.26875 89.2947 7.84875 89.5447 7.31875C89.7947 6.78875 89.9147 6.17875 89.9147 5.51875C89.9147 4.84875 89.7947 4.24875 89.5447 3.71875C89.2947 3.18875 88.8947 2.77875 88.3447 2.46875C87.7947 2.16875 87.0647 2.00875 86.1647 2.00875H82.5947V16.9488H80.5547V16.9587Z" fill="white"/>
<path d="M99.3833 17.25C98.1833 17.25 97.1533 17.06 96.2733 16.67C95.3933 16.28 94.7133 15.75 94.2133 15.05C93.7133 14.36 93.4333 13.55 93.3633 12.64H95.4533C95.5133 13.27 95.7333 13.79 96.1033 14.2C96.4733 14.61 96.9433 14.92 97.5233 15.12C98.1033 15.32 98.7233 15.42 99.3833 15.42C100.153 15.42 100.853 15.29 101.463 15.04C102.083 14.79 102.573 14.43 102.933 13.97C103.293 13.51 103.473 12.98 103.473 12.36C103.473 11.81 103.313 11.36 103.003 11.01C102.693 10.66 102.283 10.39 101.773 10.17C101.263 9.95 100.723 9.76 100.123 9.6L98.0833 9.02C96.7733 8.65 95.7333 8.11 94.9733 7.41C94.2133 6.71 93.8333 5.79 93.8333 4.66C93.8333 3.72 94.0833 2.91 94.5933 2.21C95.1033 1.51 95.7833 0.97 96.6533 0.58C97.5133 0.19 98.4733 0 99.5333 0C100.613 0 101.573 0.19 102.413 0.58C103.253 0.97 103.913 1.49 104.413 2.15C104.903 2.81 105.173 3.56 105.203 4.4H103.223C103.123 3.58 102.733 2.94 102.043 2.48C101.353 2.02 100.493 1.8 99.4733 1.8C98.7433 1.8 98.0933 1.92 97.5433 2.16C96.9933 2.4 96.5633 2.73 96.2533 3.15C95.9433 3.57 95.7933 4.05 95.7933 4.59C95.7933 5.18 95.9733 5.66 96.3433 6.02C96.7133 6.38 97.1433 6.67 97.6533 6.87C98.1633 7.07 98.6133 7.23 99.0333 7.35L100.713 7.82C101.143 7.94 101.633 8.1 102.163 8.3C102.703 8.5 103.213 8.77 103.713 9.12C104.213 9.46 104.623 9.9 104.943 10.44C105.263 10.98 105.423 11.64 105.423 12.42C105.423 13.32 105.183 14.13 104.713 14.86C104.243 15.59 103.553 16.17 102.653 16.6C101.753 17.03 100.663 17.25 99.3833 17.25Z" fill="white"/>
<path d="M107.086 20.9272L108.076 14.6172H110.296L108.566 20.9272H107.086Z" fill="white"/>
<path d="M124.133 17.25C122.933 17.25 121.903 17.06 121.023 16.67C120.143 16.28 119.463 15.75 118.963 15.05C118.463 14.36 118.183 13.55 118.113 12.64H120.203C120.263 13.27 120.483 13.79 120.853 14.2C121.223 14.61 121.693 14.92 122.273 15.12C122.853 15.32 123.473 15.42 124.133 15.42C124.903 15.42 125.603 15.29 126.213 15.04C126.833 14.79 127.323 14.43 127.683 13.97C128.043 13.51 128.223 12.98 128.223 12.36C128.223 11.81 128.063 11.36 127.753 11.01C127.443 10.66 127.023 10.4 126.523 10.19C126.013 9.97 125.473 9.78 124.873 9.62L122.833 9.04C121.523 8.67 120.483 8.13 119.723 7.43C118.963 6.73 118.583 5.81 118.583 4.68C118.583 3.74 118.833 2.93 119.343 2.23C119.853 1.53 120.533 0.99 121.403 0.6C122.263 0.19 123.223 0 124.293 0C125.373 0 126.333 0.19 127.173 0.58C128.013 0.97 128.673 1.49 129.173 2.15C129.663 2.81 129.933 3.56 129.963 4.4H127.983C127.883 3.58 127.493 2.94 126.803 2.48C126.093 2.03 125.243 1.8 124.223 1.8C123.493 1.8 122.843 1.92 122.293 2.16C121.743 2.4 121.313 2.73 121.003 3.15C120.693 3.57 120.543 4.05 120.543 4.59C120.543 5.18 120.723 5.66 121.093 6.02C121.463 6.38 121.893 6.67 122.403 6.87C122.913 7.07 123.363 7.23 123.783 7.35L125.463 7.82C125.893 7.94 126.383 8.1 126.913 8.3C127.453 8.5 127.963 8.77 128.463 9.12C128.963 9.46 129.373 9.9 129.693 10.44C130.013 10.98 130.173 11.64 130.173 12.42C130.173 13.32 129.933 14.13 129.463 14.86C128.993 15.59 128.303 16.17 127.403 16.6C126.503 17.03 125.423 17.25 124.133 17.25Z" fill="white"/>
<path d="M139.173 17.18C137.753 17.18 136.483 16.83 135.363 16.14C134.243 15.44 133.373 14.45 132.733 13.17C132.093 11.89 131.773 10.36 131.773 8.6C131.773 6.83 132.093 5.31 132.733 4.02C133.373 2.73 134.253 1.74 135.363 1.04C136.473 0.35 137.743 0 139.173 0C140.603 0 141.873 0.35 142.983 1.04C144.093 1.74 144.963 2.73 145.603 4.02C146.243 5.31 146.553 6.84 146.553 8.6C146.553 10.36 146.233 11.88 145.603 13.17C144.973 14.46 144.093 15.44 142.983 16.14C141.873 16.83 140.603 17.18 139.173 17.18ZM139.173 15.3C140.183 15.3 141.103 15.04 141.923 14.53C142.743 14.02 143.393 13.26 143.873 12.27C144.353 11.27 144.593 10.05 144.593 8.61C144.593 7.16 144.353 5.93 143.873 4.93C143.393 3.93 142.743 3.17 141.923 2.66C141.103 2.15 140.193 1.89 139.173 1.89C138.153 1.89 137.243 2.15 136.423 2.66C135.603 3.17 134.943 3.93 134.453 4.93C133.963 5.93 133.723 7.16 133.723 8.61C133.723 10.06 133.963 11.28 134.453 12.27C134.943 13.26 135.593 14.02 136.423 14.53C137.253 15.04 138.163 15.3 139.173 15.3Z" fill="white"/>
<path d="M148.864 0.21875H151.294L156.974 14.0988H157.174L162.854 0.21875H165.354V16.9488H163.364V4.24875H163.204L157.934 16.9587H156.114L150.914 4.24875H150.754V16.9587H148.844V0.21875H148.864Z" fill="white"/>
<path d="M168.324 16.9587V0.21875H178.434V2.01875H170.344V7.60875H177.894V9.40875H170.344V15.1587H178.544V16.9587H168.324Z" fill="white"/>
<path d="M180.074 2.01875V0.21875H192.634V2.01875H187.374V16.9587H185.354V2.01875H180.074Z" fill="white"/>
<path d="M194.672 16.9587V0.21875H196.692V7.67875H205.612V0.21875H207.632V16.9488H205.612V9.47875H196.692V16.9587H194.672Z" fill="white"/>
<path d="M212.614 0.21875V16.9488H210.594V0.21875H212.614Z" fill="white"/>
<path d="M228.886 0.21875V16.9488H226.886L217.786 3.80875H217.606V16.9488H215.586V0.21875H217.536L226.696 13.3787H226.856V0.21875H228.886Z" fill="white"/>
<path d="M238.655 17.18C237.175 17.18 235.875 16.83 234.755 16.14C233.635 15.44 232.765 14.45 232.135 13.17C231.505 11.89 231.195 10.36 231.195 8.6C231.195 6.83 231.505 5.31 232.135 4.02C232.765 2.73 233.625 1.74 234.725 1.04C235.825 0.34 237.095 0 238.525 0C239.405 0 240.235 0.13 240.995 0.39C241.755 0.65 242.445 1.03 243.035 1.51C243.635 2 244.135 2.57 244.535 3.24C244.935 3.91 245.215 4.64 245.375 5.45H243.285C243.105 4.9 242.875 4.4 242.585 3.96C242.295 3.52 241.955 3.15 241.545 2.84C241.135 2.53 240.685 2.29 240.185 2.13C239.685 1.97 239.125 1.88 238.525 1.88C237.535 1.88 236.635 2.14 235.825 2.65C235.015 3.16 234.365 3.92 233.885 4.92C233.405 5.92 233.165 7.15 233.165 8.6C233.165 10.05 233.405 11.27 233.895 12.26C234.385 13.26 235.035 14.01 235.875 14.52C236.705 15.03 237.635 15.29 238.675 15.29C239.635 15.29 240.475 15.08 241.205 14.67C241.935 14.26 242.505 13.68 242.915 12.92C243.325 12.17 243.535 11.28 243.535 10.25L244.165 10.38H239.135V8.6H245.515V10.4C245.515 11.78 245.225 12.97 244.635 13.99C244.045 15.01 243.245 15.79 242.215 16.35C241.185 16.91 239.975 17.18 238.655 17.18Z" fill="white"/>
<path d="M260.054 17.18C258.574 17.18 257.274 16.83 256.154 16.14C255.034 15.44 254.164 14.45 253.534 13.17C252.904 11.89 252.594 10.36 252.594 8.6C252.594 6.83 252.904 5.31 253.534 4.02C254.164 2.73 255.024 1.74 256.124 1.04C257.224 0.34 258.494 0 259.924 0C260.804 0 261.634 0.13 262.394 0.39C263.154 0.65 263.844 1.03 264.434 1.51C265.034 2 265.534 2.57 265.934 3.24C266.334 3.91 266.614 4.64 266.774 5.45H264.684C264.504 4.9 264.274 4.4 263.984 3.96C263.694 3.52 263.354 3.15 262.944 2.84C262.534 2.53 262.084 2.29 261.584 2.13C261.084 1.97 260.524 1.88 259.924 1.88C258.934 1.88 258.034 2.14 257.224 2.65C256.414 3.16 255.764 3.92 255.284 4.92C254.804 5.92 254.564 7.15 254.564 8.6C254.564 10.05 254.804 11.27 255.294 12.26C255.784 13.26 256.434 14.01 257.274 14.52C258.104 15.03 259.034 15.29 260.074 15.29C261.034 15.29 261.874 15.08 262.604 14.67C263.334 14.26 263.904 13.68 264.314 12.92C264.724 12.17 264.934 11.28 264.934 10.25L265.564 10.38H260.534V8.6H266.914V10.4C266.914 11.78 266.624 12.97 266.034 13.99C265.444 15.01 264.644 15.79 263.614 16.35C262.584 16.91 261.384 17.18 260.054 17.18Z" fill="white"/>
<path d="M276.013 17.18C274.593 17.18 273.323 16.83 272.203 16.14C271.083 15.44 270.213 14.45 269.573 13.17C268.933 11.89 268.613 10.36 268.613 8.6C268.613 6.83 268.933 5.31 269.573 4.02C270.213 2.73 271.093 1.74 272.203 1.04C273.323 0.34 274.583 0 276.013 0C277.443 0 278.713 0.35 279.823 1.04C280.933 1.74 281.803 2.73 282.443 4.02C283.083 5.31 283.393 6.84 283.393 8.6C283.393 10.36 283.073 11.88 282.443 13.17C281.803 14.45 280.933 15.44 279.823 16.14C278.713 16.83 277.443 17.18 276.013 17.18ZM276.013 15.3C277.023 15.3 277.943 15.04 278.763 14.53C279.583 14.02 280.233 13.26 280.713 12.27C281.193 11.27 281.433 10.05 281.433 8.61C281.433 7.16 281.193 5.93 280.713 4.93C280.233 3.93 279.583 3.17 278.763 2.66C277.943 2.15 277.023 1.89 276.013 1.89C275.003 1.89 274.083 2.15 273.263 2.66C272.443 3.17 271.783 3.93 271.303 4.93C270.813 5.93 270.573 7.16 270.573 8.61C270.573 10.06 270.813 11.28 271.303 12.27C271.793 13.27 272.443 14.02 273.263 14.53C274.083 15.04 275.003 15.3 276.013 15.3Z" fill="white"/>
<path d="M294.201 16.9566L289.641 0.226562H291.691L295.191 13.8566H295.351L298.921 0.226562H301.211L304.761 13.8566H304.941L308.421 0.226562H310.491L305.911 16.9566H303.821L300.141 3.63656H300.011L296.331 16.9566H294.201Z" fill="white"/>
<path d="M312.004 16.9587V0.21875H317.664C318.974 0.21875 320.044 0.43875 320.884 0.88875C321.724 1.33875 322.334 1.94875 322.744 2.71875C323.144 3.48875 323.354 4.37875 323.354 5.35875C323.354 6.33875 323.154 7.20875 322.754 7.97875C322.354 8.74875 321.734 9.33875 320.904 9.76875C320.074 10.1988 319.004 10.4187 317.694 10.4187H313.134V8.59875H317.624C318.524 8.59875 319.244 8.46875 319.794 8.20875C320.344 7.94875 320.734 7.57875 320.984 7.08875C321.234 6.60875 321.354 6.02875 321.354 5.36875C321.354 4.69875 321.234 4.10875 320.974 3.60875C320.724 3.10875 320.324 2.71875 319.774 2.43875C319.224 2.15875 318.504 2.01875 317.594 2.01875H314.024V16.9587H312.004ZM321.644 16.9587L317.604 9.43875H319.894L324.004 16.9587H321.644Z" fill="white"/>
<path d="M332.392 17.18C330.972 17.18 329.702 16.83 328.582 16.14C327.462 15.44 326.592 14.45 325.952 13.17C325.312 11.89 324.992 10.36 324.992 8.6C324.992 6.83 325.312 5.31 325.952 4.02C326.592 2.73 327.472 1.74 328.582 1.04C329.702 0.34 330.962 0 332.392 0C333.822 0 335.092 0.35 336.202 1.04C337.312 1.74 338.182 2.73 338.822 4.02C339.462 5.31 339.772 6.84 339.772 8.6C339.772 10.36 339.452 11.88 338.822 13.17C338.182 14.45 337.312 15.44 336.202 16.14C335.092 16.83 333.822 17.18 332.392 17.18ZM332.392 15.3C333.402 15.3 334.322 15.04 335.142 14.53C335.962 14.02 336.612 13.26 337.092 12.27C337.572 11.27 337.812 10.05 337.812 8.61C337.812 7.16 337.572 5.93 337.092 4.93C336.612 3.93 335.962 3.17 335.142 2.66C334.322 2.15 333.402 1.89 332.392 1.89C331.382 1.89 330.462 2.15 329.642 2.66C328.822 3.17 328.162 3.93 327.682 4.93C327.192 5.93 326.952 7.16 326.952 8.61C326.952 10.06 327.192 11.28 327.682 12.27C328.172 13.27 328.822 14.02 329.642 14.53C330.462 15.04 331.382 15.3 332.392 15.3Z" fill="white"/>
<path d="M355.386 0.21875V16.9488H353.386L344.286 3.80875H344.106V16.9488H342.086V0.21875H344.036L353.196 13.3787H353.356V0.21875H355.386Z" fill="white"/>
<path d="M365.155 17.18C363.675 17.18 362.375 16.83 361.255 16.14C360.135 15.44 359.265 14.45 358.635 13.17C358.005 11.89 357.695 10.36 357.695 8.6C357.695 6.83 358.005 5.31 358.635 4.02C359.265 2.73 360.125 1.74 361.225 1.04C362.325 0.34 363.595 0 365.025 0C365.905 0 366.735 0.13 367.495 0.39C368.255 0.65 368.945 1.03 369.535 1.51C370.135 2 370.635 2.57 371.035 3.24C371.435 3.91 371.715 4.64 371.875 5.45H369.785C369.605 4.9 369.375 4.4 369.085 3.96C368.795 3.52 368.455 3.15 368.045 2.84C367.635 2.53 367.185 2.29 366.685 2.13C366.185 1.97 365.625 1.88 365.025 1.88C364.035 1.88 363.135 2.14 362.325 2.65C361.515 3.16 360.865 3.92 360.385 4.92C359.905 5.92 359.665 7.15 359.665 8.6C359.665 10.05 359.905 11.27 360.395 12.26C360.885 13.26 361.535 14.01 362.375 14.52C363.205 15.03 364.135 15.29 365.175 15.29C366.135 15.29 366.975 15.08 367.705 14.67C368.435 14.26 369.005 13.68 369.415 12.92C369.825 12.17 370.035 11.28 370.035 10.25L370.665 10.38H365.635V8.6H372.015V10.4C372.015 11.78 371.725 12.97 371.135 13.99C370.545 15.01 369.745 15.79 368.715 16.35C367.685 16.91 366.475 17.18 365.155 17.18Z" fill="white"/>
</g>
<g clip-path="url(#clip1_355_14895)">
<path d="M115.703 83.9219H66.6934L32.2234 133.232H68.1234L83.0334 109.822V160.782H50.5634L58.1034 148.952H21.2334L11.5234 162.842V191.202H80.5634V199.692H115.703V191.202H132.553V160.782H115.703V83.9219Z" fill="#4229FF"/>
<path d="M115.702 209.688H80.5625V217.908H115.702V209.688Z" fill="#4229FF"/>
<path d="M207.564 184.419C203.584 184.419 200.134 183.629 197.184 182.059C194.234 180.489 191.974 178.539 190.404 176.199C188.824 173.869 187.564 170.789 186.604 166.949C185.644 163.119 185.024 159.419 184.754 155.849C184.474 152.289 184.344 148.039 184.344 143.109C184.344 138.259 184.474 134.069 184.744 130.539H150.324C149.994 134.549 149.824 138.729 149.824 143.109C149.824 154.069 150.854 163.899 152.904 172.599C154.954 181.299 158.174 189.069 162.564 195.919C166.944 202.769 172.944 208.039 180.544 211.739C188.144 215.439 197.154 217.289 207.564 217.289C217.974 217.289 226.984 215.439 234.584 211.739C242.184 208.039 248.174 202.769 252.564 195.919C255.104 191.949 257.244 187.659 259.004 183.069H215.674C213.254 183.969 210.554 184.419 207.564 184.419Z" fill="#4229FF"/>
<path d="M207.567 68.9297C197.157 68.9297 188.147 70.7797 180.547 74.4797C172.947 78.1797 166.947 83.4497 162.567 90.2997C158.177 97.1497 154.967 104.93 152.907 113.62C152.837 113.9 152.787 114.18 152.727 114.46H188.137C188.807 112.76 189.567 111.28 190.417 110.02C191.987 107.69 194.247 105.74 197.197 104.16C200.147 102.59 203.597 101.8 207.577 101.8C211.547 101.8 215.007 102.59 217.957 104.16C220.897 105.74 223.157 107.69 224.737 110.02C226.317 112.35 227.577 115.43 228.537 119.27C229.497 123.11 230.117 126.81 230.387 130.37C230.657 133.93 230.797 138.18 230.797 143.11C230.797 148.04 230.657 152.29 230.387 155.85C230.107 159.42 229.497 163.11 228.537 166.95C228.347 167.71 228.137 168.44 227.927 169.14H262.987C264.537 161.32 265.327 152.65 265.327 143.12C265.327 132.16 264.297 122.33 262.237 113.63C260.187 104.93 256.967 97.1597 252.577 90.3097C248.187 83.4597 242.197 78.1897 234.597 74.4897C226.977 70.7797 217.977 68.9297 207.567 68.9297Z" fill="#4229FF"/>
<path d="M58.4134 133.227H22.5134L11.5234 148.947H48.3934L58.4134 133.227Z" fill="#4229FF"/>
<path d="M122.855 199.688H87.7148V209.688H122.855V199.688Z" fill="#4229FF"/>
<path d="M88.2561 69.9609L78.4961 83.9209H127.506V69.9609" fill="#4229FF"/>
<path d="M392.985 83.9219H343.975L309.505 133.232H345.405L360.315 109.822V160.782H327.845L335.385 148.952H298.515L288.805 162.842V191.202H357.845V199.692H392.985V191.202H409.835V160.782H392.985V83.9219Z" fill="#4229FF"/>
<path d="M392.984 209.688H357.844V217.908H392.984V209.688Z" fill="#4229FF"/>
<path d="M335.695 133.227H299.795L288.805 148.947H325.675L335.695 133.227Z" fill="#4229FF"/>
<path d="M400.136 199.688H364.996V209.688H400.136V199.688Z" fill="#4229FF"/>
<path d="M365.526 69.9609L355.766 83.9209H404.776V69.9609" fill="#4229FF"/>
<path d="M177.116 130.371C177.386 126.811 178.006 123.111 178.966 119.271C179.406 117.511 179.916 115.911 180.486 114.461H145.076C143.946 119.451 143.146 124.811 142.676 130.541H177.096C177.106 130.491 177.106 130.431 177.116 130.371Z" fill="#4229FF"/>
<path d="M269.667 169.141H234.607C233.737 171.971 232.677 174.331 231.417 176.201C229.837 178.531 227.577 180.481 224.637 182.061C223.907 182.451 223.157 182.791 222.367 183.081H265.697C266.967 179.751 268.057 176.271 268.917 172.611C269.187 171.471 269.437 170.311 269.667 169.141Z" fill="#4229FF"/>
<path d="M104.215 83.9219H55.2152L20.7352 133.232H56.6352L71.5452 109.822V160.782H39.0752L46.6152 148.952H9.74516L0.0351562 162.842V191.202H69.0852V199.692H104.215V191.202H121.065V160.782H104.215V83.9219Z" fill="#4229FF"/>
<path d="M104.226 209.688H69.0859V217.908H104.226V209.688Z" fill="#4229FF"/>
<path d="M196.076 184.419C192.096 184.419 188.646 183.629 185.696 182.059C182.746 180.489 180.486 178.539 178.916 176.199C177.336 173.869 176.076 170.789 175.116 166.949C174.156 163.119 173.536 159.419 173.266 155.849C172.986 152.289 172.856 148.039 172.856 143.109C172.856 138.259 172.986 134.069 173.256 130.539H138.836C138.506 134.549 138.336 138.729 138.336 143.109C138.336 154.069 139.366 163.899 141.416 172.599C143.466 181.299 146.686 189.069 151.076 195.919C155.456 202.769 161.456 208.039 169.056 211.739C176.656 215.439 185.666 217.289 196.076 217.289C206.486 217.289 215.496 215.439 223.096 211.739C230.696 208.039 236.686 202.769 241.076 195.919C243.616 191.949 245.756 187.659 247.516 183.069H204.186C201.766 183.969 199.066 184.419 196.076 184.419Z" fill="#4229FF"/>
<path d="M196.074 68.9297C185.664 68.9297 176.654 70.7797 169.054 74.4797C161.454 78.1797 155.454 83.4497 151.074 90.2997C146.684 97.1497 143.474 104.93 141.414 113.62C141.344 113.9 141.294 114.18 141.234 114.46H176.644C177.314 112.76 178.074 111.28 178.924 110.02C180.494 107.69 182.754 105.74 185.704 104.16C188.654 102.59 192.104 101.8 196.084 101.8C200.054 101.8 203.514 102.59 206.464 104.16C209.404 105.74 211.664 107.69 213.244 110.02C214.824 112.35 216.084 115.43 217.044 119.27C218.004 123.11 218.624 126.81 218.894 130.37C219.164 133.93 219.304 138.18 219.304 143.11C219.304 148.04 219.164 152.29 218.894 155.85C218.614 159.42 218.004 163.11 217.044 166.95C216.854 167.71 216.644 168.44 216.434 169.14H251.494C253.044 161.32 253.834 152.65 253.834 143.12C253.834 132.16 252.804 122.33 250.744 113.63C248.694 104.93 245.474 97.1597 241.084 90.3097C236.694 83.4597 230.704 78.1897 223.104 74.4897C215.484 70.7797 206.484 68.9297 196.074 68.9297Z" fill="#4229FF"/>
<path d="M46.9252 133.227H11.0252L0.0351562 148.947H36.9052L46.9252 133.227Z" fill="#4229FF"/>
<path d="M111.367 199.688H76.2266V209.688H111.367V199.688Z" fill="#4229FF"/>
<path d="M76.7678 69.9609L67.0078 83.9209H116.018V69.9609" fill="#4229FF"/>
<path d="M381.492 83.9219H332.483L298.013 133.232H333.913L348.823 109.822V160.782H316.353L323.892 148.952H287.022L277.312 162.842V191.202H346.353V199.692H381.492V191.202H398.342V160.782H381.492V83.9219Z" fill="#4229FF"/>
<path d="M381.495 209.688H346.355V217.908H381.495V209.688Z" fill="#4229FF"/>
<path d="M324.203 133.227H288.302L277.312 148.947H314.182L324.203 133.227Z" fill="#4229FF"/>
<path d="M388.648 199.688H353.508V209.688H388.648V199.688Z" fill="#4229FF"/>
<path d="M354.035 69.9609L344.285 83.9209H393.285V69.9609" fill="#4229FF"/>
<path d="M165.628 130.371C165.898 126.811 166.518 123.111 167.478 119.271C167.918 117.511 168.428 115.911 168.998 114.461H133.588C132.458 119.451 131.657 124.811 131.188 130.541H165.608C165.618 130.491 165.618 130.431 165.628 130.371Z" fill="#4229FF"/>
<path d="M258.175 169.141H223.115C222.245 171.971 221.185 174.331 219.925 176.201C218.345 178.531 216.085 180.481 213.145 182.061C212.415 182.451 211.665 182.791 210.875 183.081H254.205C255.485 179.751 256.565 176.271 257.425 172.611C257.695 171.471 257.945 170.311 258.175 169.141Z" fill="#4229FF"/>
<path d="M109.274 83.9219H60.2637L25.7938 133.232H61.6937L76.6038 109.822V160.782H44.1337L51.6737 148.952H14.8038L5.09375 162.842V191.202H74.1338V199.692H109.274V191.202H126.124V160.782H109.274V83.9219Z" fill="white"/>
<path d="M109.273 209.688H74.1328V217.908H109.273V209.688Z" fill="white"/>
<path d="M201.123 184.419C197.143 184.419 193.693 183.629 190.743 182.059C187.793 180.489 185.533 178.539 183.963 176.199C182.383 173.869 181.123 170.789 180.163 166.949C179.203 163.119 178.583 159.419 178.313 155.849C178.033 152.289 177.903 148.039 177.903 143.109C177.903 138.259 178.033 134.069 178.303 130.539H143.883C143.553 134.549 143.383 138.729 143.383 143.109C143.383 154.069 144.413 163.899 146.463 172.599C148.513 181.299 151.733 189.069 156.123 195.919C160.503 202.769 166.503 208.039 174.103 211.739C181.703 215.439 190.713 217.289 201.123 217.289C211.533 217.289 220.543 215.439 228.143 211.739C235.743 208.039 241.733 202.769 246.123 195.919C248.663 191.949 250.803 187.659 252.563 183.069H209.233C206.823 183.969 204.123 184.419 201.123 184.419Z" fill="white"/>
<path d="M201.125 68.9297C190.715 68.9297 181.705 70.7797 174.105 74.4797C166.505 78.1797 160.505 83.4497 156.125 90.2997C151.735 97.1497 148.525 104.93 146.465 113.62C146.395 113.9 146.345 114.18 146.285 114.46H181.695C182.365 112.76 183.125 111.28 183.975 110.02C185.545 107.69 187.805 105.74 190.755 104.16C193.705 102.59 197.155 101.8 201.135 101.8C205.105 101.8 208.565 102.59 211.515 104.16C214.455 105.74 216.715 107.69 218.295 110.02C219.875 112.35 221.135 115.43 222.095 119.27C223.055 123.11 223.675 126.81 223.945 130.37C224.215 133.93 224.355 138.18 224.355 143.11C224.355 148.04 224.215 152.29 223.945 155.85C223.665 159.42 223.055 163.11 222.095 166.95C221.905 167.71 221.695 168.44 221.485 169.14H256.545C258.095 161.32 258.885 152.65 258.885 143.12C258.885 132.16 257.855 122.33 255.795 113.63C253.745 104.93 250.525 97.1597 246.135 90.3097C241.745 83.4597 235.755 78.1897 228.155 74.4897C220.545 70.7797 211.535 68.9297 201.125 68.9297Z" fill="white"/>
<path d="M51.9837 133.227H16.0837L5.09375 148.947H41.9637L51.9837 133.227Z" fill="white"/>
<path d="M116.425 199.688H81.2852V209.688H116.425V199.688Z" fill="white"/>
<path d="M81.8147 69.9609L72.0547 83.9209H121.065V69.9609" fill="white"/>
<path d="M386.555 83.9219H337.545L303.075 133.232H338.975L353.885 109.822V160.782H321.415L328.955 148.952H292.085L282.375 162.842V191.202H351.415V199.692H386.555V191.202H403.405V160.782H386.555V83.9219Z" fill="white"/>
<path d="M386.554 209.688H351.414V217.908H386.554V209.688Z" fill="white"/>
<path d="M329.265 133.227H293.365L282.375 148.947H319.245L329.265 133.227Z" fill="white"/>
<path d="M393.703 199.688H358.562V209.688H393.703V199.688Z" fill="white"/>
<path d="M359.096 69.9609L349.336 83.9209H398.346V69.9609" fill="white"/>
<path d="M170.686 130.371C170.956 126.811 171.576 123.111 172.536 119.271C172.976 117.511 173.486 115.911 174.056 114.461H138.646C137.516 119.451 136.716 124.811 136.246 130.541H170.666C170.676 130.491 170.676 130.431 170.686 130.371Z" fill="white"/>
<path d="M263.238 169.141H228.178C227.308 171.971 226.248 174.331 224.988 176.201C223.408 178.531 221.148 180.481 218.208 182.061C217.478 182.451 216.728 182.791 215.938 183.081H259.268C260.538 179.751 261.628 176.271 262.488 172.611C262.758 171.471 263.008 170.311 263.238 169.141Z" fill="white"/>
<path d="M58.4041 113.078H18.1641V114.468H58.4041V113.078Z" fill="white"/>
<path d="M58.4041 114.469H18.1641V115.859H58.4041V114.469Z" fill="#01062F"/>
<path d="M14.6048 113.078H13.2148V114.468H14.6048V113.078Z" fill="#4229FF"/>
<path d="M10.6556 113.078H9.26562V114.468H10.6556V113.078Z" fill="#4229FF"/>
<path d="M5.88469 113.078H0.304688V114.468H5.88469V113.078Z" fill="#4229FF"/>
<path d="M317.853 156.797H277.613V158.187H317.853V156.797Z" fill="white"/>
<path d="M317.853 158.188H277.613V159.577H317.853V158.188Z" fill="#01062F"/>
<path d="M274.042 156.797H272.652V158.187H274.042V156.797Z" fill="#4229FF"/>
<path d="M270.093 156.797H268.703V158.187H270.093V156.797Z" fill="#4229FF"/>
<path d="M95.5061 211.086H135.746V209.696H95.5061V211.086Z" fill="white"/>
<path d="M95.5061 212.477H135.746V211.087H95.5061V212.477Z" fill="#01062F"/>
<path d="M139.305 211.086H140.695V209.696H139.305V211.086Z" fill="#4229FF"/>
<path d="M143.258 211.086H144.648V209.696H143.258V211.086Z" fill="#4229FF"/>
<path d="M148.025 211.086H153.605V209.696H148.025V211.086Z" fill="#4229FF"/>
<path d="M222.373 79.9141H262.613V78.5241H222.373V79.9141Z" fill="white"/>
<path d="M368.522 114.461H408.762V113.071H368.522V114.461Z" fill="white"/>
<path d="M376.135 177.5H416.375V176.11H376.135V177.5Z" fill="white"/>
<path d="M141.467 198.25H181.707V196.86H141.467V198.25Z" fill="white"/>
<path d="M269.008 120.789H267.258V122.539H269.008V120.789Z" fill="#4229FF"/>
<path d="M274.312 120.789H272.562V122.539H274.312V120.789Z" fill="#4229FF"/>
<path d="M338.965 75.1875H337.215V76.9375H338.965V75.1875Z" fill="#4229FF"/>
<path d="M413.836 112.898H412.086V114.648H413.836V112.898Z" fill="white"/>
<path d="M418.965 112.898H417.215V114.648H418.965V112.898Z" fill="white"/>
<path d="M344.285 75.1875H342.535V76.9375H344.285V75.1875Z" fill="#4229FF"/>
</g>
<g clip-path="url(#clip2_355_14895)">
<path d="M72.8281 290.978V266.238H81.1981C83.1381 266.238 84.7181 266.588 85.9581 267.288C87.1881 267.988 88.1081 268.928 88.7081 270.108C89.3081 271.288 89.6081 272.618 89.6081 274.078C89.6081 275.528 89.3081 276.848 88.7181 278.048C88.1281 279.248 87.2081 280.188 85.9781 280.898C84.7481 281.598 83.1681 281.948 81.2381 281.948H75.2481V279.288H81.1281C82.4581 279.288 83.5281 279.058 84.3281 278.608C85.1381 278.158 85.7181 277.528 86.0881 276.738C86.4581 275.948 86.6381 275.058 86.6381 274.078C86.6381 273.078 86.4581 272.198 86.0881 271.418C85.7181 270.638 85.1381 270.028 84.3181 269.578C83.5081 269.128 82.4281 268.908 81.0881 268.908H75.8181V290.988H72.8281V290.978Z" fill="#4229FF"/>
<path d="M91.3375 290.978H88.1875L97.2875 266.238H100.377L109.438 290.978H106.318L98.9175 270.158H98.7175L91.3375 290.978ZM92.4975 281.318H105.147V283.978H92.4975V281.318Z" fill="#4229FF"/>
<path d="M120.608 291.31C118.418 291.31 116.498 290.8 114.838 289.77C113.188 288.74 111.898 287.28 110.968 285.38C110.048 283.48 109.578 281.23 109.578 278.63C109.578 276.02 110.038 273.76 110.968 271.86C111.888 269.96 113.168 268.49 114.798 267.46C116.428 266.43 118.298 265.91 120.408 265.91C121.718 265.91 122.928 266.1 124.058 266.49C125.188 266.88 126.198 267.43 127.078 268.15C127.968 268.87 128.698 269.72 129.298 270.71C129.888 271.7 130.298 272.79 130.538 273.98H127.448C127.178 273.16 126.838 272.43 126.408 271.78C125.978 271.13 125.468 270.58 124.868 270.12C124.268 269.66 123.598 269.31 122.858 269.07C122.118 268.83 121.298 268.7 120.398 268.7C118.938 268.7 117.608 269.08 116.408 269.84C115.208 270.6 114.248 271.72 113.538 273.19C112.828 274.67 112.468 276.48 112.468 278.63C112.468 280.77 112.828 282.57 113.548 284.04C114.268 285.51 115.238 286.63 116.468 287.39C117.698 288.15 119.078 288.53 120.598 288.53C122.018 288.53 123.258 288.23 124.338 287.62C125.408 287.01 126.248 286.15 126.858 285.04C127.468 283.93 127.768 282.61 127.768 281.1L128.698 281.3H121.258V278.64H130.688V281.3C130.688 283.34 130.258 285.1 129.398 286.6C128.538 288.1 127.338 289.26 125.818 290.09C124.308 290.9 122.568 291.31 120.608 291.31Z" fill="#4229FF"/>
<path d="M134.219 290.978V266.238H149.159V268.898H137.209V277.168H148.369V279.828H137.209V288.328H149.329V290.988H134.219V290.978Z" fill="#4229FF"/>
<path d="M180.566 266.238V290.978H177.606L164.166 271.548H163.896V290.968H160.906V266.238H163.796L177.346 285.698H177.576V266.238H180.566Z" fill="#4229FF"/>
<path d="M194.928 291.31C192.828 291.31 190.948 290.8 189.298 289.77C187.648 288.74 186.348 287.28 185.408 285.38C184.458 283.48 183.988 281.23 183.988 278.63C183.988 276.02 184.458 273.76 185.408 271.86C186.358 269.96 187.648 268.49 189.298 267.46C190.958 266.42 192.828 265.91 194.928 265.91C197.038 265.91 198.918 266.42 200.558 267.45C202.198 268.48 203.488 269.95 204.428 271.85C205.368 273.75 205.838 276.01 205.838 278.62C205.838 281.22 205.368 283.47 204.428 285.37C203.488 287.27 202.198 288.73 200.558 289.76C198.928 290.8 197.048 291.31 194.928 291.31ZM194.928 288.52C196.418 288.52 197.778 288.14 198.988 287.38C200.198 286.62 201.158 285.51 201.878 284.03C202.588 282.56 202.948 280.75 202.948 278.62C202.948 276.47 202.588 274.66 201.878 273.18C201.168 271.7 200.198 270.59 198.988 269.83C197.778 269.07 196.428 268.69 194.928 268.69C193.428 268.69 192.078 269.07 190.858 269.83C189.638 270.59 188.668 271.71 187.948 273.18C187.228 274.66 186.868 276.47 186.868 278.62C186.868 280.76 187.228 282.56 187.948 284.03C188.668 285.5 189.638 286.62 190.858 287.38C192.088 288.14 193.438 288.52 194.928 288.52Z" fill="#4229FF"/>
<path d="M206.891 268.898V266.238H225.451V268.898H217.681V290.978H214.691V268.898H206.891Z" fill="#4229FF"/>
<path d="M236.438 290.978V266.238H251.277V268.898H239.428V277.528H250.148V280.188H239.428V290.978H236.438Z" fill="#4229FF"/>
<path d="M264.78 291.31C262.68 291.31 260.8 290.8 259.15 289.77C257.5 288.74 256.2 287.28 255.26 285.38C254.31 283.48 253.84 281.23 253.84 278.63C253.84 276.02 254.31 273.76 255.26 271.86C256.21 269.96 257.5 268.49 259.15 267.46C260.8 266.43 262.67 265.91 264.78 265.91C266.89 265.91 268.77 266.42 270.41 267.45C272.05 268.48 273.34 269.95 274.28 271.85C275.22 273.75 275.69 276.01 275.69 278.62C275.69 281.22 275.22 283.47 274.28 285.37C273.34 287.27 272.05 288.73 270.41 289.76C268.77 290.79 266.89 291.31 264.78 291.31ZM264.78 288.52C266.27 288.52 267.63 288.14 268.84 287.38C270.05 286.62 271.01 285.51 271.73 284.03C272.44 282.56 272.8 280.75 272.8 278.62C272.8 276.47 272.44 274.66 271.73 273.18C271.02 271.7 270.05 270.59 268.84 269.83C267.63 269.07 266.27 268.69 264.78 268.69C263.29 268.69 261.93 269.07 260.71 269.83C259.49 270.59 258.52 271.71 257.8 273.18C257.08 274.66 256.72 276.47 256.72 278.62C256.72 280.76 257.08 282.56 257.8 284.03C258.52 285.5 259.49 286.62 260.71 287.38C261.93 288.14 263.28 288.52 264.78 288.52Z" fill="#4229FF"/>
<path d="M295.339 266.238H298.329V282.608C298.329 284.298 297.929 285.808 297.139 287.128C296.349 288.448 295.229 289.498 293.799 290.258C292.369 291.018 290.669 291.408 288.739 291.408C286.809 291.408 285.109 291.028 283.669 290.258C282.229 289.498 281.109 288.448 280.309 287.128C279.509 285.808 279.109 284.298 279.109 282.608V266.238H282.099V282.378C282.099 283.588 282.369 284.658 282.899 285.598C283.429 286.538 284.189 287.278 285.189 287.818C286.189 288.358 287.369 288.618 288.739 288.618C290.109 288.618 291.289 288.348 292.279 287.818C293.269 287.278 294.019 286.538 294.549 285.598C295.079 284.658 295.349 283.588 295.349 282.378V266.238H295.339Z" fill="#4229FF"/>
<path d="M322.371 266.238V290.978H319.411L305.971 271.548H305.701V290.968H302.711V266.238H305.601L319.151 285.698H319.381V266.238H322.371Z" fill="#4229FF"/>
<path d="M329.74 266.238V290.978H326.75V266.238H329.74ZM334.39 290.978H328.45V288.318H334.19C336.24 288.318 337.93 287.928 339.28 287.138C340.63 286.348 341.63 285.228 342.29 283.768C342.95 282.308 343.29 280.568 343.29 278.558C343.29 276.568 342.96 274.848 342.31 273.408C341.66 271.958 340.68 270.848 339.38 270.068C338.08 269.288 336.46 268.898 334.52 268.898H328.31V266.238H334.72C337.12 266.238 339.18 266.728 340.89 267.718C342.6 268.708 343.91 270.118 344.82 271.958C345.73 273.798 346.18 275.998 346.18 278.558C346.18 281.138 345.72 283.348 344.8 285.208C343.88 287.058 342.55 288.488 340.79 289.488C339.03 290.478 336.9 290.978 334.39 290.978Z" fill="#4229FF"/>
<path d="M74.8281 290.978V266.238H83.1981C85.1381 266.238 86.7181 266.588 87.9581 267.288C89.1881 267.988 90.1081 268.928 90.7081 270.108C91.3081 271.288 91.6081 272.618 91.6081 274.078C91.6081 275.528 91.3081 276.848 90.7181 278.048C90.1281 279.248 89.2081 280.188 87.9781 280.898C86.7481 281.598 85.1681 281.948 83.2381 281.948H77.2481V279.288H83.1281C84.4581 279.288 85.5281 279.058 86.3281 278.608C87.1381 278.158 87.7181 277.528 88.0881 276.738C88.4581 275.948 88.6381 275.058 88.6381 274.078C88.6381 273.078 88.4581 272.198 88.0881 271.418C87.7181 270.638 87.1381 270.028 86.3181 269.578C85.5081 269.128 84.4281 268.908 83.0881 268.908H77.8181V290.988H74.8281V290.978Z" fill="#4229FF"/>
<path d="M93.3375 290.978H90.1875L99.2875 266.238H102.377L111.438 290.978H108.318L100.917 270.158H100.717L93.3375 290.978ZM94.4975 281.318H107.147V283.978H94.4975V281.318Z" fill="#4229FF"/>
<path d="M122.608 291.31C120.418 291.31 118.498 290.8 116.838 289.77C115.188 288.74 113.898 287.28 112.968 285.38C112.048 283.48 111.578 281.23 111.578 278.63C111.578 276.02 112.038 273.76 112.968 271.86C113.888 269.96 115.168 268.49 116.798 267.46C118.428 266.43 120.298 265.91 122.408 265.91C123.718 265.91 124.928 266.1 126.058 266.49C127.188 266.88 128.198 267.43 129.078 268.15C129.968 268.87 130.698 269.72 131.298 270.71C131.888 271.7 132.298 272.79 132.538 273.98H129.448C129.178 273.16 128.838 272.43 128.408 271.78C127.978 271.13 127.468 270.58 126.868 270.12C126.268 269.66 125.598 269.31 124.858 269.07C124.118 268.83 123.298 268.7 122.398 268.7C120.938 268.7 119.608 269.08 118.408 269.84C117.208 270.6 116.248 271.72 115.538 273.19C114.828 274.67 114.468 276.48 114.468 278.63C114.468 280.77 114.828 282.57 115.548 284.04C116.268 285.51 117.238 286.63 118.468 287.39C119.698 288.15 121.078 288.53 122.598 288.53C124.018 288.53 125.258 288.23 126.338 287.62C127.408 287.01 128.248 286.15 128.858 285.04C129.468 283.93 129.768 282.61 129.768 281.1L130.698 281.3H123.258V278.64H132.688V281.3C132.688 283.34 132.258 285.1 131.398 286.6C130.538 288.1 129.338 289.26 127.818 290.09C126.308 290.9 124.568 291.31 122.608 291.31Z" fill="#4229FF"/>
<path d="M136.219 290.978V266.238H151.159V268.898H139.209V277.168H150.369V279.828H139.209V288.328H151.329V290.988H136.219V290.978Z" fill="#4229FF"/>
<path d="M182.566 266.238V290.978H179.606L166.166 271.548H165.896V290.968H162.906V266.238H165.796L179.346 285.698H179.576V266.238H182.566Z" fill="#4229FF"/>
<path d="M196.928 291.31C194.828 291.31 192.948 290.8 191.298 289.77C189.648 288.74 188.348 287.28 187.408 285.38C186.458 283.48 185.988 281.23 185.988 278.63C185.988 276.02 186.458 273.76 187.408 271.86C188.358 269.96 189.648 268.49 191.298 267.46C192.958 266.42 194.828 265.91 196.928 265.91C199.038 265.91 200.918 266.42 202.558 267.45C204.198 268.48 205.488 269.95 206.428 271.85C207.368 273.75 207.838 276.01 207.838 278.62C207.838 281.22 207.368 283.47 206.428 285.37C205.488 287.27 204.198 288.73 202.558 289.76C200.928 290.8 199.048 291.31 196.928 291.31ZM196.928 288.52C198.418 288.52 199.778 288.14 200.988 287.38C202.198 286.62 203.158 285.51 203.878 284.03C204.588 282.56 204.948 280.75 204.948 278.62C204.948 276.47 204.588 274.66 203.878 273.18C203.168 271.7 202.198 270.59 200.988 269.83C199.778 269.07 198.428 268.69 196.928 268.69C195.428 268.69 194.078 269.07 192.858 269.83C191.638 270.59 190.668 271.71 189.948 273.18C189.228 274.66 188.868 276.47 188.868 278.62C188.868 280.76 189.228 282.56 189.948 284.03C190.668 285.5 191.638 286.62 192.858 287.38C194.088 288.14 195.438 288.52 196.928 288.52Z" fill="#4229FF"/>
<path d="M208.891 268.898V266.238H227.451V268.898H219.681V290.978H216.691V268.898H208.891Z" fill="#4229FF"/>
<path d="M238.438 290.978V266.238H253.277V268.898H241.428V277.528H252.148V280.188H241.428V290.978H238.438Z" fill="#4229FF"/>
<path d="M266.78 291.31C264.68 291.31 262.8 290.8 261.15 289.77C259.5 288.74 258.2 287.28 257.26 285.38C256.31 283.48 255.84 281.23 255.84 278.63C255.84 276.02 256.31 273.76 257.26 271.86C258.21 269.96 259.5 268.49 261.15 267.46C262.8 266.43 264.67 265.91 266.78 265.91C268.89 265.91 270.77 266.42 272.41 267.45C274.05 268.48 275.34 269.95 276.28 271.85C277.22 273.75 277.69 276.01 277.69 278.62C277.69 281.22 277.22 283.47 276.28 285.37C275.34 287.27 274.05 288.73 272.41 289.76C270.77 290.79 268.89 291.31 266.78 291.31ZM266.78 288.52C268.27 288.52 269.63 288.14 270.84 287.38C272.05 286.62 273.01 285.51 273.73 284.03C274.44 282.56 274.8 280.75 274.8 278.62C274.8 276.47 274.44 274.66 273.73 273.18C273.02 271.7 272.05 270.59 270.84 269.83C269.63 269.07 268.27 268.69 266.78 268.69C265.29 268.69 263.93 269.07 262.71 269.83C261.49 270.59 260.52 271.71 259.8 273.18C259.08 274.66 258.72 276.47 258.72 278.62C258.72 280.76 259.08 282.56 259.8 284.03C260.52 285.5 261.49 286.62 262.71 287.38C263.93 288.14 265.28 288.52 266.78 288.52Z" fill="#4229FF"/>
<path d="M297.339 266.238H300.329V282.608C300.329 284.298 299.929 285.808 299.139 287.128C298.349 288.448 297.229 289.498 295.799 290.258C294.369 291.018 292.669 291.408 290.739 291.408C288.809 291.408 287.109 291.028 285.669 290.258C284.229 289.498 283.109 288.448 282.309 287.128C281.509 285.808 281.109 284.298 281.109 282.608V266.238H284.099V282.378C284.099 283.588 284.369 284.658 284.899 285.598C285.429 286.538 286.189 287.278 287.189 287.818C288.189 288.358 289.369 288.618 290.739 288.618C292.109 288.618 293.289 288.348 294.279 287.818C295.269 287.278 296.019 286.538 296.549 285.598C297.079 284.658 297.349 283.588 297.349 282.378V266.238H297.339Z" fill="#4229FF"/>
<path d="M324.371 266.238V290.978H321.411L307.971 271.548H307.701V290.968H304.711V266.238H307.601L321.151 285.698H321.381V266.238H324.371Z" fill="#4229FF"/>
<path d="M331.74 266.238V290.978H328.75V266.238H331.74ZM336.39 290.978H330.45V288.318H336.19C338.24 288.318 339.93 287.928 341.28 287.138C342.63 286.348 343.63 285.228 344.29 283.768C344.95 282.308 345.29 280.568 345.29 278.558C345.29 276.568 344.96 274.848 344.31 273.408C343.66 271.958 342.68 270.848 341.38 270.068C340.08 269.288 338.46 268.898 336.52 268.898H330.31V266.238H336.72C339.12 266.238 341.18 266.728 342.89 267.718C344.6 268.708 345.91 270.118 346.82 271.958C347.73 273.798 348.18 275.998 348.18 278.558C348.18 281.138 347.72 283.348 346.8 285.208C345.88 287.058 344.55 288.488 342.79 289.488C341.03 290.478 338.9 290.978 336.39 290.978Z" fill="#4229FF"/>
<path d="M70.8281 290.978V266.238H79.1981C81.1381 266.238 82.7181 266.588 83.9581 267.288C85.1881 267.988 86.1081 268.928 86.7081 270.108C87.3081 271.288 87.6081 272.618 87.6081 274.078C87.6081 275.528 87.3081 276.848 86.7181 278.048C86.1281 279.248 85.2081 280.188 83.9781 280.898C82.7481 281.598 81.1681 281.948 79.2381 281.948H73.2481V279.288H79.1281C80.4581 279.288 81.5281 279.058 82.3281 278.608C83.1381 278.158 83.7181 277.528 84.0881 276.738C84.4581 275.948 84.6381 275.058 84.6381 274.078C84.6381 273.078 84.4581 272.198 84.0881 271.418C83.7181 270.638 83.1381 270.028 82.3181 269.578C81.5081 269.128 80.4281 268.908 79.0881 268.908H73.8181V290.988H70.8281V290.978Z" fill="#4229FF"/>
<path d="M89.3375 290.978H86.1875L95.2875 266.238H98.3775L107.438 290.978H104.318L96.9175 270.158H96.7175L89.3375 290.978ZM90.4975 281.318H103.147V283.978H90.4975V281.318Z" fill="#4229FF"/>
<path d="M118.608 291.31C116.418 291.31 114.498 290.8 112.838 289.77C111.188 288.74 109.898 287.28 108.968 285.38C108.048 283.48 107.578 281.23 107.578 278.63C107.578 276.02 108.038 273.76 108.968 271.86C109.888 269.96 111.168 268.49 112.798 267.46C114.428 266.43 116.298 265.91 118.408 265.91C119.718 265.91 120.928 266.1 122.058 266.49C123.188 266.88 124.198 267.43 125.078 268.15C125.968 268.87 126.698 269.72 127.298 270.71C127.888 271.7 128.298 272.79 128.538 273.98H125.448C125.178 273.16 124.838 272.43 124.408 271.78C123.978 271.13 123.468 270.58 122.868 270.12C122.268 269.66 121.598 269.31 120.858 269.07C120.118 268.83 119.298 268.7 118.398 268.7C116.938 268.7 115.608 269.08 114.408 269.84C113.208 270.6 112.248 271.72 111.538 273.19C110.828 274.67 110.468 276.48 110.468 278.63C110.468 280.77 110.828 282.57 111.548 284.04C112.268 285.51 113.238 286.63 114.468 287.39C115.698 288.15 117.078 288.53 118.598 288.53C120.018 288.53 121.258 288.23 122.338 287.62C123.408 287.01 124.248 286.15 124.858 285.04C125.468 283.93 125.768 282.61 125.768 281.1L126.698 281.3H119.258V278.64H128.688V281.3C128.688 283.34 128.258 285.1 127.398 286.6C126.538 288.1 125.338 289.26 123.818 290.09C122.308 290.9 120.568 291.31 118.608 291.31Z" fill="#4229FF"/>
<path d="M132.219 290.978V266.238H147.159V268.898H135.209V277.168H146.369V279.828H135.209V288.328H147.329V290.988H132.219V290.978Z" fill="#4229FF"/>
<path d="M178.566 266.238V290.978H175.606L162.166 271.548H161.896V290.968H158.906V266.238H161.796L175.346 285.698H175.576V266.238H178.566Z" fill="#4229FF"/>
<path d="M192.928 291.31C190.828 291.31 188.948 290.8 187.298 289.77C185.648 288.74 184.348 287.28 183.408 285.38C182.458 283.48 181.988 281.23 181.988 278.63C181.988 276.02 182.458 273.76 183.408 271.86C184.358 269.96 185.648 268.49 187.298 267.46C188.958 266.42 190.828 265.91 192.928 265.91C195.038 265.91 196.918 266.42 198.558 267.45C200.198 268.48 201.488 269.95 202.428 271.85C203.368 273.75 203.838 276.01 203.838 278.62C203.838 281.22 203.368 283.47 202.428 285.37C201.488 287.27 200.198 288.73 198.558 289.76C196.928 290.8 195.048 291.31 192.928 291.31ZM192.928 288.52C194.418 288.52 195.778 288.14 196.988 287.38C198.198 286.62 199.158 285.51 199.878 284.03C200.588 282.56 200.948 280.75 200.948 278.62C200.948 276.47 200.588 274.66 199.878 273.18C199.168 271.7 198.198 270.59 196.988 269.83C195.778 269.07 194.428 268.69 192.928 268.69C191.428 268.69 190.078 269.07 188.858 269.83C187.638 270.59 186.668 271.71 185.948 273.18C185.228 274.66 184.868 276.47 184.868 278.62C184.868 280.76 185.228 282.56 185.948 284.03C186.668 285.5 187.638 286.62 188.858 287.38C190.088 288.14 191.438 288.52 192.928 288.52Z" fill="#4229FF"/>
<path d="M204.891 268.898V266.238H223.451V268.898H215.681V290.978H212.691V268.898H204.891Z" fill="#4229FF"/>
<path d="M234.438 290.978V266.238H249.277V268.898H237.428V277.528H248.148V280.188H237.428V290.978H234.438Z" fill="#4229FF"/>
<path d="M262.78 291.31C260.68 291.31 258.8 290.8 257.15 289.77C255.5 288.74 254.2 287.28 253.26 285.38C252.31 283.48 251.84 281.23 251.84 278.63C251.84 276.02 252.31 273.76 253.26 271.86C254.21 269.96 255.5 268.49 257.15 267.46C258.8 266.43 260.67 265.91 262.78 265.91C264.89 265.91 266.77 266.42 268.41 267.45C270.05 268.48 271.34 269.95 272.28 271.85C273.22 273.75 273.69 276.01 273.69 278.62C273.69 281.22 273.22 283.47 272.28 285.37C271.34 287.27 270.05 288.73 268.41 289.76C266.77 290.79 264.89 291.31 262.78 291.31ZM262.78 288.52C264.27 288.52 265.63 288.14 266.84 287.38C268.05 286.62 269.01 285.51 269.73 284.03C270.44 282.56 270.8 280.75 270.8 278.62C270.8 276.47 270.44 274.66 269.73 273.18C269.02 271.7 268.05 270.59 266.84 269.83C265.63 269.07 264.27 268.69 262.78 268.69C261.29 268.69 259.93 269.07 258.71 269.83C257.49 270.59 256.52 271.71 255.8 273.18C255.08 274.66 254.72 276.47 254.72 278.62C254.72 280.76 255.08 282.56 255.8 284.03C256.52 285.5 257.49 286.62 258.71 287.38C259.93 288.14 261.28 288.52 262.78 288.52Z" fill="#4229FF"/>
<path d="M293.339 266.238H296.329V282.608C296.329 284.298 295.929 285.808 295.139 287.128C294.349 288.448 293.229 289.498 291.799 290.258C290.369 291.018 288.669 291.408 286.739 291.408C284.809 291.408 283.109 291.028 281.669 290.258C280.229 289.498 279.109 288.448 278.309 287.128C277.509 285.808 277.109 284.298 277.109 282.608V266.238H280.099V282.378C280.099 283.588 280.369 284.658 280.899 285.598C281.429 286.538 282.189 287.278 283.189 287.818C284.189 288.358 285.369 288.618 286.739 288.618C288.109 288.618 289.289 288.348 290.279 287.818C291.269 287.278 292.019 286.538 292.549 285.598C293.079 284.658 293.349 283.588 293.349 282.378V266.238H293.339Z" fill="#4229FF"/>
<path d="M320.371 266.238V290.978H317.411L303.971 271.548H303.701V290.968H300.711V266.238H303.601L317.151 285.698H317.381V266.238H320.371Z" fill="#4229FF"/>
<path d="M327.74 266.238V290.978H324.75V266.238H327.74ZM332.39 290.978H326.45V288.318H332.19C334.24 288.318 335.93 287.928 337.28 287.138C338.63 286.348 339.63 285.228 340.29 283.768C340.95 282.308 341.29 280.568 341.29 278.558C341.29 276.568 340.96 274.848 340.31 273.408C339.66 271.958 338.68 270.848 337.38 270.068C336.08 269.288 334.46 268.898 332.52 268.898H326.31V266.238H332.72C335.12 266.238 337.18 266.728 338.89 267.718C340.6 268.708 341.91 270.118 342.82 271.958C343.73 273.798 344.18 275.998 344.18 278.558C344.18 281.138 343.72 283.348 342.8 285.208C341.88 287.058 340.55 288.488 338.79 289.488C337.03 290.478 334.9 290.978 332.39 290.978Z" fill="#4229FF"/>
<path d="M72.8281 290.978V266.238H81.1981C83.1381 266.238 84.7181 266.588 85.9581 267.288C87.1881 267.988 88.1081 268.928 88.7081 270.108C89.3081 271.288 89.6081 272.618 89.6081 274.078C89.6081 275.528 89.3081 276.848 88.7181 278.048C88.1281 279.248 87.2081 280.188 85.9781 280.898C84.7481 281.598 83.1681 281.948 81.2381 281.948H75.2481V279.288H81.1281C82.4581 279.288 83.5281 279.058 84.3281 278.608C85.1381 278.158 85.7181 277.528 86.0881 276.738C86.4581 275.948 86.6381 275.058 86.6381 274.078C86.6381 273.078 86.4581 272.198 86.0881 271.418C85.7181 270.638 85.1381 270.028 84.3181 269.578C83.5081 269.128 82.4281 268.908 81.0881 268.908H75.8181V290.988H72.8281V290.978Z" fill="white"/>
<path d="M91.3375 290.978H88.1875L97.2875 266.238H100.377L109.438 290.978H106.318L98.9175 270.158H98.7175L91.3375 290.978ZM92.4975 281.318H105.147V283.978H92.4975V281.318Z" fill="white"/>
<path d="M120.608 291.31C118.418 291.31 116.498 290.8 114.838 289.77C113.188 288.74 111.898 287.28 110.968 285.38C110.048 283.48 109.578 281.23 109.578 278.63C109.578 276.02 110.038 273.76 110.968 271.86C111.888 269.96 113.168 268.49 114.798 267.46C116.428 266.43 118.298 265.91 120.408 265.91C121.718 265.91 122.928 266.1 124.058 266.49C125.188 266.88 126.198 267.43 127.078 268.15C127.968 268.87 128.698 269.72 129.298 270.71C129.888 271.7 130.298 272.79 130.538 273.98H127.448C127.178 273.16 126.838 272.43 126.408 271.78C125.978 271.13 125.468 270.58 124.868 270.12C124.268 269.66 123.598 269.31 122.858 269.07C122.118 268.83 121.298 268.7 120.398 268.7C118.938 268.7 117.608 269.08 116.408 269.84C115.208 270.6 114.248 271.72 113.538 273.19C112.828 274.67 112.468 276.48 112.468 278.63C112.468 280.77 112.828 282.57 113.548 284.04C114.268 285.51 115.238 286.63 116.468 287.39C117.698 288.15 119.078 288.53 120.598 288.53C122.018 288.53 123.258 288.23 124.338 287.62C125.408 287.01 126.248 286.15 126.858 285.04C127.468 283.93 127.768 282.61 127.768 281.1L128.698 281.3H121.258V278.64H130.688V281.3C130.688 283.34 130.258 285.1 129.398 286.6C128.538 288.1 127.338 289.26 125.818 290.09C124.308 290.9 122.568 291.31 120.608 291.31Z" fill="white"/>
<path d="M134.219 290.978V266.238H149.159V268.898H137.209V277.168H148.369V279.828H137.209V288.328H149.329V290.988H134.219V290.978Z" fill="white"/>
<path d="M180.566 266.238V290.978H177.606L164.166 271.548H163.896V290.968H160.906V266.238H163.796L177.346 285.698H177.576V266.238H180.566Z" fill="white"/>
<path d="M194.928 291.31C192.828 291.31 190.948 290.8 189.298 289.77C187.648 288.74 186.348 287.28 185.408 285.38C184.458 283.48 183.988 281.23 183.988 278.63C183.988 276.02 184.458 273.76 185.408 271.86C186.358 269.96 187.648 268.49 189.298 267.46C190.958 266.42 192.828 265.91 194.928 265.91C197.038 265.91 198.918 266.42 200.558 267.45C202.198 268.48 203.488 269.95 204.428 271.85C205.368 273.75 205.838 276.01 205.838 278.62C205.838 281.22 205.368 283.47 204.428 285.37C203.488 287.27 202.198 288.73 200.558 289.76C198.928 290.8 197.048 291.31 194.928 291.31ZM194.928 288.52C196.418 288.52 197.778 288.14 198.988 287.38C200.198 286.62 201.158 285.51 201.878 284.03C202.588 282.56 202.948 280.75 202.948 278.62C202.948 276.47 202.588 274.66 201.878 273.18C201.168 271.7 200.198 270.59 198.988 269.83C197.778 269.07 196.428 268.69 194.928 268.69C193.428 268.69 192.078 269.07 190.858 269.83C189.638 270.59 188.668 271.71 187.948 273.18C187.228 274.66 186.868 276.47 186.868 278.62C186.868 280.76 187.228 282.56 187.948 284.03C188.668 285.5 189.638 286.62 190.858 287.38C192.088 288.14 193.438 288.52 194.928 288.52Z" fill="white"/>
<path d="M206.891 268.898V266.238H225.451V268.898H217.681V290.978H214.691V268.898H206.891Z" fill="white"/>
<path d="M236.438 290.978V266.238H251.277V268.898H239.428V277.528H250.148V280.188H239.428V290.978H236.438Z" fill="white"/>
<path d="M264.78 291.31C262.68 291.31 260.8 290.8 259.15 289.77C257.5 288.74 256.2 287.28 255.26 285.38C254.31 283.48 253.84 281.23 253.84 278.63C253.84 276.02 254.31 273.76 255.26 271.86C256.21 269.96 257.5 268.49 259.15 267.46C260.8 266.43 262.67 265.91 264.78 265.91C266.89 265.91 268.77 266.42 270.41 267.45C272.05 268.48 273.34 269.95 274.28 271.85C275.22 273.75 275.69 276.01 275.69 278.62C275.69 281.22 275.22 283.47 274.28 285.37C273.34 287.27 272.05 288.73 270.41 289.76C268.77 290.79 266.89 291.31 264.78 291.31ZM264.78 288.52C266.27 288.52 267.63 288.14 268.84 287.38C270.05 286.62 271.01 285.51 271.73 284.03C272.44 282.56 272.8 280.75 272.8 278.62C272.8 276.47 272.44 274.66 271.73 273.18C271.02 271.7 270.05 270.59 268.84 269.83C267.63 269.07 266.27 268.69 264.78 268.69C263.29 268.69 261.93 269.07 260.71 269.83C259.49 270.59 258.52 271.71 257.8 273.18C257.08 274.66 256.72 276.47 256.72 278.62C256.72 280.76 257.08 282.56 257.8 284.03C258.52 285.5 259.49 286.62 260.71 287.38C261.93 288.14 263.28 288.52 264.78 288.52Z" fill="white"/>
<path d="M295.339 266.238H298.329V282.608C298.329 284.298 297.929 285.808 297.139 287.128C296.349 288.448 295.229 289.498 293.799 290.258C292.369 291.018 290.669 291.408 288.739 291.408C286.809 291.408 285.109 291.028 283.669 290.258C282.229 289.498 281.109 288.448 280.309 287.128C279.509 285.808 279.109 284.298 279.109 282.608V266.238H282.099V282.378C282.099 283.588 282.369 284.658 282.899 285.598C283.429 286.538 284.189 287.278 285.189 287.818C286.189 288.358 287.369 288.618 288.739 288.618C290.109 288.618 291.289 288.348 292.279 287.818C293.269 287.278 294.019 286.538 294.549 285.598C295.079 284.658 295.349 283.588 295.349 282.378V266.238H295.339Z" fill="white"/>
<path d="M322.371 266.238V290.978H319.411L305.971 271.548H305.701V290.968H302.711V266.238H305.601L319.151 285.698H319.381V266.238H322.371Z" fill="white"/>
<path d="M329.74 266.238V290.978H326.75V266.238H329.74ZM334.39 290.978H328.45V288.318H334.19C336.24 288.318 337.93 287.928 339.28 287.138C340.63 286.348 341.63 285.228 342.29 283.768C342.95 282.308 343.29 280.568 343.29 278.558C343.29 276.568 342.96 274.848 342.31 273.408C341.66 271.958 340.68 270.848 339.38 270.068C338.08 269.288 336.46 268.898 334.52 268.898H328.31V266.238H334.72C337.12 266.238 339.18 266.728 340.89 267.718C342.6 268.708 343.91 270.118 344.82 271.958C345.73 273.798 346.18 275.998 346.18 278.558C346.18 281.138 345.72 283.348 344.8 285.208C343.88 287.058 342.55 288.488 340.79 289.488C339.03 290.478 336.9 290.978 334.39 290.978Z" fill="white"/>
</g>
<defs>
<clipPath id="clip0_355_14895">
<rect width="328.95" height="20.93" fill="white" transform="translate(45.0234)"/>
</clipPath>
<clipPath id="clip1_355_14895">
<rect width="418.93" height="148.98" fill="white" transform="translate(0.0351562 68.9297)"/>
</clipPath>
<clipPath id="clip2_355_14895">
<rect width="277.34" height="25.5" fill="white" transform="translate(70.8281 265.91)"/>
</clipPath>
</defs>
</svg>
