<svg width="209" height="255" viewBox="0 0 209 255" fill="none" xmlns="http://www.w3.org/2000/svg">
<rect width="209" height="255" rx="16" fill="#14152E"/>
<rect x="0.5" y="0.5" width="208" height="254" rx="15.5" stroke="url(#paint0_linear_44_1229)" stroke-opacity="0.05"/>
<line x1="27" y1="178" x2="103" y2="178" stroke="#5542F9" stroke-width="2"/>
<line x1="27.1305" y1="168.009" x2="103.13" y2="178.009" stroke="#5542F9" stroke-width="2"/>
<line x1="27.1305" y1="168.009" x2="103.13" y2="178.009" stroke="#5542F9" stroke-width="2"/>
<line x1="30.2032" y1="158.239" x2="103.314" y2="177.829" stroke="#5542F9" stroke-width="2"/>
<line x1="33.3827" y1="149.076" x2="103.311" y2="178.041" stroke="#5542F9" stroke-width="2"/>
<line x1="37.5" y1="140.134" x2="103.05" y2="177.979" stroke="#5542F9" stroke-width="2"/>
<line x1="43.6088" y1="132.207" x2="103.658" y2="178.284" stroke="#5542F9" stroke-width="2"/>
<line x1="49.7071" y1="124.293" x2="103.228" y2="177.814" stroke="#5542F9" stroke-width="2"/>
<line x1="57.7934" y1="118.391" x2="103.871" y2="178.44" stroke="#5542F9" stroke-width="2"/>
<line x1="65.866" y1="112.5" x2="103.711" y2="178.05" stroke="#5542F9" stroke-width="2"/>
<line x1="74.9239" y1="108.617" x2="103.889" y2="178.546" stroke="#5542F9" stroke-width="2"/>
<line x1="83.9659" y1="105.741" x2="103.556" y2="178.852" stroke="#5542F9" stroke-width="2"/>
<line x1="93.9914" y1="103.869" x2="103.871" y2="178.912" stroke="#5542F9" stroke-width="2"/>
<line x1="104" y1="103" x2="104" y2="178.69" stroke="#5542F9" stroke-width="2"/>
<line y1="-1" x2="76" y2="-1" transform="matrix(-1 8.74228e-08 8.74228e-08 1 181.077 179)" stroke="#2A2B42" stroke-width="2"/>
<line y1="-1" x2="76.6551" y2="-1" transform="matrix(-0.991454 0.130454 0.130454 0.991454 181.077 169)" stroke="#5542F9" stroke-width="2"/>
<line y1="-1" x2="76.6551" y2="-1" transform="matrix(-0.991454 0.130454 0.130454 0.991454 181.077 169)" stroke="#2A2B42" stroke-width="2"/>
<line y1="-1" x2="75.6902" y2="-1" transform="matrix(-0.965926 0.258819 0.258819 0.965926 178.133 159.205)" stroke="#2A2B42" stroke-width="2"/>
<line y1="-1" x2="75.6902" y2="-1" transform="matrix(-0.92388 0.382683 0.382683 0.92388 175.077 150)" stroke="#2A2B42" stroke-width="2"/>
<line y1="-1" x2="75.6902" y2="-1" transform="matrix(-0.866025 0.5 0.5 0.866025 171.077 141)" stroke="#2A2B42" stroke-width="2"/>
<line y1="-1" x2="75.6902" y2="-1" transform="matrix(-0.793353 0.608761 0.608761 0.793353 165.077 133)" stroke="#5542F9" stroke-opacity="0.6" stroke-width="2"/>
<line y1="-1" x2="75.6902" y2="-1" transform="matrix(-0.707107 0.707107 0.707107 0.707107 159.077 125)" stroke="#5542F9" stroke-opacity="0.65" stroke-width="2"/>
<line y1="-1" x2="75.6902" y2="-1" transform="matrix(-0.608761 0.793353 0.793353 0.608761 151.077 119)" stroke="#5542F9" stroke-opacity="0.7" stroke-width="2"/>
<line y1="-1" x2="75.6902" y2="-1" transform="matrix(-0.5 0.866025 0.866025 0.5 143.077 113)" stroke="#5542F9" stroke-opacity="0.75" stroke-width="2"/>
<line y1="-1" x2="75.6902" y2="-1" transform="matrix(-0.382683 0.92388 0.92388 0.382683 134.077 109)" stroke="#5542F9" stroke-opacity="0.8" stroke-width="2"/>
<line y1="-1" x2="75.6902" y2="-1" transform="matrix(-0.258819 0.965926 0.965926 0.258819 125.077 106)" stroke="#5542F9" stroke-opacity="0.85" stroke-width="2"/>
<line y1="-1" x2="75.6902" y2="-1" transform="matrix(-0.130526 0.991445 0.991445 0.130526 115.077 104)" stroke="#5542F9" stroke-opacity="0.9" stroke-width="2"/>
<line y1="-1" x2="75.6902" y2="-1" transform="matrix(0 1 1 0 105.077 103)" stroke="#5542F9" stroke-opacity="0.95" stroke-width="2"/>
<path d="M162 179C162 171.252 160.474 163.58 157.509 156.422C154.544 149.263 150.198 142.759 144.719 137.281C139.241 131.802 132.737 127.456 125.578 124.491C118.42 121.526 110.748 120 103 120C95.252 120 87.5799 121.526 80.4217 124.491C73.2635 127.456 66.7594 131.802 61.2807 137.281C55.802 142.759 51.4561 149.263 48.4911 156.422C45.5261 163.58 44 171.252 44 179L103 179H162Z" fill="#14152E"/>
<path d="M146.028 148.853L144.247 151.977C144.047 152.328 143.52 152.241 143.442 151.846L143.203 150.637C143.16 150.421 143.027 150.235 142.838 150.124L141.747 149.483C141.401 149.279 141.491 148.757 141.883 148.679L145.401 147.984C145.897 147.886 146.275 148.414 146.028 148.853Z" fill="white"/>
<path d="M153 180C153 173.434 151.707 166.932 149.194 160.866C146.681 154.8 142.998 149.288 138.355 144.645C133.712 140.002 128.2 136.319 122.134 133.806C116.068 131.293 109.566 130 103 130C96.4339 130 89.9321 131.293 83.8658 133.806C77.7995 136.319 72.2876 140.002 67.6447 144.645C63.0017 149.288 59.3188 154.8 56.806 160.866C54.2933 166.932 53 173.434 53 180H53.9934C53.9934 173.564 55.2609 167.192 57.7238 161.246C60.1866 155.3 63.7964 149.898 68.3471 145.347C72.8978 140.796 78.3002 137.187 84.246 134.724C90.1917 132.261 96.5644 130.993 103 130.993C109.436 130.993 115.808 132.261 121.754 134.724C127.7 137.187 133.102 140.796 137.653 145.347C142.204 149.898 145.813 155.3 148.276 161.246C150.739 167.192 152.007 173.564 152.007 180H153Z" fill="#2A2B42"/>
<path d="M144.39 151.948C138.387 143.092 129.703 136.395 119.612 132.84C109.521 129.286 98.5554 129.062 88.3277 132.201C78.1 135.341 69.1489 141.678 62.79 150.282C56.4311 158.886 52.9997 169.303 53 180.001L53.9934 180.001C53.9931 169.515 57.3563 159.305 63.5889 150.872C69.8215 142.439 78.5947 136.228 88.6192 133.151C98.6437 130.074 109.391 130.293 119.282 133.777C129.172 137.261 137.684 143.825 143.567 152.506L144.39 151.948Z" fill="#5542F9"/>
<path d="M86.3409 179.318C84.6515 179.318 83.1515 179.034 81.8409 178.466C80.5379 177.898 79.5152 177.121 78.7727 176.136C78.0379 175.144 77.6742 174.019 77.6818 172.761C77.6742 171.784 77.8864 170.886 78.3182 170.068C78.75 169.25 79.3333 168.568 80.0682 168.023C80.8106 167.47 81.6364 167.117 82.5455 166.966V166.807C81.3485 166.542 80.3788 165.932 79.6364 164.977C78.9015 164.015 78.5379 162.905 78.5455 161.648C78.5379 160.451 78.8712 159.383 79.5455 158.443C80.2197 157.504 81.1439 156.765 82.3182 156.227C83.4924 155.682 84.8333 155.409 86.3409 155.409C87.8333 155.409 89.1629 155.682 90.3295 156.227C91.5038 156.765 92.428 157.504 93.1023 158.443C93.7841 159.383 94.125 160.451 94.125 161.648C94.125 162.905 93.75 164.015 93 164.977C92.2576 165.932 91.2992 166.542 90.125 166.807V166.966C91.0341 167.117 91.8523 167.47 92.5795 168.023C93.3144 168.568 93.8977 169.25 94.3295 170.068C94.7689 170.886 94.9886 171.784 94.9886 172.761C94.9886 174.019 94.6174 175.144 93.875 176.136C93.1326 177.121 92.1098 177.898 90.8068 178.466C89.5114 179.034 88.0227 179.318 86.3409 179.318ZM86.3409 176.068C87.2121 176.068 87.9697 175.92 88.6136 175.625C89.2576 175.322 89.7576 174.898 90.1136 174.352C90.4697 173.807 90.6515 173.178 90.6591 172.466C90.6515 171.723 90.4583 171.068 90.0795 170.5C89.7083 169.924 89.197 169.473 88.5455 169.148C87.9015 168.822 87.1667 168.659 86.3409 168.659C85.5076 168.659 84.7652 168.822 84.1136 169.148C83.4621 169.473 82.947 169.924 82.5682 170.5C82.197 171.068 82.0152 171.723 82.0227 172.466C82.0152 173.178 82.1894 173.807 82.5455 174.352C82.9015 174.89 83.4015 175.311 84.0455 175.614C84.697 175.917 85.4621 176.068 86.3409 176.068ZM86.3409 165.466C87.053 165.466 87.6818 165.322 88.2273 165.034C88.7803 164.746 89.2159 164.345 89.5341 163.83C89.8523 163.314 90.0152 162.72 90.0227 162.045C90.0152 161.379 89.8561 160.795 89.5455 160.295C89.2348 159.788 88.803 159.398 88.25 159.125C87.697 158.845 87.0606 158.705 86.3409 158.705C85.6061 158.705 84.9583 158.845 84.3977 159.125C83.8447 159.398 83.4129 159.788 83.1023 160.295C82.7992 160.795 82.6515 161.379 82.6591 162.045C82.6515 162.72 82.803 163.314 83.1136 163.83C83.4318 164.337 83.8674 164.739 84.4205 165.034C84.9811 165.322 85.6212 165.466 86.3409 165.466ZM107.247 179.318C106.134 179.311 105.046 179.117 103.986 178.739C102.925 178.352 101.971 177.727 101.122 176.864C100.274 175.992 99.5994 174.837 99.0994 173.398C98.5994 171.951 98.3532 170.159 98.3608 168.023C98.3608 166.03 98.5729 164.254 98.9972 162.693C99.4214 161.133 100.031 159.814 100.827 158.739C101.622 157.655 102.58 156.83 103.702 156.261C104.83 155.693 106.092 155.409 107.486 155.409C108.948 155.409 110.243 155.697 111.372 156.273C112.509 156.848 113.425 157.636 114.122 158.636C114.819 159.629 115.251 160.75 115.418 162H111.27C111.058 161.106 110.622 160.394 109.963 159.864C109.312 159.326 108.486 159.057 107.486 159.057C105.872 159.057 104.63 159.758 103.759 161.159C102.895 162.561 102.459 164.485 102.452 166.932H102.611C102.982 166.265 103.463 165.693 104.054 165.216C104.645 164.739 105.312 164.371 106.054 164.114C106.804 163.848 107.596 163.716 108.429 163.716C109.793 163.716 111.016 164.042 112.099 164.693C113.19 165.345 114.054 166.242 114.69 167.386C115.327 168.523 115.641 169.826 115.634 171.295C115.641 172.826 115.293 174.201 114.588 175.42C113.884 176.633 112.902 177.587 111.645 178.284C110.387 178.981 108.921 179.326 107.247 179.318ZM107.224 175.909C108.05 175.909 108.789 175.708 109.44 175.307C110.092 174.905 110.607 174.364 110.986 173.682C111.365 173 111.55 172.235 111.543 171.386C111.55 170.553 111.368 169.799 110.997 169.125C110.634 168.451 110.13 167.917 109.486 167.523C108.842 167.129 108.107 166.932 107.281 166.932C106.668 166.932 106.096 167.049 105.565 167.284C105.035 167.519 104.573 167.845 104.179 168.261C103.785 168.67 103.474 169.148 103.247 169.693C103.027 170.231 102.914 170.807 102.906 171.42C102.914 172.231 103.103 172.977 103.474 173.659C103.846 174.341 104.357 174.886 105.009 175.295C105.66 175.705 106.399 175.909 107.224 175.909ZM124.662 176.818V176.205C124.662 175.754 124.757 175.339 124.946 174.96C125.139 174.581 125.42 174.277 125.787 174.045C126.154 173.814 126.599 173.699 127.122 173.699C127.66 173.699 128.111 173.814 128.474 174.045C128.838 174.273 129.113 174.576 129.298 174.955C129.488 175.333 129.582 175.75 129.582 176.205V176.818C129.582 177.269 129.488 177.684 129.298 178.062C129.109 178.441 128.83 178.746 128.463 178.977C128.099 179.208 127.652 179.324 127.122 179.324C126.592 179.324 126.143 179.208 125.776 178.977C125.408 178.746 125.13 178.441 124.94 178.062C124.755 177.684 124.662 177.269 124.662 176.818ZM126.145 176.205V176.818C126.145 177.117 126.217 177.392 126.361 177.642C126.505 177.892 126.759 178.017 127.122 178.017C127.49 178.017 127.741 177.894 127.878 177.648C128.018 177.398 128.088 177.121 128.088 176.818V176.205C128.088 175.902 128.022 175.625 127.889 175.375C127.757 175.121 127.501 174.994 127.122 174.994C126.766 174.994 126.514 175.121 126.366 175.375C126.219 175.625 126.145 175.902 126.145 176.205ZM118.747 170.159V169.545C118.747 169.091 118.844 168.674 119.037 168.295C119.23 167.917 119.51 167.614 119.878 167.386C120.245 167.155 120.69 167.04 121.213 167.04C121.747 167.04 122.196 167.155 122.56 167.386C122.927 167.614 123.204 167.917 123.389 168.295C123.575 168.674 123.668 169.091 123.668 169.545V170.159C123.668 170.614 123.573 171.03 123.384 171.409C123.198 171.784 122.921 172.085 122.554 172.312C122.187 172.54 121.74 172.653 121.213 172.653C120.679 172.653 120.228 172.54 119.861 172.312C119.497 172.085 119.221 171.782 119.031 171.403C118.842 171.025 118.747 170.61 118.747 170.159ZM120.241 169.545V170.159C120.241 170.462 120.312 170.739 120.452 170.989C120.596 171.235 120.849 171.358 121.213 171.358C121.577 171.358 121.827 171.235 121.963 170.989C122.103 170.739 122.173 170.462 122.173 170.159V169.545C122.173 169.242 122.107 168.966 121.974 168.716C121.842 168.462 121.588 168.335 121.213 168.335C120.853 168.335 120.601 168.462 120.457 168.716C120.313 168.97 120.241 169.246 120.241 169.545ZM119.395 179L127.395 167.364H128.815L120.815 179H119.395Z" fill="white"/>
<rect x="16.5" y="207.5" width="176" height="31" rx="15.5" stroke="white" stroke-opacity="0.25"/>
<path d="M77.9473 219.725L80.1055 225.848H80.1934L82.3516 219.725H83.2695L80.6035 227H79.6953L77.0195 219.725H77.9473ZM84.0262 227V221.541H84.8562V227H84.0262ZM84.4461 220.633C84.2833 220.633 84.1434 220.577 84.0262 220.467C83.909 220.356 83.8504 220.223 83.8504 220.066C83.8504 219.91 83.909 219.777 84.0262 219.666C84.1434 219.555 84.2833 219.5 84.4461 219.5C84.6089 219.5 84.7488 219.555 84.866 219.666C84.9832 219.777 85.0418 219.91 85.0418 220.066C85.0418 220.223 84.9832 220.356 84.866 220.467C84.7488 220.577 84.6089 220.633 84.4461 220.633ZM88.4156 227.117C87.8915 227.117 87.4374 227 87.0533 226.766C86.6725 226.531 86.3795 226.204 86.1744 225.784C85.9693 225.361 85.8668 224.871 85.8668 224.314C85.8668 223.755 85.9677 223.261 86.1695 222.835C86.3714 222.409 86.6546 222.075 87.0191 221.834C87.387 221.593 87.8167 221.473 88.3082 221.473C88.5914 221.473 88.873 221.52 89.1529 221.614C89.4329 221.709 89.6868 221.862 89.9146 222.073C90.1458 222.285 90.3297 222.565 90.4664 222.913C90.6031 223.261 90.6715 223.689 90.6715 224.197V224.559H86.4625V223.836H90.2174L89.8316 224.109C89.8316 223.745 89.7747 223.421 89.6607 223.138C89.5468 222.854 89.3759 222.632 89.148 222.469C88.9234 222.306 88.6435 222.225 88.3082 222.225C87.9729 222.225 87.6848 222.308 87.4439 222.474C87.2063 222.636 87.024 222.85 86.8971 223.113C86.7701 223.377 86.7066 223.66 86.7066 223.963V224.441C86.7066 224.855 86.7783 225.205 86.9215 225.491C87.0647 225.778 87.2649 225.996 87.5221 226.146C87.7792 226.292 88.0771 226.365 88.4156 226.365C88.6337 226.365 88.8323 226.334 89.0113 226.272C89.1904 226.207 89.345 226.111 89.4752 225.984C89.6054 225.854 89.7047 225.695 89.773 225.506L90.5836 225.74C90.499 226.014 90.3557 226.255 90.1539 226.463C89.9553 226.668 89.7079 226.829 89.4117 226.946C89.1155 227.06 88.7835 227.117 88.4156 227.117ZM92.7074 227L91.0473 221.541H91.9262L93.1078 225.721H93.1664L94.3285 221.541H95.227L96.3695 225.711H96.4281L97.6098 221.541H98.4887L96.8285 227H96.0082L94.807 222.811H94.7289L93.5277 227H92.7074ZM104.23 227H102.482V226.219H104.172C104.774 226.219 105.272 226.103 105.666 225.872C106.063 225.641 106.359 225.311 106.555 224.881C106.75 224.451 106.848 223.94 106.848 223.348C106.848 222.762 106.752 222.257 106.56 221.834C106.368 221.408 106.079 221.08 105.695 220.853C105.314 220.621 104.839 220.506 104.27 220.506H102.443V219.725H104.328C105.035 219.725 105.638 219.869 106.14 220.159C106.644 220.449 107.03 220.866 107.297 221.409C107.564 221.95 107.697 222.596 107.697 223.348C107.697 224.106 107.562 224.759 107.292 225.306C107.022 225.849 106.628 226.268 106.11 226.561C105.596 226.854 104.969 227 104.23 227ZM102.863 219.725V227H101.984V219.725H102.863ZM111.081 227.117C110.557 227.117 110.103 227 109.719 226.766C109.338 226.531 109.045 226.204 108.84 225.784C108.635 225.361 108.532 224.871 108.532 224.314C108.532 223.755 108.633 223.261 108.835 222.835C109.037 222.409 109.32 222.075 109.684 221.834C110.052 221.593 110.482 221.473 110.973 221.473C111.257 221.473 111.538 221.52 111.818 221.614C112.098 221.709 112.352 221.862 112.58 222.073C112.811 222.285 112.995 222.565 113.132 222.913C113.268 223.261 113.337 223.689 113.337 224.197V224.559H109.128V223.836H112.883L112.497 224.109C112.497 223.745 112.44 223.421 112.326 223.138C112.212 222.854 112.041 222.632 111.813 222.469C111.589 222.306 111.309 222.225 110.973 222.225C110.638 222.225 110.35 222.308 110.109 222.474C109.872 222.636 109.689 222.85 109.562 223.113C109.435 223.377 109.372 223.66 109.372 223.963V224.441C109.372 224.855 109.443 225.205 109.587 225.491C109.73 225.778 109.93 225.996 110.187 226.146C110.444 226.292 110.742 226.365 111.081 226.365C111.299 226.365 111.498 226.334 111.677 226.272C111.856 226.207 112.01 226.111 112.14 225.984C112.271 225.854 112.37 225.695 112.438 225.506L113.249 225.74C113.164 226.014 113.021 226.255 112.819 226.463C112.621 226.668 112.373 226.829 112.077 226.946C111.781 227.06 111.449 227.117 111.081 227.117ZM116.691 221.541V222.254H113.869V221.541H116.691ZM114.689 220.242H115.519V225.438C115.519 225.721 115.578 225.929 115.695 226.062C115.812 226.193 115.998 226.258 116.252 226.258C116.307 226.258 116.364 226.255 116.422 226.248C116.484 226.242 116.551 226.232 116.623 226.219L116.798 226.971C116.72 227 116.624 227.023 116.51 227.039C116.4 227.059 116.287 227.068 116.173 227.068C115.734 227.068 115.376 226.938 115.099 226.678C114.826 226.417 114.689 226.079 114.689 225.662V220.242ZM119.293 227.127C118.948 227.127 118.634 227.062 118.351 226.932C118.068 226.798 117.843 226.606 117.677 226.355C117.511 226.105 117.428 225.802 117.428 225.447C117.428 225.135 117.49 224.882 117.614 224.69C117.737 224.495 117.902 224.342 118.107 224.231C118.315 224.118 118.543 224.033 118.79 223.978C119.041 223.922 119.293 223.878 119.547 223.846C119.879 223.803 120.148 223.771 120.353 223.748C120.561 223.725 120.713 223.686 120.807 223.631C120.905 223.576 120.954 223.481 120.954 223.348V223.318C120.954 222.97 120.857 222.7 120.665 222.508C120.477 222.312 120.189 222.215 119.801 222.215C119.404 222.215 119.092 222.303 118.864 222.479C118.636 222.651 118.476 222.837 118.385 223.035L117.584 222.752C117.728 222.42 117.918 222.161 118.156 221.976C118.397 221.79 118.657 221.66 118.937 221.585C119.22 221.51 119.498 221.473 119.772 221.473C119.948 221.473 120.149 221.494 120.377 221.536C120.605 221.575 120.827 221.66 121.041 221.79C121.26 221.917 121.439 222.111 121.579 222.371C121.722 222.628 121.793 222.973 121.793 223.406V227H120.954V226.258H120.914C120.859 226.375 120.765 226.502 120.631 226.639C120.498 226.772 120.32 226.888 120.099 226.985C119.881 227.08 119.612 227.127 119.293 227.127ZM119.42 226.375C119.752 226.375 120.032 226.31 120.26 226.18C120.488 226.049 120.661 225.882 120.778 225.677C120.895 225.468 120.954 225.252 120.954 225.027V224.256C120.918 224.298 120.84 224.337 120.719 224.373C120.602 224.406 120.465 224.435 120.309 224.461C120.156 224.487 120.006 224.51 119.86 224.529C119.713 224.546 119.596 224.559 119.508 224.568C119.29 224.598 119.087 224.645 118.898 224.71C118.709 224.772 118.556 224.865 118.439 224.988C118.325 225.112 118.268 225.281 118.268 225.496C118.268 225.786 118.375 226.006 118.59 226.155C118.808 226.302 119.085 226.375 119.42 226.375ZM123.068 227V221.541H123.898V227H123.068ZM123.487 220.633C123.325 220.633 123.185 220.577 123.068 220.467C122.95 220.356 122.892 220.223 122.892 220.066C122.892 219.91 122.95 219.777 123.068 219.666C123.185 219.555 123.325 219.5 123.487 219.5C123.65 219.5 123.79 219.555 123.907 219.666C124.025 219.777 124.083 219.91 124.083 220.066C124.083 220.223 124.025 220.356 123.907 220.467C123.79 220.577 123.65 220.633 123.487 220.633ZM126.002 219.725V227H125.172V219.725H126.002ZM131.134 222.771L130.382 222.977C130.31 222.791 130.186 222.615 130.011 222.449C129.838 222.28 129.568 222.195 129.2 222.195C128.868 222.195 128.591 222.273 128.37 222.43C128.149 222.583 128.038 222.775 128.038 223.006C128.038 223.214 128.113 223.38 128.263 223.504C128.415 223.628 128.653 223.729 128.975 223.807L129.786 224.002C130.271 224.119 130.632 224.3 130.87 224.544C131.111 224.788 131.231 225.099 131.231 225.477C131.231 225.789 131.142 226.069 130.963 226.316C130.784 226.564 130.535 226.759 130.216 226.902C129.897 227.046 129.526 227.117 129.102 227.117C128.546 227.117 128.085 226.995 127.721 226.751C127.359 226.507 127.13 226.154 127.032 225.691L127.823 225.496C127.898 225.789 128.041 226.009 128.253 226.155C128.468 226.302 128.748 226.375 129.093 226.375C129.48 226.375 129.789 226.292 130.02 226.126C130.255 225.957 130.372 225.757 130.372 225.525C130.372 225.141 130.102 224.884 129.561 224.754L128.653 224.539C128.152 224.419 127.784 224.235 127.55 223.987C127.315 223.74 127.198 223.429 127.198 223.055C127.198 222.745 127.284 222.472 127.457 222.234C127.633 221.997 127.872 221.811 128.175 221.678C128.477 221.541 128.819 221.473 129.2 221.473C129.744 221.473 130.168 221.593 130.474 221.834C130.784 222.072 131.003 222.384 131.134 222.771Z" fill="white"/>
<path d="M22.5376 22.6172C22.4912 22.183 22.2957 21.8449 21.951 21.603C21.6096 21.361 21.1655 21.2401 20.6186 21.2401C20.2341 21.2401 19.9044 21.2981 19.6293 21.4141C19.3542 21.5301 19.1437 21.6875 18.9979 21.8864C18.852 22.0852 18.7775 22.3123 18.7741 22.5675C18.7741 22.7796 18.8222 22.9635 18.9183 23.1193C19.0178 23.2751 19.152 23.4077 19.321 23.517C19.4901 23.6231 19.6773 23.7126 19.8828 23.7855C20.0883 23.8584 20.2955 23.9197 20.5043 23.9695L21.4588 24.2081C21.8433 24.2976 22.2128 24.4186 22.5675 24.571C22.9254 24.7235 23.2453 24.9157 23.527 25.1477C23.812 25.3797 24.0374 25.6598 24.2031 25.9879C24.3688 26.3161 24.4517 26.7005 24.4517 27.1413C24.4517 27.7379 24.2992 28.2633 23.9943 28.7173C23.6894 29.1681 23.2486 29.5211 22.6719 29.7763C22.0985 30.0282 21.4041 30.1541 20.5888 30.1541C19.7966 30.1541 19.1089 30.0315 18.5256 29.7862C17.9455 29.541 17.4915 29.183 17.1634 28.7124C16.8385 28.2417 16.6629 27.6683 16.6364 26.9922H18.451C18.4775 27.3468 18.5869 27.6418 18.7791 27.8771C18.9714 28.1125 19.2216 28.2881 19.5298 28.4041C19.8414 28.5201 20.1894 28.5781 20.5739 28.5781C20.9749 28.5781 21.3262 28.5185 21.6278 28.3991C21.9328 28.2765 22.1714 28.1075 22.3438 27.892C22.5161 27.6733 22.6039 27.4181 22.6072 27.1264C22.6039 26.8613 22.526 26.6425 22.3736 26.4702C22.2211 26.2945 22.0073 26.1487 21.7322 26.0327C21.4605 25.9134 21.1423 25.8073 20.7777 25.7145L19.6193 25.4162C18.7808 25.2008 18.1179 24.8743 17.6307 24.4368C17.1468 23.996 16.9048 23.411 16.9048 22.6818C16.9048 22.0819 17.0672 21.5566 17.392 21.1058C17.7202 20.6551 18.166 20.3054 18.7294 20.0568C19.2929 19.8049 19.9309 19.679 20.6435 19.679C21.366 19.679 21.9991 19.8049 22.5426 20.0568C23.0895 20.3054 23.5187 20.6518 23.8303 21.0959C24.1418 21.5367 24.3026 22.0438 24.3125 22.6172H22.5376ZM30.8837 26.7884V22.3636H32.6834V30H30.9384V28.6428H30.8588C30.6865 29.0703 30.4031 29.42 30.0087 29.6918C29.6176 29.9635 29.1354 30.0994 28.562 30.0994C28.0615 30.0994 27.619 29.9884 27.2346 29.7663C26.8534 29.541 26.5551 29.2145 26.3397 28.7869C26.1242 28.3561 26.0165 27.8357 26.0165 27.2259V22.3636H27.8162V26.9474C27.8162 27.4313 27.9488 27.8158 28.214 28.1009C28.4791 28.3859 28.8271 28.5284 29.258 28.5284C29.5231 28.5284 29.78 28.4638 30.0286 28.3345C30.2772 28.2053 30.481 28.013 30.6401 27.7578C30.8025 27.4993 30.8837 27.1761 30.8837 26.7884ZM34.5341 30V22.3636H36.2543V23.6612H36.3438C36.5028 23.2237 36.7663 22.8823 37.1342 22.6371C37.5021 22.3885 37.9413 22.2642 38.4517 22.2642C38.9688 22.2642 39.4046 22.3902 39.7592 22.642C40.1172 22.8906 40.3691 23.2304 40.5149 23.6612H40.5945C40.7635 23.237 41.0485 22.8989 41.4496 22.647C41.8539 22.3918 42.3329 22.2642 42.8864 22.2642C43.589 22.2642 44.1624 22.4863 44.6065 22.9304C45.0507 23.3745 45.2727 24.0225 45.2727 24.8743V30H43.468V25.1527C43.468 24.6787 43.3421 24.3324 43.0902 24.1136C42.8383 23.8916 42.5301 23.7805 42.1655 23.7805C41.7313 23.7805 41.3916 23.9164 41.1463 24.1882C40.9044 24.4567 40.7834 24.8063 40.7834 25.2372V30H39.0185V25.0781C39.0185 24.6837 38.8991 24.3688 38.6605 24.1335C38.4252 23.8982 38.117 23.7805 37.7358 23.7805C37.4773 23.7805 37.242 23.8468 37.0298 23.9794C36.8177 24.1087 36.6487 24.2926 36.5227 24.5312C36.3968 24.7666 36.3338 25.0417 36.3338 25.3565V30H34.5341ZM47.0985 30V22.3636H48.8187V23.6612H48.9082C49.0673 23.2237 49.3308 22.8823 49.6987 22.6371C50.0666 22.3885 50.5057 22.2642 51.0162 22.2642C51.5332 22.2642 51.969 22.3902 52.3237 22.642C52.6816 22.8906 52.9335 23.2304 53.0794 23.6612H53.1589C53.3279 23.237 53.613 22.8989 54.014 22.647C54.4184 22.3918 54.8973 22.2642 55.4508 22.2642C56.1535 22.2642 56.7269 22.4863 57.171 22.9304C57.6151 23.3745 57.8372 24.0225 57.8372 24.8743V30H56.0325V25.1527C56.0325 24.6787 55.9065 24.3324 55.6547 24.1136C55.4028 23.8916 55.0945 23.7805 54.7299 23.7805C54.2958 23.7805 53.956 23.9164 53.7108 24.1882C53.4688 24.4567 53.3478 24.8063 53.3478 25.2372V30H51.5829V25.0781C51.5829 24.6837 51.4636 24.3688 51.225 24.1335C50.9896 23.8982 50.6814 23.7805 50.3002 23.7805C50.0417 23.7805 49.8064 23.8468 49.5943 23.9794C49.3822 24.1087 49.2131 24.2926 49.0872 24.5312C48.9612 24.7666 48.8983 25.0417 48.8983 25.3565V30H47.0985ZM61.8604 30.1541C61.3765 30.1541 60.9407 30.0679 60.5529 29.8956C60.1684 29.7199 59.8635 29.4614 59.6381 29.12C59.4161 28.7786 59.305 28.3577 59.305 27.8572C59.305 27.4264 59.3846 27.0701 59.5437 26.7884C59.7028 26.5066 59.9199 26.2812 60.195 26.1122C60.4701 25.9432 60.7799 25.8156 61.1246 25.7294C61.4727 25.6399 61.8323 25.5753 62.2035 25.5355C62.6509 25.4891 63.0138 25.4477 63.2923 25.4112C63.5707 25.3714 63.7728 25.3118 63.8988 25.2322C64.0281 25.1494 64.0927 25.0218 64.0927 24.8494V24.8196C64.0927 24.4451 63.9817 24.1551 63.7596 23.9496C63.5375 23.7441 63.2177 23.6413 62.8001 23.6413C62.3593 23.6413 62.0096 23.7375 61.7511 23.9297C61.4959 24.1219 61.3235 24.349 61.234 24.6108L59.5536 24.3722C59.6862 23.9081 59.9049 23.5204 60.2099 23.2088C60.5148 22.8939 60.8877 22.6586 61.3285 22.5028C61.7693 22.3438 62.2565 22.2642 62.7901 22.2642C63.158 22.2642 63.5243 22.3073 63.8888 22.3935C64.2534 22.4796 64.5865 22.6222 64.8881 22.821C65.1897 23.0166 65.4317 23.2834 65.614 23.6214C65.7996 23.9595 65.8924 24.3821 65.8924 24.8892V30H64.1623V28.951H64.1026C63.9933 29.1631 63.8391 29.362 63.6403 29.5476C63.4447 29.7299 63.1978 29.8774 62.8995 29.9901C62.6045 30.0994 62.2582 30.1541 61.8604 30.1541ZM62.3278 28.8317C62.689 28.8317 63.0022 28.7604 63.2674 28.6179C63.5326 28.4721 63.7364 28.2798 63.8789 28.0412C64.0247 27.8026 64.0977 27.5424 64.0977 27.2607V26.3608C64.0413 26.4072 63.9452 26.4503 63.8093 26.4901C63.6767 26.5298 63.5276 26.5646 63.3619 26.5945C63.1961 26.6243 63.0321 26.6508 62.8697 26.674C62.7073 26.6972 62.5664 26.7171 62.4471 26.7337C62.1786 26.7701 61.9383 26.8298 61.7262 26.9126C61.5141 26.9955 61.3467 27.1115 61.2241 27.2607C61.1014 27.4065 61.0401 27.5954 61.0401 27.8274C61.0401 28.1589 61.1611 28.4091 61.4031 28.5781C61.645 28.7472 61.9532 28.8317 62.3278 28.8317ZM67.7021 30V22.3636H69.4471V23.6364H69.5266C69.6658 23.1955 69.9045 22.8558 70.2425 22.6172C70.5839 22.3752 70.9734 22.2543 71.4109 22.2543C71.5103 22.2543 71.6213 22.2592 71.744 22.2692C71.8699 22.2758 71.9743 22.2874 72.0572 22.304V23.9595C71.9809 23.933 71.86 23.9098 71.6942 23.8899C71.5318 23.8667 71.3744 23.8551 71.2219 23.8551C70.8938 23.8551 70.5988 23.9264 70.337 24.0689C70.0785 24.2081 69.8746 24.402 69.7255 24.6506C69.5763 24.8991 69.5018 25.1858 69.5018 25.5107V30H67.7021ZM74.6039 32.8636C74.3586 32.8636 74.1316 32.8438 73.9228 32.804C73.7173 32.7675 73.5532 32.7244 73.4306 32.6747L73.8482 31.2727C74.11 31.349 74.3437 31.3854 74.5492 31.3821C74.7547 31.3788 74.9353 31.3142 75.0911 31.1882C75.2502 31.0656 75.3844 30.8601 75.4938 30.5717L75.6479 30.1591L72.8787 22.3636H74.7878L76.5478 28.1307H76.6273L78.3922 22.3636H80.3063L77.2488 30.9247C77.1062 31.3291 76.9173 31.6754 76.682 31.9638C76.4467 32.2554 76.1583 32.4775 75.8169 32.63C75.4789 32.7857 75.0745 32.8636 74.6039 32.8636ZM86.4114 30H84.4426L88.0272 19.8182H90.3042L93.8936 30H91.9249L89.2054 21.9062H89.1259L86.4114 30ZM86.476 26.0078H91.8453V27.4893H86.476V26.0078ZM101.019 22.3636L98.2997 30H96.3111L93.5916 22.3636H95.5107L97.2656 28.0362H97.3452L99.1051 22.3636H101.019ZM105.385 30.1491C104.62 30.1491 103.959 29.9901 103.402 29.6719C102.848 29.3504 102.422 28.8963 102.124 28.3097C101.826 27.7197 101.677 27.0253 101.677 26.2266C101.677 25.4411 101.826 24.7517 102.124 24.1584C102.426 23.5618 102.847 23.0978 103.387 22.7663C103.927 22.4316 104.562 22.2642 105.291 22.2642C105.762 22.2642 106.206 22.3404 106.623 22.4929C107.044 22.642 107.416 22.8741 107.737 23.1889C108.062 23.5038 108.317 23.9048 108.503 24.392C108.688 24.8759 108.781 25.4527 108.781 26.1222V26.674H102.522V25.4609H107.056C107.053 25.1162 106.978 24.8097 106.832 24.5412C106.686 24.2694 106.483 24.0556 106.221 23.8999C105.962 23.7441 105.661 23.6662 105.316 23.6662C104.948 23.6662 104.625 23.7557 104.346 23.9347C104.068 24.1103 103.851 24.3423 103.695 24.6307C103.543 24.9157 103.465 25.2289 103.461 25.5703V26.6293C103.461 27.0734 103.543 27.4545 103.705 27.7727C103.867 28.0876 104.095 28.3295 104.386 28.4986C104.678 28.6643 105.019 28.7472 105.41 28.7472C105.672 28.7472 105.909 28.7107 106.121 28.6378C106.333 28.5616 106.517 28.4505 106.673 28.3047C106.829 28.1589 106.947 27.9782 107.026 27.7628L108.706 27.9517C108.6 28.3958 108.398 28.7836 108.1 29.1151C107.805 29.4432 107.427 29.6984 106.966 29.8807C106.506 30.0597 105.979 30.1491 105.385 30.1491ZM110.304 30V22.3636H112.049V23.6364H112.128C112.267 23.1955 112.506 22.8558 112.844 22.6172C113.185 22.3752 113.575 22.2543 114.012 22.2543C114.112 22.2543 114.223 22.2592 114.346 22.2692C114.471 22.2758 114.576 22.2874 114.659 22.304V23.9595C114.583 23.933 114.462 23.9098 114.296 23.8899C114.133 23.8667 113.976 23.8551 113.824 23.8551C113.495 23.8551 113.2 23.9264 112.939 24.0689C112.68 24.2081 112.476 24.402 112.327 24.6506C112.178 24.8991 112.103 25.1858 112.103 25.5107V30H110.304ZM117.915 30.1541C117.431 30.1541 116.995 30.0679 116.608 29.8956C116.223 29.7199 115.918 29.4614 115.693 29.12C115.471 28.7786 115.36 28.3577 115.36 27.8572C115.36 27.4264 115.439 27.0701 115.598 26.7884C115.757 26.5066 115.975 26.2812 116.25 26.1122C116.525 25.9432 116.835 25.8156 117.179 25.7294C117.527 25.6399 117.887 25.5753 118.258 25.5355C118.706 25.4891 119.069 25.4477 119.347 25.4112C119.625 25.3714 119.828 25.3118 119.953 25.2322C120.083 25.1494 120.147 25.0218 120.147 24.8494V24.8196C120.147 24.4451 120.036 24.1551 119.814 23.9496C119.592 23.7441 119.272 23.6413 118.855 23.6413C118.414 23.6413 118.064 23.7375 117.806 23.9297C117.551 24.1219 117.378 24.349 117.289 24.6108L115.608 24.3722C115.741 23.9081 115.96 23.5204 116.265 23.2088C116.569 22.8939 116.942 22.6586 117.383 22.5028C117.824 22.3438 118.311 22.2642 118.845 22.2642C119.213 22.2642 119.579 22.3073 119.944 22.3935C120.308 22.4796 120.641 22.6222 120.943 22.821C121.244 23.0166 121.486 23.2834 121.669 23.6214C121.854 23.9595 121.947 24.3821 121.947 24.8892V30H120.217V28.951H120.157C120.048 29.1631 119.894 29.362 119.695 29.5476C119.499 29.7299 119.252 29.8774 118.954 29.9901C118.659 30.0994 118.313 30.1541 117.915 30.1541ZM118.382 28.8317C118.744 28.8317 119.057 28.7604 119.322 28.6179C119.587 28.4721 119.791 28.2798 119.934 28.0412C120.079 27.8026 120.152 27.5424 120.152 27.2607V26.3608C120.096 26.4072 120 26.4503 119.864 26.4901C119.731 26.5298 119.582 26.5646 119.417 26.5945C119.251 26.6243 119.087 26.6508 118.924 26.674C118.762 26.6972 118.621 26.7171 118.502 26.7337C118.233 26.7701 117.993 26.8298 117.781 26.9126C117.569 26.9955 117.401 27.1115 117.279 27.2607C117.156 27.4065 117.095 27.5954 117.095 27.8274C117.095 28.1589 117.216 28.4091 117.458 28.5781C117.7 28.7472 118.008 28.8317 118.382 28.8317ZM127.078 33.0227C126.431 33.0227 125.876 32.9349 125.412 32.7592C124.948 32.5869 124.575 32.3549 124.294 32.0632C124.012 31.7715 123.816 31.4484 123.707 31.0938L125.328 30.701C125.401 30.8501 125.507 30.9976 125.646 31.1435C125.785 31.2926 125.972 31.4152 126.208 31.5114C126.446 31.6108 126.746 31.6605 127.108 31.6605C127.618 31.6605 128.041 31.5362 128.375 31.2876C128.71 31.0424 128.877 30.638 128.877 30.0746V28.6278H128.788C128.695 28.8134 128.559 29.004 128.38 29.1996C128.205 29.3951 127.971 29.5592 127.679 29.6918C127.391 29.8243 127.028 29.8906 126.591 29.8906C126.004 29.8906 125.472 29.7531 124.995 29.478C124.521 29.1996 124.143 28.7853 123.861 28.2351C123.583 27.6816 123.444 26.9889 123.444 26.157C123.444 25.3184 123.583 24.6108 123.861 24.0341C124.143 23.4541 124.522 23.0149 125 22.7166C125.477 22.415 126.009 22.2642 126.596 22.2642C127.043 22.2642 127.411 22.3404 127.699 22.4929C127.991 22.642 128.223 22.8227 128.395 23.0348C128.568 23.2436 128.699 23.4408 128.788 23.6264H128.887V22.3636H130.662V30.1243C130.662 30.7772 130.507 31.3175 130.195 31.745C129.883 32.1726 129.458 32.4924 128.917 32.7045C128.377 32.9167 127.764 33.0227 127.078 33.0227ZM127.093 28.4787C127.474 28.4787 127.799 28.3859 128.067 28.2003C128.336 28.0147 128.539 27.7479 128.679 27.3999C128.818 27.0518 128.887 26.6342 128.887 26.147C128.887 25.6664 128.818 25.2455 128.679 24.8842C128.543 24.523 128.341 24.2429 128.072 24.044C127.807 23.8419 127.48 23.7408 127.093 23.7408C126.692 23.7408 126.357 23.8452 126.088 24.054C125.82 24.2628 125.618 24.5495 125.482 24.9141C125.346 25.2753 125.278 25.6863 125.278 26.147C125.278 26.6143 125.346 27.0237 125.482 27.375C125.621 27.723 125.825 27.9948 126.093 28.1903C126.365 28.3826 126.698 28.4787 127.093 28.4787ZM135.887 30.1491C135.122 30.1491 134.461 29.9901 133.904 29.6719C133.35 29.3504 132.924 28.8963 132.626 28.3097C132.328 27.7197 132.179 27.0253 132.179 26.2266C132.179 25.4411 132.328 24.7517 132.626 24.1584C132.928 23.5618 133.349 23.0978 133.889 22.7663C134.429 22.4316 135.064 22.2642 135.793 22.2642C136.264 22.2642 136.708 22.3404 137.125 22.4929C137.546 22.642 137.917 22.8741 138.239 23.1889C138.564 23.5038 138.819 23.9048 139.005 24.392C139.19 24.8759 139.283 25.4527 139.283 26.1222V26.674H133.024V25.4609H137.558C137.555 25.1162 137.48 24.8097 137.334 24.5412C137.188 24.2694 136.984 24.0556 136.723 23.8999C136.464 23.7441 136.163 23.6662 135.818 23.6662C135.45 23.6662 135.127 23.7557 134.848 23.9347C134.57 24.1103 134.353 24.3423 134.197 24.6307C134.045 24.9157 133.967 25.2289 133.963 25.5703V26.6293C133.963 27.0734 134.045 27.4545 134.207 27.7727C134.369 28.0876 134.596 28.3295 134.888 28.4986C135.18 28.6643 135.521 28.7472 135.912 28.7472C136.174 28.7472 136.411 28.7107 136.623 28.6378C136.835 28.5616 137.019 28.4505 137.175 28.3047C137.331 28.1589 137.449 27.9782 137.528 27.7628L139.208 27.9517C139.102 28.3958 138.9 28.7836 138.602 29.1151C138.307 29.4432 137.929 29.6984 137.468 29.8807C137.008 30.0597 136.481 30.1491 135.887 30.1491Z" fill="white"/>
<path d="M21.4199 46.7246H22.2988V51.5391C22.2988 52.0371 22.1816 52.4814 21.9473 52.8721C21.7161 53.2594 21.389 53.5654 20.9658 53.79C20.5426 54.0146 20.0462 54.127 19.4766 54.127C18.9069 54.127 18.4089 54.0146 17.9824 53.79C17.5592 53.5654 17.2305 53.2594 16.9961 52.8721C16.7617 52.4814 16.6445 52.0371 16.6445 51.5391V46.7246H17.5234V51.4707C17.5234 51.8255 17.6016 52.1413 17.7578 52.418C17.9141 52.6947 18.1387 52.9128 18.4316 53.0723C18.7246 53.2285 19.0729 53.3066 19.4766 53.3066C19.8802 53.3066 20.2269 53.2285 20.5166 53.0723C20.8063 52.9128 21.0293 52.6947 21.1855 52.418C21.3418 52.1413 21.4199 51.8255 21.4199 51.4707V46.7246ZM27.3379 49.7715L26.5859 49.9766C26.5143 49.791 26.3906 49.6152 26.2148 49.4492C26.0423 49.2799 25.7721 49.1953 25.4043 49.1953C25.0723 49.1953 24.7956 49.2734 24.5742 49.4297C24.3529 49.5827 24.2422 49.7747 24.2422 50.0059C24.2422 50.2142 24.3171 50.3802 24.4668 50.5039C24.6198 50.6276 24.8574 50.7285 25.1797 50.8066L25.9902 51.002C26.4753 51.1191 26.8366 51.2998 27.0742 51.5439C27.3151 51.7881 27.4355 52.099 27.4355 52.4766C27.4355 52.7891 27.346 53.069 27.167 53.3164C26.988 53.5638 26.7389 53.7591 26.4199 53.9023C26.1009 54.0456 25.7298 54.1172 25.3066 54.1172C24.75 54.1172 24.2894 53.9951 23.9248 53.751C23.5635 53.5068 23.334 53.1536 23.2363 52.6914L24.0273 52.4961C24.1022 52.7891 24.2454 53.0088 24.457 53.1553C24.6719 53.3018 24.9518 53.375 25.2969 53.375C25.6842 53.375 25.9935 53.292 26.2246 53.126C26.459 52.9567 26.5762 52.7565 26.5762 52.5254C26.5762 52.1413 26.306 51.8841 25.7656 51.7539L24.8574 51.5391C24.3561 51.4186 23.9883 51.2347 23.7539 50.9873C23.5195 50.7399 23.4023 50.429 23.4023 50.0547C23.4023 49.7454 23.4886 49.472 23.6611 49.2344C23.8369 48.9967 24.0762 48.8112 24.3789 48.6777C24.6816 48.541 25.0234 48.4727 25.4043 48.4727C25.9479 48.4727 26.3727 48.5931 26.6787 48.834C26.988 49.0716 27.2077 49.3841 27.3379 49.7715ZM30.5215 54.1172C29.9974 54.1172 29.5433 54 29.1592 53.7656C28.7783 53.5312 28.4854 53.2041 28.2803 52.7842C28.0752 52.361 27.9727 51.8711 27.9727 51.3145C27.9727 50.7546 28.0736 50.2614 28.2754 49.835C28.4772 49.4085 28.7604 49.0749 29.125 48.834C29.4928 48.5931 29.9225 48.4727 30.4141 48.4727C30.6973 48.4727 30.9788 48.5199 31.2588 48.6143C31.5387 48.7087 31.7926 48.8617 32.0205 49.0732C32.2516 49.2848 32.4355 49.5648 32.5723 49.9131C32.709 50.2614 32.7773 50.6895 32.7773 51.1973V51.5586H28.5684V50.8359H32.3232L31.9375 51.1094C31.9375 50.7448 31.8805 50.4209 31.7666 50.1377C31.6527 49.8545 31.4818 49.6315 31.2539 49.4688C31.0293 49.306 30.7493 49.2246 30.4141 49.2246C30.0788 49.2246 29.7907 49.3076 29.5498 49.4736C29.3122 49.6364 29.1299 49.8496 29.0029 50.1133C28.876 50.377 28.8125 50.6602 28.8125 50.9629V51.4414C28.8125 51.8548 28.8841 52.2048 29.0273 52.4912C29.1706 52.7777 29.3708 52.9958 29.6279 53.1455C29.8851 53.292 30.1829 53.3652 30.5215 53.3652C30.7396 53.3652 30.9382 53.3343 31.1172 53.2725C31.2962 53.2074 31.4508 53.1113 31.5811 52.9844C31.7113 52.8542 31.8105 52.6947 31.8789 52.5059L32.6895 52.7402C32.6048 53.0137 32.4616 53.2546 32.2598 53.4629C32.0612 53.668 31.8138 53.8291 31.5176 53.9463C31.2214 54.0602 30.8893 54.1172 30.5215 54.1172ZM33.5684 54V48.541H34.3691V49.3711H34.4277C34.5286 49.1009 34.7093 48.8828 34.9697 48.7168C35.2334 48.5475 35.528 48.4629 35.8535 48.4629C35.9154 48.4629 35.9919 48.4645 36.083 48.4678C36.1742 48.4678 36.2441 48.4694 36.293 48.4727V49.3223C36.2637 49.3158 36.1986 49.306 36.0977 49.293C35.9967 49.2799 35.8893 49.2734 35.7754 49.2734C35.5117 49.2734 35.2757 49.3288 35.0674 49.4395C34.859 49.5501 34.6947 49.7015 34.5742 49.8936C34.457 50.0856 34.3984 50.3053 34.3984 50.5527V54H33.5684ZM40.6777 49.7715L39.9258 49.9766C39.8542 49.791 39.7305 49.6152 39.5547 49.4492C39.3822 49.2799 39.112 49.1953 38.7441 49.1953C38.4121 49.1953 38.1354 49.2734 37.9141 49.4297C37.6927 49.5827 37.582 49.7747 37.582 50.0059C37.582 50.2142 37.6569 50.3802 37.8066 50.5039C37.9596 50.6276 38.1973 50.7285 38.5195 50.8066L39.3301 51.002C39.8151 51.1191 40.1764 51.2998 40.4141 51.5439C40.6549 51.7881 40.7754 52.099 40.7754 52.4766C40.7754 52.7891 40.6859 53.069 40.5068 53.3164C40.3278 53.5638 40.0788 53.7591 39.7598 53.9023C39.4408 54.0456 39.0697 54.1172 38.6465 54.1172C38.0898 54.1172 37.6292 53.9951 37.2646 53.751C36.9033 53.5068 36.6738 53.1536 36.5762 52.6914L37.3672 52.4961C37.4421 52.7891 37.5853 53.0088 37.7969 53.1553C38.0117 53.3018 38.2917 53.375 38.6367 53.375C39.0241 53.375 39.3333 53.292 39.5645 53.126C39.7988 52.9567 39.916 52.7565 39.916 52.5254C39.916 52.1413 39.6458 51.8841 39.1055 51.7539L38.1973 51.5391C37.696 51.4186 37.3281 51.2347 37.0938 50.9873C36.8594 50.7399 36.7422 50.429 36.7422 50.0547C36.7422 49.7454 36.8285 49.472 37.001 49.2344C37.1768 48.9967 37.416 48.8112 37.7188 48.6777C38.0215 48.541 38.3633 48.4727 38.7441 48.4727C39.2878 48.4727 39.7126 48.5931 40.0186 48.834C40.3278 49.0716 40.5475 49.3841 40.6777 49.7715ZM47.7773 49.7715L47.0254 49.9766C46.9538 49.791 46.8301 49.6152 46.6543 49.4492C46.4818 49.2799 46.2116 49.1953 45.8438 49.1953C45.5117 49.1953 45.235 49.2734 45.0137 49.4297C44.7923 49.5827 44.6816 49.7747 44.6816 50.0059C44.6816 50.2142 44.7565 50.3802 44.9062 50.5039C45.0592 50.6276 45.2969 50.7285 45.6191 50.8066L46.4297 51.002C46.9147 51.1191 47.276 51.2998 47.5137 51.5439C47.7546 51.7881 47.875 52.099 47.875 52.4766C47.875 52.7891 47.7855 53.069 47.6064 53.3164C47.4274 53.5638 47.1784 53.7591 46.8594 53.9023C46.5404 54.0456 46.1693 54.1172 45.7461 54.1172C45.1895 54.1172 44.7288 53.9951 44.3643 53.751C44.0029 53.5068 43.7734 53.1536 43.6758 52.6914L44.4668 52.4961C44.5417 52.7891 44.6849 53.0088 44.8965 53.1553C45.1113 53.3018 45.3913 53.375 45.7363 53.375C46.1237 53.375 46.4329 53.292 46.6641 53.126C46.8984 52.9567 47.0156 52.7565 47.0156 52.5254C47.0156 52.1413 46.7454 51.8841 46.2051 51.7539L45.2969 51.5391C44.7956 51.4186 44.4277 51.2347 44.1934 50.9873C43.959 50.7399 43.8418 50.429 43.8418 50.0547C43.8418 49.7454 43.9281 49.472 44.1006 49.2344C44.2764 48.9967 44.5156 48.8112 44.8184 48.6777C45.1211 48.541 45.4629 48.4727 45.8438 48.4727C46.3874 48.4727 46.8122 48.5931 47.1182 48.834C47.4274 49.0716 47.6471 49.3841 47.7773 49.7715ZM49.5059 50.7188V54H48.6758V46.7246H49.5059V49.4004H49.584C49.7109 49.1172 49.9014 48.8926 50.1553 48.7266C50.4124 48.5573 50.7559 48.4727 51.1855 48.4727C51.5566 48.4727 51.8822 48.5475 52.1621 48.6973C52.4421 48.8438 52.6602 49.07 52.8164 49.376C52.9727 49.6787 53.0508 50.0645 53.0508 50.5332V54H52.2109V50.5918C52.2109 50.1556 52.0986 49.8187 51.874 49.5811C51.6494 49.3434 51.3385 49.2246 50.9414 49.2246C50.6647 49.2246 50.4189 49.2832 50.2041 49.4004C49.9893 49.5176 49.8184 49.6868 49.6914 49.9082C49.5677 50.1296 49.5059 50.3997 49.5059 50.7188ZM56.332 54.1172C55.8405 54.1172 55.4092 54 55.0381 53.7656C54.667 53.5312 54.3773 53.2025 54.1689 52.7793C53.9639 52.3561 53.8613 51.8646 53.8613 51.3047C53.8613 50.735 53.9639 50.2386 54.1689 49.8154C54.3773 49.389 54.667 49.0586 55.0381 48.8242C55.4092 48.5898 55.8405 48.4727 56.332 48.4727C56.8268 48.4727 57.2598 48.5898 57.6309 48.8242C58.002 49.0586 58.2917 49.389 58.5 49.8154C58.7083 50.2386 58.8125 50.735 58.8125 51.3047C58.8125 51.8646 58.7083 52.3561 58.5 52.7793C58.2917 53.2025 58.002 53.5312 57.6309 53.7656C57.2598 54 56.8268 54.1172 56.332 54.1172ZM56.332 53.3652C56.7096 53.3652 57.0189 53.2692 57.2598 53.0771C57.5007 52.8851 57.6797 52.6328 57.7969 52.3203C57.9141 52.0046 57.9727 51.666 57.9727 51.3047C57.9727 50.9368 57.9141 50.5951 57.7969 50.2793C57.6797 49.9635 57.5007 49.7096 57.2598 49.5176C57.0189 49.3223 56.7096 49.2246 56.332 49.2246C55.9609 49.2246 55.6549 49.3223 55.4141 49.5176C55.1732 49.7096 54.9941 49.9635 54.877 50.2793C54.7598 50.5951 54.7012 50.9368 54.7012 51.3047C54.7012 51.666 54.7598 52.0046 54.877 52.3203C54.9941 52.6328 55.1732 52.8851 55.4141 53.0771C55.6549 53.2692 55.9609 53.3652 56.332 53.3652ZM59.623 54V48.541H60.4238V49.3711H60.4824C60.5833 49.1009 60.764 48.8828 61.0244 48.7168C61.2881 48.5475 61.5827 48.4629 61.9082 48.4629C61.9701 48.4629 62.0465 48.4645 62.1377 48.4678C62.2288 48.4678 62.2988 48.4694 62.3477 48.4727V49.3223C62.3184 49.3158 62.2533 49.306 62.1523 49.293C62.0514 49.2799 61.944 49.2734 61.8301 49.2734C61.5664 49.2734 61.3304 49.3288 61.1221 49.4395C60.9137 49.5501 60.7493 49.7015 60.6289 49.8936C60.5117 50.0856 60.4531 50.3053 60.4531 50.5527V54H59.623ZM65.5801 48.541V49.2539H62.7578V48.541H65.5801ZM63.5781 47.2422H64.4082V52.4375C64.4082 52.7207 64.4668 52.929 64.584 53.0625C64.7012 53.1927 64.8867 53.2578 65.1406 53.2578C65.196 53.2578 65.2529 53.2546 65.3115 53.248C65.3734 53.2415 65.4401 53.2318 65.5117 53.2188L65.6875 53.9707C65.6094 54 65.5133 54.0228 65.3994 54.0391C65.2887 54.0586 65.1764 54.0684 65.0625 54.0684C64.623 54.0684 64.265 53.9382 63.9883 53.6777C63.7148 53.4173 63.5781 53.0788 63.5781 52.6621V47.2422ZM68.6074 54.1172C68.0833 54.1172 67.6292 54 67.2451 53.7656C66.8643 53.5312 66.5713 53.2041 66.3662 52.7842C66.1611 52.361 66.0586 51.8711 66.0586 51.3145C66.0586 50.7546 66.1595 50.2614 66.3613 49.835C66.5632 49.4085 66.8464 49.0749 67.2109 48.834C67.5788 48.5931 68.0085 48.4727 68.5 48.4727C68.7832 48.4727 69.0648 48.5199 69.3447 48.6143C69.6247 48.7087 69.8786 48.8617 70.1064 49.0732C70.3376 49.2848 70.5215 49.5648 70.6582 49.9131C70.7949 50.2614 70.8633 50.6895 70.8633 51.1973V51.5586H66.6543V50.8359H70.4092L70.0234 51.1094C70.0234 50.7448 69.9665 50.4209 69.8525 50.1377C69.7386 49.8545 69.5677 49.6315 69.3398 49.4688C69.1152 49.306 68.8353 49.2246 68.5 49.2246C68.1647 49.2246 67.8766 49.3076 67.6357 49.4736C67.3981 49.6364 67.2158 49.8496 67.0889 50.1133C66.9619 50.377 66.8984 50.6602 66.8984 50.9629V51.4414C66.8984 51.8548 66.9701 52.2048 67.1133 52.4912C67.2565 52.7777 67.4567 52.9958 67.7139 53.1455C67.971 53.292 68.2689 53.3652 68.6074 53.3652C68.8255 53.3652 69.0241 53.3343 69.2031 53.2725C69.3822 53.2074 69.5368 53.1113 69.667 52.9844C69.7972 52.8542 69.8965 52.6947 69.9648 52.5059L70.7754 52.7402C70.6908 53.0137 70.5475 53.2546 70.3457 53.4629C70.1471 53.668 69.8997 53.8291 69.6035 53.9463C69.3073 54.0602 68.9753 54.1172 68.6074 54.1172ZM72.4844 50.7188V54H71.6543V48.541H72.4551V49.4004H72.5332C72.6602 49.1204 72.8538 48.8958 73.1143 48.7266C73.3747 48.5573 73.7116 48.4727 74.125 48.4727C74.4928 48.4727 74.8151 48.5475 75.0918 48.6973C75.3685 48.847 75.5833 49.0749 75.7363 49.3809C75.8926 49.6836 75.9707 50.0677 75.9707 50.5332V54H75.1406V50.5918C75.1406 50.1654 75.0283 49.8317 74.8037 49.5908C74.5791 49.3467 74.2731 49.2246 73.8857 49.2246C73.6188 49.2246 73.3796 49.2832 73.168 49.4004C72.9564 49.5176 72.7887 49.6868 72.665 49.9082C72.5446 50.1296 72.4844 50.3997 72.4844 50.7188ZM81.5957 54.1172C81.0879 54.1172 80.6484 53.9967 80.2773 53.7559C79.9095 53.5117 79.6247 53.1781 79.4229 52.7549C79.2243 52.3317 79.125 51.8483 79.125 51.3047C79.125 50.748 79.2275 50.2581 79.4326 49.835C79.6377 49.4085 79.9242 49.0749 80.292 48.834C80.6631 48.5931 81.0944 48.4727 81.5859 48.4727C81.9701 48.4727 82.3151 48.5443 82.6211 48.6875C82.9303 48.8275 83.1826 49.026 83.3779 49.2832C83.5765 49.5404 83.6986 49.8398 83.7441 50.1816H82.9043C82.862 50.0156 82.7855 49.8594 82.6748 49.7129C82.5641 49.5664 82.4176 49.4492 82.2354 49.3613C82.0563 49.2702 81.8431 49.2246 81.5957 49.2246C81.2702 49.2246 80.9854 49.3092 80.7412 49.4785C80.4971 49.6478 80.3066 49.887 80.1699 50.1963C80.0332 50.5023 79.9648 50.862 79.9648 51.2754C79.9648 51.6953 80.0316 52.0632 80.165 52.3789C80.2985 52.6914 80.4873 52.9339 80.7314 53.1064C80.9788 53.279 81.2669 53.3652 81.5957 53.3652C81.9245 53.3652 82.2061 53.2806 82.4404 53.1113C82.6748 52.9388 82.8294 52.7044 82.9043 52.4082H83.7441C83.6986 52.7305 83.5814 53.0202 83.3926 53.2773C83.207 53.5345 82.9613 53.7396 82.6553 53.8926C82.3525 54.0423 81.9993 54.1172 81.5957 54.1172ZM86.7422 54.1172C86.2507 54.1172 85.8193 54 85.4482 53.7656C85.0771 53.5312 84.7874 53.2025 84.5791 52.7793C84.374 52.3561 84.2715 51.8646 84.2715 51.3047C84.2715 50.735 84.374 50.2386 84.5791 49.8154C84.7874 49.389 85.0771 49.0586 85.4482 48.8242C85.8193 48.5898 86.2507 48.4727 86.7422 48.4727C87.237 48.4727 87.6699 48.5898 88.041 48.8242C88.4121 49.0586 88.7018 49.389 88.9102 49.8154C89.1185 50.2386 89.2227 50.735 89.2227 51.3047C89.2227 51.8646 89.1185 52.3561 88.9102 52.7793C88.7018 53.2025 88.4121 53.5312 88.041 53.7656C87.6699 54 87.237 54.1172 86.7422 54.1172ZM86.7422 53.3652C87.1198 53.3652 87.429 53.2692 87.6699 53.0771C87.9108 52.8851 88.0898 52.6328 88.207 52.3203C88.3242 52.0046 88.3828 51.666 88.3828 51.3047C88.3828 50.9368 88.3242 50.5951 88.207 50.2793C88.0898 49.9635 87.9108 49.7096 87.6699 49.5176C87.429 49.3223 87.1198 49.2246 86.7422 49.2246C86.3711 49.2246 86.0651 49.3223 85.8242 49.5176C85.5833 49.7096 85.4043 49.9635 85.2871 50.2793C85.1699 50.5951 85.1113 50.9368 85.1113 51.3047C85.1113 51.666 85.1699 52.0046 85.2871 52.3203C85.4043 52.6328 85.5833 52.8851 85.8242 53.0771C86.0651 53.2692 86.3711 53.3652 86.7422 53.3652ZM90.8633 50.7188V54H90.0332V48.541H90.834V49.4004H90.9121C91.0391 49.1204 91.2327 48.8958 91.4932 48.7266C91.7536 48.5573 92.0905 48.4727 92.5039 48.4727C92.8717 48.4727 93.194 48.5475 93.4707 48.6973C93.7474 48.847 93.9622 49.0749 94.1152 49.3809C94.2715 49.6836 94.3496 50.0677 94.3496 50.5332V54H93.5195V50.5918C93.5195 50.1654 93.4072 49.8317 93.1826 49.5908C92.958 49.3467 92.652 49.2246 92.2646 49.2246C91.9977 49.2246 91.7585 49.2832 91.5469 49.4004C91.3353 49.5176 91.1676 49.6868 91.0439 49.9082C90.9235 50.1296 90.8633 50.3997 90.8633 50.7188ZM97.7871 48.541V49.2539H94.9648V48.541H97.7871ZM95.7852 47.2422H96.6152V52.4375C96.6152 52.7207 96.6738 52.929 96.791 53.0625C96.9082 53.1927 97.0938 53.2578 97.3477 53.2578C97.403 53.2578 97.46 53.2546 97.5186 53.248C97.5804 53.2415 97.6471 53.2318 97.7188 53.2188L97.8945 53.9707C97.8164 54 97.7204 54.0228 97.6064 54.0391C97.4958 54.0586 97.3835 54.0684 97.2695 54.0684C96.8301 54.0684 96.472 53.9382 96.1953 53.6777C95.9219 53.4173 95.7852 53.0788 95.7852 52.6621V47.2422ZM100.814 54.1172C100.29 54.1172 99.8363 54 99.4521 53.7656C99.0713 53.5312 98.7783 53.2041 98.5732 52.7842C98.3682 52.361 98.2656 51.8711 98.2656 51.3145C98.2656 50.7546 98.3665 50.2614 98.5684 49.835C98.7702 49.4085 99.0534 49.0749 99.418 48.834C99.7858 48.5931 100.215 48.4727 100.707 48.4727C100.99 48.4727 101.272 48.5199 101.552 48.6143C101.832 48.7087 102.086 48.8617 102.313 49.0732C102.545 49.2848 102.729 49.5648 102.865 49.9131C103.002 50.2614 103.07 50.6895 103.07 51.1973V51.5586H98.8613V50.8359H102.616L102.23 51.1094C102.23 50.7448 102.174 50.4209 102.06 50.1377C101.946 49.8545 101.775 49.6315 101.547 49.4688C101.322 49.306 101.042 49.2246 100.707 49.2246C100.372 49.2246 100.084 49.3076 99.8428 49.4736C99.6051 49.6364 99.4229 49.8496 99.2959 50.1133C99.1689 50.377 99.1055 50.6602 99.1055 50.9629V51.4414C99.1055 51.8548 99.1771 52.2048 99.3203 52.4912C99.4635 52.7777 99.6637 52.9958 99.9209 53.1455C100.178 53.292 100.476 53.3652 100.814 53.3652C101.033 53.3652 101.231 53.3343 101.41 53.2725C101.589 53.2074 101.744 53.1113 101.874 52.9844C102.004 52.8542 102.104 52.6947 102.172 52.5059L102.982 52.7402C102.898 53.0137 102.755 53.2546 102.553 53.4629C102.354 53.668 102.107 53.8291 101.811 53.9463C101.514 54.0602 101.182 54.1172 100.814 54.1172ZM104.691 50.7188V54H103.861V48.541H104.662V49.4004H104.74C104.867 49.1204 105.061 48.8958 105.321 48.7266C105.582 48.5573 105.919 48.4727 106.332 48.4727C106.7 48.4727 107.022 48.5475 107.299 48.6973C107.576 48.847 107.79 49.0749 107.943 49.3809C108.1 49.6836 108.178 50.0677 108.178 50.5332V54H107.348V50.5918C107.348 50.1654 107.235 49.8317 107.011 49.5908C106.786 49.3467 106.48 49.2246 106.093 49.2246C105.826 49.2246 105.587 49.2832 105.375 49.4004C105.163 49.5176 104.996 49.6868 104.872 49.9082C104.752 50.1296 104.691 50.3997 104.691 50.7188ZM111.615 48.541V49.2539H108.793V48.541H111.615ZM109.613 47.2422H110.443V52.4375C110.443 52.7207 110.502 52.929 110.619 53.0625C110.736 53.1927 110.922 53.2578 111.176 53.2578C111.231 53.2578 111.288 53.2546 111.347 53.248C111.409 53.2415 111.475 53.2318 111.547 53.2188L111.723 53.9707C111.645 54 111.549 54.0228 111.435 54.0391C111.324 54.0586 111.212 54.0684 111.098 54.0684C110.658 54.0684 110.3 53.9382 110.023 53.6777C109.75 53.4173 109.613 53.0788 109.613 52.6621V47.2422ZM117.25 54.1172C116.902 54.1172 116.622 54.0586 116.41 53.9414C116.199 53.821 116.036 53.6859 115.922 53.5361C115.808 53.3831 115.72 53.2578 115.658 53.1602H115.561V54H114.76V46.7246H115.59V49.4102H115.658C115.72 49.3158 115.806 49.1953 115.917 49.0488C116.028 48.8991 116.187 48.7656 116.396 48.6484C116.604 48.5312 116.885 48.4727 117.24 48.4727C117.699 48.4727 118.103 48.5882 118.451 48.8193C118.799 49.0472 119.071 49.3727 119.267 49.7959C119.465 50.2158 119.564 50.7122 119.564 51.2852C119.564 51.8613 119.467 52.3626 119.271 52.7891C119.076 53.2122 118.804 53.5394 118.456 53.7705C118.108 54.0016 117.706 54.1172 117.25 54.1172ZM117.143 53.3652C117.491 53.3652 117.782 53.2725 118.017 53.0869C118.251 52.8981 118.427 52.6458 118.544 52.3301C118.664 52.0143 118.725 51.6628 118.725 51.2754C118.725 50.8913 118.666 50.5446 118.549 50.2354C118.432 49.9261 118.256 49.6803 118.021 49.498C117.79 49.3158 117.497 49.2246 117.143 49.2246C116.801 49.2246 116.514 49.3109 116.283 49.4834C116.052 49.6527 115.876 49.8919 115.756 50.2012C115.639 50.5072 115.58 50.8652 115.58 51.2754C115.58 51.6855 115.64 52.0485 115.761 52.3643C115.881 52.6768 116.057 52.9225 116.288 53.1016C116.522 53.2773 116.807 53.3652 117.143 53.3652ZM120.717 56.041C120.574 56.0443 120.447 56.0345 120.336 56.0117C120.225 55.9889 120.147 55.9661 120.102 55.9434L120.316 55.2109L120.399 55.2305C120.679 55.2956 120.914 55.2809 121.103 55.1865C121.295 55.0954 121.462 54.8529 121.605 54.459L121.762 54.0293L119.75 48.541H120.658L122.162 52.8965H122.221L123.725 48.541H124.633L122.318 54.791C122.214 55.0742 122.086 55.3086 121.933 55.4941C121.78 55.6797 121.602 55.8164 121.4 55.9043C121.199 55.9954 120.971 56.041 120.717 56.041ZM129.223 54.127C128.878 54.127 128.563 54.0618 128.28 53.9316C127.997 53.7982 127.772 53.6061 127.606 53.3555C127.44 53.1048 127.357 52.8021 127.357 52.4473C127.357 52.1348 127.419 51.8825 127.543 51.6904C127.667 51.4951 127.831 51.3421 128.036 51.2314C128.244 51.1175 128.472 51.0329 128.72 50.9775C128.97 50.9222 129.223 50.8783 129.477 50.8457C129.809 50.8034 130.077 50.7708 130.282 50.748C130.491 50.7253 130.642 50.6862 130.736 50.6309C130.834 50.5755 130.883 50.4811 130.883 50.3477V50.3184C130.883 49.9701 130.787 49.6999 130.595 49.5078C130.406 49.3125 130.118 49.2148 129.73 49.2148C129.333 49.2148 129.021 49.3027 128.793 49.4785C128.565 49.651 128.406 49.8366 128.314 50.0352L127.514 49.752C127.657 49.4199 127.847 49.1611 128.085 48.9756C128.326 48.79 128.586 48.6598 128.866 48.585C129.149 48.5101 129.428 48.4727 129.701 48.4727C129.877 48.4727 130.079 48.4938 130.307 48.5361C130.535 48.5752 130.756 48.6598 130.971 48.79C131.189 48.917 131.368 49.1107 131.508 49.3711C131.651 49.6283 131.723 49.9733 131.723 50.4062V54H130.883V53.2578H130.844C130.788 53.375 130.694 53.502 130.561 53.6387C130.427 53.7721 130.25 53.8877 130.028 53.9854C129.81 54.0798 129.542 54.127 129.223 54.127ZM129.35 53.375C129.682 53.375 129.962 53.3099 130.189 53.1797C130.417 53.0495 130.59 52.8818 130.707 52.6768C130.824 52.4684 130.883 52.252 130.883 52.0273V51.2559C130.847 51.2982 130.769 51.3372 130.648 51.373C130.531 51.4056 130.395 51.4349 130.238 51.4609C130.085 51.487 129.936 51.5098 129.789 51.5293C129.643 51.5456 129.525 51.5586 129.438 51.5684C129.219 51.5977 129.016 51.6449 128.827 51.71C128.638 51.7718 128.485 51.8646 128.368 51.9883C128.254 52.112 128.197 52.2812 128.197 52.4961C128.197 52.7858 128.305 53.0055 128.52 53.1553C128.738 53.3018 129.014 53.375 129.35 53.375ZM133.627 50.7188V54H132.797V48.541H133.598V49.4004H133.676C133.803 49.1204 133.996 48.8958 134.257 48.7266C134.517 48.5573 134.854 48.4727 135.268 48.4727C135.635 48.4727 135.958 48.5475 136.234 48.6973C136.511 48.847 136.726 49.0749 136.879 49.3809C137.035 49.6836 137.113 50.0677 137.113 50.5332V54H136.283V50.5918C136.283 50.1654 136.171 49.8317 135.946 49.5908C135.722 49.3467 135.416 49.2246 135.028 49.2246C134.761 49.2246 134.522 49.2832 134.311 49.4004C134.099 49.5176 133.931 49.6868 133.808 49.9082C133.687 50.1296 133.627 50.3997 133.627 50.7188ZM142.133 54.127C141.788 54.127 141.474 54.0618 141.19 53.9316C140.907 53.7982 140.683 53.6061 140.517 53.3555C140.351 53.1048 140.268 52.8021 140.268 52.4473C140.268 52.1348 140.329 51.8825 140.453 51.6904C140.577 51.4951 140.741 51.3421 140.946 51.2314C141.155 51.1175 141.382 51.0329 141.63 50.9775C141.881 50.9222 142.133 50.8783 142.387 50.8457C142.719 50.8034 142.987 50.7708 143.192 50.748C143.401 50.7253 143.552 50.6862 143.646 50.6309C143.744 50.5755 143.793 50.4811 143.793 50.3477V50.3184C143.793 49.9701 143.697 49.6999 143.505 49.5078C143.316 49.3125 143.028 49.2148 142.641 49.2148C142.243 49.2148 141.931 49.3027 141.703 49.4785C141.475 49.651 141.316 49.8366 141.225 50.0352L140.424 49.752C140.567 49.4199 140.757 49.1611 140.995 48.9756C141.236 48.79 141.496 48.6598 141.776 48.585C142.06 48.5101 142.338 48.4727 142.611 48.4727C142.787 48.4727 142.989 48.4938 143.217 48.5361C143.445 48.5752 143.666 48.6598 143.881 48.79C144.099 48.917 144.278 49.1107 144.418 49.3711C144.561 49.6283 144.633 49.9733 144.633 50.4062V54H143.793V53.2578H143.754C143.699 53.375 143.604 53.502 143.471 53.6387C143.337 53.7721 143.16 53.8877 142.938 53.9854C142.72 54.0798 142.452 54.127 142.133 54.127ZM142.26 53.375C142.592 53.375 142.872 53.3099 143.1 53.1797C143.327 53.0495 143.5 52.8818 143.617 52.6768C143.734 52.4684 143.793 52.252 143.793 52.0273V51.2559C143.757 51.2982 143.679 51.3372 143.559 51.373C143.441 51.4056 143.305 51.4349 143.148 51.4609C142.995 51.487 142.846 51.5098 142.699 51.5293C142.553 51.5456 142.436 51.5586 142.348 51.5684C142.13 51.5977 141.926 51.6449 141.737 51.71C141.549 51.7718 141.396 51.8646 141.278 51.9883C141.164 52.112 141.107 52.2812 141.107 52.4961C141.107 52.7858 141.215 53.0055 141.43 53.1553C141.648 53.3018 141.924 53.375 142.26 53.375ZM149.965 48.541L147.953 54H147.094L145.082 48.541H145.99L147.494 52.8965H147.553L149.057 48.541H149.965ZM152.699 54.1172C152.175 54.1172 151.721 54 151.337 53.7656C150.956 53.5312 150.663 53.2041 150.458 52.7842C150.253 52.361 150.15 51.8711 150.15 51.3145C150.15 50.7546 150.251 50.2614 150.453 49.835C150.655 49.4085 150.938 49.0749 151.303 48.834C151.671 48.5931 152.1 48.4727 152.592 48.4727C152.875 48.4727 153.157 48.5199 153.437 48.6143C153.716 48.7087 153.97 48.8617 154.198 49.0732C154.429 49.2848 154.613 49.5648 154.75 49.9131C154.887 50.2614 154.955 50.6895 154.955 51.1973V51.5586H150.746V50.8359H154.501L154.115 51.1094C154.115 50.7448 154.058 50.4209 153.944 50.1377C153.83 49.8545 153.66 49.6315 153.432 49.4688C153.207 49.306 152.927 49.2246 152.592 49.2246C152.257 49.2246 151.968 49.3076 151.728 49.4736C151.49 49.6364 151.308 49.8496 151.181 50.1133C151.054 50.377 150.99 50.6602 150.99 50.9629V51.4414C150.99 51.8548 151.062 52.2048 151.205 52.4912C151.348 52.7777 151.549 52.9958 151.806 53.1455C152.063 53.292 152.361 53.3652 152.699 53.3652C152.917 53.3652 153.116 53.3343 153.295 53.2725C153.474 53.2074 153.629 53.1113 153.759 52.9844C153.889 52.8542 153.988 52.6947 154.057 52.5059L154.867 52.7402C154.783 53.0137 154.639 53.2546 154.438 53.4629C154.239 53.668 153.992 53.8291 153.695 53.9463C153.399 54.0602 153.067 54.1172 152.699 54.1172ZM155.746 54V48.541H156.547V49.3711H156.605C156.706 49.1009 156.887 48.8828 157.147 48.7168C157.411 48.5475 157.706 48.4629 158.031 48.4629C158.093 48.4629 158.17 48.4645 158.261 48.4678C158.352 48.4678 158.422 48.4694 158.471 48.4727V49.3223C158.441 49.3158 158.376 49.306 158.275 49.293C158.174 49.2799 158.067 49.2734 157.953 49.2734C157.689 49.2734 157.453 49.3288 157.245 49.4395C157.037 49.5501 156.872 49.7015 156.752 49.8936C156.635 50.0856 156.576 50.3053 156.576 50.5527V54H155.746ZM160.6 54.127C160.255 54.127 159.94 54.0618 159.657 53.9316C159.374 53.7982 159.149 53.6061 158.983 53.3555C158.817 53.1048 158.734 52.8021 158.734 52.4473C158.734 52.1348 158.796 51.8825 158.92 51.6904C159.044 51.4951 159.208 51.3421 159.413 51.2314C159.621 51.1175 159.849 51.0329 160.097 50.9775C160.347 50.9222 160.6 50.8783 160.854 50.8457C161.186 50.8034 161.454 50.7708 161.659 50.748C161.868 50.7253 162.019 50.6862 162.113 50.6309C162.211 50.5755 162.26 50.4811 162.26 50.3477V50.3184C162.26 49.9701 162.164 49.6999 161.972 49.5078C161.783 49.3125 161.495 49.2148 161.107 49.2148C160.71 49.2148 160.398 49.3027 160.17 49.4785C159.942 49.651 159.783 49.8366 159.691 50.0352L158.891 49.752C159.034 49.4199 159.224 49.1611 159.462 48.9756C159.703 48.79 159.963 48.6598 160.243 48.585C160.526 48.5101 160.805 48.4727 161.078 48.4727C161.254 48.4727 161.456 48.4938 161.684 48.5361C161.911 48.5752 162.133 48.6598 162.348 48.79C162.566 48.917 162.745 49.1107 162.885 49.3711C163.028 49.6283 163.1 49.9733 163.1 50.4062V54H162.26V53.2578H162.221C162.165 53.375 162.071 53.502 161.938 53.6387C161.804 53.7721 161.627 53.8877 161.405 53.9854C161.187 54.0798 160.919 54.127 160.6 54.127ZM160.727 53.375C161.059 53.375 161.339 53.3099 161.566 53.1797C161.794 53.0495 161.967 52.8818 162.084 52.6768C162.201 52.4684 162.26 52.252 162.26 52.0273V51.2559C162.224 51.2982 162.146 51.3372 162.025 51.373C161.908 51.4056 161.771 51.4349 161.615 51.4609C161.462 51.487 161.312 51.5098 161.166 51.5293C161.02 51.5456 160.902 51.5586 160.814 51.5684C160.596 51.5977 160.393 51.6449 160.204 51.71C160.015 51.7718 159.862 51.8646 159.745 51.9883C159.631 52.112 159.574 52.2812 159.574 52.4961C159.574 52.7858 159.682 53.0055 159.896 53.1553C160.115 53.3018 160.391 53.375 160.727 53.375ZM166.371 56.1582C165.762 56.1582 165.281 56.0475 164.926 55.8262C164.574 55.6048 164.314 55.3509 164.145 55.0645L164.809 54.5957C164.883 54.6966 164.979 54.8105 165.097 54.9375C165.214 55.0677 165.373 55.18 165.575 55.2744C165.777 55.3688 166.042 55.416 166.371 55.416C166.811 55.416 167.174 55.3102 167.46 55.0986C167.75 54.887 167.895 54.5534 167.895 54.0977V52.9941H167.816C167.758 53.0918 167.672 53.2139 167.558 53.3604C167.447 53.5036 167.286 53.6322 167.074 53.7461C166.866 53.8568 166.583 53.9121 166.225 53.9121C165.785 53.9121 165.391 53.8079 165.043 53.5996C164.695 53.3913 164.418 53.0885 164.213 52.6914C164.011 52.2943 163.91 51.8125 163.91 51.2461C163.91 50.6862 164.008 50.1995 164.203 49.7861C164.402 49.3695 164.677 49.0472 165.028 48.8193C165.38 48.5882 165.785 48.4727 166.244 48.4727C166.599 48.4727 166.881 48.5312 167.089 48.6484C167.3 48.7656 167.462 48.8991 167.572 49.0488C167.686 49.1953 167.774 49.3158 167.836 49.4102H167.924V48.541H168.725V54.1562C168.725 54.625 168.619 55.0059 168.407 55.2988C168.199 55.5951 167.916 55.8115 167.558 55.9482C167.203 56.0882 166.807 56.1582 166.371 56.1582ZM166.342 53.1602C166.846 53.1602 167.232 52.9893 167.499 52.6475C167.769 52.3057 167.904 51.832 167.904 51.2266C167.904 50.8327 167.846 50.486 167.729 50.1865C167.611 49.887 167.436 49.6527 167.201 49.4834C166.97 49.3109 166.684 49.2246 166.342 49.2246C165.987 49.2246 165.691 49.3158 165.453 49.498C165.219 49.6771 165.043 49.918 164.926 50.2207C164.809 50.5234 164.75 50.8587 164.75 51.2266C164.75 51.6042 164.809 51.9395 164.926 52.2324C165.046 52.5221 165.225 52.75 165.463 52.916C165.701 53.0788 165.993 53.1602 166.342 53.1602ZM172.084 54.1172C171.56 54.1172 171.106 54 170.722 53.7656C170.341 53.5312 170.048 53.2041 169.843 52.7842C169.638 52.361 169.535 51.8711 169.535 51.3145C169.535 50.7546 169.636 50.2614 169.838 49.835C170.04 49.4085 170.323 49.0749 170.688 48.834C171.055 48.5931 171.485 48.4727 171.977 48.4727C172.26 48.4727 172.541 48.5199 172.821 48.6143C173.101 48.7087 173.355 48.8617 173.583 49.0732C173.814 49.2848 173.998 49.5648 174.135 49.9131C174.271 50.2614 174.34 50.6895 174.34 51.1973V51.5586H170.131V50.8359H173.886L173.5 51.1094C173.5 50.7448 173.443 50.4209 173.329 50.1377C173.215 49.8545 173.044 49.6315 172.816 49.4688C172.592 49.306 172.312 49.2246 171.977 49.2246C171.641 49.2246 171.353 49.3076 171.112 49.4736C170.875 49.6364 170.692 49.8496 170.565 50.1133C170.438 50.377 170.375 50.6602 170.375 50.9629V51.4414C170.375 51.8548 170.447 52.2048 170.59 52.4912C170.733 52.7777 170.933 52.9958 171.19 53.1455C171.448 53.292 171.745 53.3652 172.084 53.3652C172.302 53.3652 172.501 53.3343 172.68 53.2725C172.859 53.2074 173.013 53.1113 173.144 52.9844C173.274 52.8542 173.373 52.6947 173.441 52.5059L174.252 52.7402C174.167 53.0137 174.024 53.2546 173.822 53.4629C173.624 53.668 173.376 53.8291 173.08 53.9463C172.784 54.0602 172.452 54.1172 172.084 54.1172ZM179.682 54.1172C179.19 54.1172 178.759 54 178.388 53.7656C178.017 53.5312 177.727 53.2025 177.519 52.7793C177.313 52.3561 177.211 51.8646 177.211 51.3047C177.211 50.735 177.313 50.2386 177.519 49.8154C177.727 49.389 178.017 49.0586 178.388 48.8242C178.759 48.5898 179.19 48.4727 179.682 48.4727C180.176 48.4727 180.609 48.5898 180.98 48.8242C181.352 49.0586 181.641 49.389 181.85 49.8154C182.058 50.2386 182.162 50.735 182.162 51.3047C182.162 51.8646 182.058 52.3561 181.85 52.7793C181.641 53.2025 181.352 53.5312 180.98 53.7656C180.609 54 180.176 54.1172 179.682 54.1172ZM179.682 53.3652C180.059 53.3652 180.368 53.2692 180.609 53.0771C180.85 52.8851 181.029 52.6328 181.146 52.3203C181.264 52.0046 181.322 51.666 181.322 51.3047C181.322 50.9368 181.264 50.5951 181.146 50.2793C181.029 49.9635 180.85 49.7096 180.609 49.5176C180.368 49.3223 180.059 49.2246 179.682 49.2246C179.311 49.2246 179.005 49.3223 178.764 49.5176C178.523 49.7096 178.344 49.9635 178.227 50.2793C178.109 50.5951 178.051 50.9368 178.051 51.3047C178.051 51.666 178.109 52.0046 178.227 52.3203C178.344 52.6328 178.523 52.8851 178.764 53.0771C179.005 53.2692 179.311 53.3652 179.682 53.3652ZM185.395 48.541V49.2539H182.455V48.541H185.395ZM183.334 54V47.7891C183.334 47.4766 183.407 47.2161 183.554 47.0078C183.703 46.7995 183.896 46.6432 184.13 46.5391C184.364 46.4349 184.61 46.3828 184.867 46.3828C185.076 46.3828 185.245 46.4007 185.375 46.4365C185.508 46.4691 185.606 46.5 185.668 46.5293L185.424 47.252C185.382 47.2357 185.323 47.2178 185.248 47.1982C185.176 47.1755 185.079 47.1641 184.955 47.1641C184.678 47.1641 184.477 47.2357 184.35 47.3789C184.226 47.5189 184.164 47.724 184.164 47.9941V54H183.334ZM18.832 72.0977C18.3438 72.0977 17.9141 72.0114 17.543 71.8389C17.1719 71.6631 16.8822 71.4222 16.6738 71.1162C16.4655 70.8102 16.3613 70.4603 16.3613 70.0664C16.3613 69.7604 16.4215 69.4772 16.542 69.2168C16.6657 68.9531 16.8333 68.7334 17.0449 68.5576C17.2598 68.3818 17.5007 68.2695 17.7676 68.2207V68.1816C17.4193 68.0905 17.141 67.8936 16.9326 67.5908C16.7275 67.2881 16.625 66.9447 16.625 66.5605C16.625 66.1895 16.7194 65.859 16.9082 65.5693C17.097 65.2764 17.3574 65.0469 17.6895 64.8809C18.0247 64.7116 18.4056 64.627 18.832 64.627C19.252 64.627 19.6279 64.7116 19.96 64.8809C20.292 65.0469 20.5524 65.2764 20.7412 65.5693C20.9333 65.859 21.0293 66.1895 21.0293 66.5605C21.0293 66.9447 20.9251 67.2881 20.7168 67.5908C20.5085 67.8936 20.235 68.0905 19.8965 68.1816V68.2207C20.1569 68.2695 20.3929 68.3818 20.6045 68.5576C20.8193 68.7334 20.9886 68.9531 21.1123 69.2168C21.2393 69.4772 21.3027 69.7604 21.3027 70.0664C21.3027 70.4603 21.1969 70.8102 20.9854 71.1162C20.777 71.4222 20.4873 71.6631 20.1162 71.8389C19.7451 72.0114 19.3171 72.0977 18.832 72.0977ZM18.832 71.3164C19.1608 71.3164 19.444 71.2643 19.6816 71.1602C19.9225 71.0527 20.1081 70.903 20.2383 70.7109C20.3685 70.5156 20.4336 70.2878 20.4336 70.0273C20.4336 69.7539 20.3636 69.5114 20.2236 69.2998C20.0837 69.0882 19.8932 68.9222 19.6523 68.8018C19.4115 68.6813 19.138 68.6211 18.832 68.6211C18.5195 68.6211 18.2412 68.6813 17.9971 68.8018C17.7562 68.9222 17.5658 69.0882 17.4258 69.2998C17.2891 69.5114 17.2207 69.7539 17.2207 70.0273C17.2207 70.2878 17.2858 70.5156 17.416 70.7109C17.5462 70.903 17.7318 71.0527 17.9727 71.1602C18.2135 71.2643 18.5 71.3164 18.832 71.3164ZM18.832 67.8691C19.0924 67.8691 19.3236 67.8171 19.5254 67.7129C19.7272 67.6087 19.8867 67.4639 20.0039 67.2783C20.1211 67.0895 20.1797 66.8698 20.1797 66.6191C20.1797 66.3717 20.1227 66.1569 20.0088 65.9746C19.8949 65.7923 19.737 65.6507 19.5352 65.5498C19.3333 65.4489 19.099 65.3984 18.832 65.3984C18.5586 65.3984 18.3193 65.4489 18.1143 65.5498C17.9124 65.6507 17.7546 65.7923 17.6406 65.9746C17.5299 66.1569 17.4746 66.3717 17.4746 66.6191C17.4746 66.8698 17.5316 67.0895 17.6455 67.2783C17.7627 67.4639 17.9222 67.6087 18.124 67.7129C18.3291 67.8171 18.5651 67.8691 18.832 67.8691ZM24.5547 72.0977C24.2585 72.0977 23.9606 72.0439 23.6611 71.9365C23.3617 71.8258 23.0882 71.6419 22.8408 71.3848C22.5967 71.1243 22.3997 70.7712 22.25 70.3252C22.1003 69.8792 22.0254 69.321 22.0254 68.6504C22.0254 68.0059 22.0856 67.4346 22.2061 66.9365C22.3298 66.4385 22.5055 66.0186 22.7334 65.6768C22.9645 65.3317 23.2428 65.0713 23.5684 64.8955C23.8939 64.7165 24.2617 64.627 24.6719 64.627C25.0788 64.627 25.4401 64.7083 25.7559 64.8711C26.0749 65.0339 26.3353 65.2601 26.5371 65.5498C26.7389 65.8363 26.8691 66.1667 26.9277 66.541H26.0684C25.987 66.2155 25.8291 65.9453 25.5947 65.7305C25.3636 65.5156 25.056 65.4082 24.6719 65.4082C24.1087 65.4082 23.6644 65.654 23.3389 66.1455C23.0166 66.6338 22.8555 67.3223 22.8555 68.2109H22.9141C23.0475 68.0091 23.2054 67.8366 23.3877 67.6934C23.57 67.5469 23.7718 67.4362 23.9932 67.3613C24.2145 67.2832 24.4505 67.2441 24.7012 67.2441C25.1178 67.2441 25.4987 67.3483 25.8438 67.5566C26.1888 67.7617 26.4655 68.0465 26.6738 68.4111C26.8822 68.7725 26.9863 69.1875 26.9863 69.6562C26.9863 70.1055 26.8854 70.5156 26.6836 70.8867C26.485 71.2546 26.2035 71.5492 25.8389 71.7705C25.4743 71.9886 25.0462 72.0977 24.5547 72.0977ZM24.5547 71.3164C24.8542 71.3164 25.1227 71.2432 25.3604 71.0967C25.598 70.9469 25.7868 70.7467 25.9268 70.4961C26.0667 70.2422 26.1367 69.9622 26.1367 69.6562C26.1367 69.3535 26.0684 69.0801 25.9316 68.8359C25.7982 68.5885 25.6143 68.3916 25.3799 68.2451C25.1488 68.0986 24.8835 68.0254 24.584 68.0254C24.2845 68.0254 24.0127 68.1019 23.7686 68.2549C23.5277 68.4079 23.3356 68.6097 23.1924 68.8604C23.0524 69.1077 22.9824 69.3763 22.9824 69.666C22.9824 69.9557 23.0508 70.2275 23.1875 70.4814C23.3242 70.7321 23.5098 70.9339 23.7441 71.0869C23.9818 71.2399 24.252 71.3164 24.5547 71.3164ZM31.5762 70.6328V70.252C31.5762 69.985 31.6299 69.7409 31.7373 69.5195C31.848 69.2982 32.0091 69.1208 32.2207 68.9873C32.4323 68.8538 32.6895 68.7871 32.9922 68.7871C33.3014 68.7871 33.5602 68.8538 33.7686 68.9873C33.9769 69.1208 34.1331 69.2982 34.2373 69.5195C34.3447 69.7409 34.3984 69.985 34.3984 70.252V70.6328C34.3984 70.8997 34.3447 71.1439 34.2373 71.3652C34.1299 71.5866 33.972 71.764 33.7637 71.8975C33.5553 72.0309 33.2982 72.0977 32.9922 72.0977C32.6862 72.0977 32.4274 72.0309 32.2158 71.8975C32.0042 71.764 31.8447 71.5866 31.7373 71.3652C31.6299 71.1439 31.5762 70.8997 31.5762 70.6328ZM32.2988 70.252V70.6328C32.2988 70.8542 32.3509 71.0527 32.4551 71.2285C32.5592 71.401 32.7383 71.4889 32.9922 71.4922C33.2428 71.4889 33.4186 71.401 33.5195 71.2285C33.6237 71.0527 33.6758 70.8542 33.6758 70.6328V70.252C33.6758 70.0306 33.6253 69.8337 33.5244 69.6611C33.4268 69.4886 33.2493 69.4023 32.9922 69.4023C32.7448 69.4023 32.5674 69.4886 32.46 69.6611C32.3525 69.8337 32.2988 70.0306 32.2988 70.252ZM27.9531 66.4727V66.0918C27.9531 65.8249 28.0085 65.5807 28.1191 65.3594C28.2298 65.138 28.3893 64.9606 28.5977 64.8271C28.8092 64.6937 29.0664 64.627 29.3691 64.627C29.6784 64.627 29.9372 64.6937 30.1455 64.8271C30.3571 64.9606 30.515 65.138 30.6191 65.3594C30.7266 65.5807 30.7786 65.8249 30.7754 66.0918V66.4727C30.7786 66.7363 30.7249 66.9805 30.6143 67.2051C30.5068 67.4264 30.349 67.6038 30.1406 67.7373C29.9323 67.8708 29.6751 67.9375 29.3691 67.9375C29.0632 67.9375 28.8044 67.8708 28.5928 67.7373C28.3812 67.6038 28.2217 67.4264 28.1143 67.2051C28.0068 66.9805 27.9531 66.7363 27.9531 66.4727ZM28.6758 66.0918V66.4727C28.6758 66.694 28.7279 66.8926 28.832 67.0684C28.9362 67.2409 29.1152 67.3255 29.3691 67.3223C29.6198 67.3255 29.7956 67.2409 29.8965 67.0684C30.0007 66.8926 30.0527 66.694 30.0527 66.4727V66.0918C30.0527 65.8704 30.0023 65.6735 29.9014 65.501C29.8037 65.3252 29.6263 65.2389 29.3691 65.2422C29.1217 65.2389 28.9443 65.3252 28.8369 65.501C28.7295 65.6735 28.6758 65.8704 28.6758 66.0918ZM28.2266 72L33.2266 64.7246H34.0371L29.0371 72H28.2266ZM41.3223 69.7734V66.541H42.1523V72H41.3223V71.0723H41.2637C41.1335 71.349 40.9333 71.585 40.6631 71.7803C40.3962 71.9756 40.056 72.0716 39.6426 72.0684C39.3008 72.0684 38.998 71.9951 38.7344 71.8486C38.4707 71.6989 38.2624 71.471 38.1094 71.165C37.9596 70.859 37.8848 70.4733 37.8848 70.0078V66.541H38.7148V69.959C38.7148 70.3529 38.8271 70.6686 39.0518 70.9062C39.2796 71.1439 39.5677 71.2611 39.916 71.2578C40.1243 71.2578 40.3359 71.2057 40.5508 71.1016C40.7689 70.9941 40.9512 70.8314 41.0977 70.6133C41.2474 70.3919 41.3223 70.112 41.3223 69.7734ZM47.084 67.7715L46.332 67.9766C46.2604 67.791 46.1367 67.6152 45.9609 67.4492C45.7884 67.2799 45.5182 67.1953 45.1504 67.1953C44.8184 67.1953 44.5417 67.2734 44.3203 67.4297C44.099 67.5827 43.9883 67.7747 43.9883 68.0059C43.9883 68.2142 44.0632 68.3802 44.2129 68.5039C44.3659 68.6276 44.6035 68.7285 44.9258 68.8066L45.7363 69.002C46.2214 69.1191 46.5827 69.2998 46.8203 69.5439C47.0612 69.7881 47.1816 70.099 47.1816 70.4766C47.1816 70.7891 47.0921 71.069 46.9131 71.3164C46.734 71.5638 46.485 71.7591 46.166 71.9023C45.847 72.0456 45.4759 72.1172 45.0527 72.1172C44.4961 72.1172 44.0355 71.9951 43.6709 71.751C43.3096 71.5068 43.0801 71.1536 42.9824 70.6914L43.7734 70.4961C43.8483 70.7891 43.9915 71.0088 44.2031 71.1553C44.418 71.3018 44.6979 71.375 45.043 71.375C45.4303 71.375 45.7396 71.292 45.9707 71.126C46.2051 70.9567 46.3223 70.7565 46.3223 70.5254C46.3223 70.1413 46.0521 69.8841 45.5117 69.7539L44.6035 69.5391C44.1022 69.4186 43.7344 69.2347 43.5 68.9873C43.2656 68.7399 43.1484 68.429 43.1484 68.0547C43.1484 67.7454 43.2347 67.472 43.4072 67.2344C43.583 66.9967 43.8223 66.8112 44.125 66.6777C44.4277 66.541 44.7695 66.4727 45.1504 66.4727C45.694 66.4727 46.1188 66.5931 46.4248 66.834C46.734 67.0716 46.9538 67.3841 47.084 67.7715ZM47.9824 72V66.541H48.8125V72H47.9824ZM48.4023 65.6328C48.2396 65.6328 48.0996 65.5775 47.9824 65.4668C47.8652 65.3561 47.8066 65.2227 47.8066 65.0664C47.8066 64.9102 47.8652 64.7767 47.9824 64.666C48.0996 64.5553 48.2396 64.5 48.4023 64.5C48.5651 64.5 48.7051 64.5553 48.8223 64.666C48.9395 64.7767 48.998 64.9102 48.998 65.0664C48.998 65.2227 48.9395 65.3561 48.8223 65.4668C48.7051 65.5775 48.5651 65.6328 48.4023 65.6328ZM50.7168 68.7188V72H49.8867V66.541H50.6875V67.4004H50.7656C50.8926 67.1204 51.0863 66.8958 51.3467 66.7266C51.6071 66.5573 51.944 66.4727 52.3574 66.4727C52.7253 66.4727 53.0475 66.5475 53.3242 66.6973C53.6009 66.847 53.8158 67.0749 53.9688 67.3809C54.125 67.6836 54.2031 68.0677 54.2031 68.5332V72H53.373V68.5918C53.373 68.1654 53.2607 67.8317 53.0361 67.5908C52.8115 67.3467 52.5055 67.2246 52.1182 67.2246C51.8512 67.2246 51.612 67.2832 51.4004 67.4004C51.1888 67.5176 51.0212 67.6868 50.8975 67.9082C50.777 68.1296 50.7168 68.3997 50.7168 68.7188ZM57.4746 74.1582C56.8659 74.1582 56.3841 74.0475 56.0293 73.8262C55.6777 73.6048 55.4173 73.3509 55.248 73.0645L55.9121 72.5957C55.987 72.6966 56.083 72.8105 56.2002 72.9375C56.3174 73.0677 56.4769 73.18 56.6787 73.2744C56.8805 73.3688 57.1458 73.416 57.4746 73.416C57.9141 73.416 58.277 73.3102 58.5635 73.0986C58.8532 72.887 58.998 72.5534 58.998 72.0977V70.9941H58.9199C58.8613 71.0918 58.7751 71.2139 58.6611 71.3604C58.5505 71.5036 58.3893 71.6322 58.1777 71.7461C57.9694 71.8568 57.6862 71.9121 57.3281 71.9121C56.8887 71.9121 56.4948 71.8079 56.1465 71.5996C55.7982 71.3913 55.5215 71.0885 55.3164 70.6914C55.1146 70.2943 55.0137 69.8125 55.0137 69.2461C55.0137 68.6862 55.1113 68.1995 55.3066 67.7861C55.5052 67.3695 55.7803 67.0472 56.1318 66.8193C56.4834 66.5882 56.8887 66.4727 57.3477 66.4727C57.7025 66.4727 57.984 66.5312 58.1924 66.6484C58.404 66.7656 58.5651 66.8991 58.6758 67.0488C58.7897 67.1953 58.8776 67.3158 58.9395 67.4102H59.0273V66.541H59.8281V72.1562C59.8281 72.625 59.7223 73.0059 59.5107 73.2988C59.3024 73.5951 59.0192 73.8115 58.6611 73.9482C58.3063 74.0882 57.9108 74.1582 57.4746 74.1582ZM57.4453 71.1602C57.9499 71.1602 58.3356 70.9893 58.6025 70.6475C58.8727 70.3057 59.0078 69.832 59.0078 69.2266C59.0078 68.8327 58.9492 68.486 58.832 68.1865C58.7148 67.887 58.5391 67.6527 58.3047 67.4834C58.0736 67.3109 57.7871 67.2246 57.4453 67.2246C57.0905 67.2246 56.7943 67.3158 56.5566 67.498C56.3223 67.6771 56.1465 67.918 56.0293 68.2207C55.9121 68.5234 55.8535 68.8587 55.8535 69.2266C55.8535 69.6042 55.9121 69.9395 56.0293 70.2324C56.1497 70.5221 56.3288 70.75 56.5664 70.916C56.804 71.0788 57.097 71.1602 57.4453 71.1602ZM63.3535 72V64.7246H65.8145C66.3841 64.7246 66.8496 64.8271 67.2109 65.0322C67.5755 65.2373 67.8457 65.514 68.0215 65.8623C68.1973 66.2106 68.2852 66.5996 68.2852 67.0293C68.2852 67.4557 68.1973 67.8447 68.0215 68.1963C67.849 68.5479 67.5804 68.8278 67.2158 69.0361C66.8545 69.2412 66.3906 69.3438 65.8242 69.3438H64.0664V68.5625H65.7949C66.1855 68.5625 66.4997 68.4958 66.7373 68.3623C66.9749 68.2288 67.1475 68.0465 67.2549 67.8154C67.3623 67.5811 67.416 67.319 67.416 67.0293C67.416 66.7363 67.3623 66.4759 67.2549 66.248C67.1475 66.0169 66.9733 65.8363 66.7324 65.7061C66.4948 65.5726 66.179 65.5059 65.7852 65.5059H64.2324V72H63.3535ZM71.2734 72.1172C70.7819 72.1172 70.3506 72 69.9795 71.7656C69.6084 71.5312 69.3187 71.2025 69.1104 70.7793C68.9053 70.3561 68.8027 69.8646 68.8027 69.3047C68.8027 68.735 68.9053 68.2386 69.1104 67.8154C69.3187 67.389 69.6084 67.0586 69.9795 66.8242C70.3506 66.5898 70.7819 66.4727 71.2734 66.4727C71.7682 66.4727 72.2012 66.5898 72.5723 66.8242C72.9434 67.0586 73.2331 67.389 73.4414 67.8154C73.6497 68.2386 73.7539 68.735 73.7539 69.3047C73.7539 69.8646 73.6497 70.3561 73.4414 70.7793C73.2331 71.2025 72.9434 71.5312 72.5723 71.7656C72.2012 72 71.7682 72.1172 71.2734 72.1172ZM71.2734 71.3652C71.651 71.3652 71.9603 71.2692 72.2012 71.0771C72.4421 70.8851 72.6211 70.6328 72.7383 70.3203C72.8555 70.0046 72.9141 69.666 72.9141 69.3047C72.9141 68.9368 72.8555 68.5951 72.7383 68.2793C72.6211 67.9635 72.4421 67.7096 72.2012 67.5176C71.9603 67.3223 71.651 67.2246 71.2734 67.2246C70.9023 67.2246 70.5964 67.3223 70.3555 67.5176C70.1146 67.7096 69.9355 67.9635 69.8184 68.2793C69.7012 68.5951 69.6426 68.9368 69.6426 69.3047C69.6426 69.666 69.7012 70.0046 69.8184 70.3203C69.9355 70.6328 70.1146 70.8851 70.3555 71.0771C70.5964 71.2692 70.9023 71.3652 71.2734 71.3652ZM75.6094 72L73.9492 66.541H74.8281L76.0098 70.7207H76.0684L77.2305 66.541H78.1289L79.2715 70.7109H79.3301L80.5117 66.541H81.3906L79.7305 72H78.9102L77.709 67.8105H77.6309L76.4297 72H75.6094ZM84.1348 72.1172C83.6107 72.1172 83.1566 72 82.7725 71.7656C82.3916 71.5312 82.0986 71.2041 81.8936 70.7842C81.6885 70.361 81.5859 69.8711 81.5859 69.3145C81.5859 68.7546 81.6868 68.2614 81.8887 67.835C82.0905 67.4085 82.3737 67.0749 82.7383 66.834C83.1061 66.5931 83.5358 66.4727 84.0273 66.4727C84.3105 66.4727 84.5921 66.5199 84.8721 66.6143C85.152 66.7087 85.4059 66.8617 85.6338 67.0732C85.8649 67.2848 86.0488 67.5648 86.1855 67.9131C86.3223 68.2614 86.3906 68.6895 86.3906 69.1973V69.5586H82.1816V68.8359H85.9365L85.5508 69.1094C85.5508 68.7448 85.4938 68.4209 85.3799 68.1377C85.266 67.8545 85.0951 67.6315 84.8672 67.4688C84.6426 67.306 84.3626 67.2246 84.0273 67.2246C83.6921 67.2246 83.404 67.3076 83.1631 67.4736C82.9255 67.6364 82.7432 67.8496 82.6162 68.1133C82.4893 68.377 82.4258 68.6602 82.4258 68.9629V69.4414C82.4258 69.8548 82.4974 70.2048 82.6406 70.4912C82.7839 70.7777 82.984 70.9958 83.2412 71.1455C83.4984 71.292 83.7962 71.3652 84.1348 71.3652C84.3529 71.3652 84.5514 71.3343 84.7305 71.2725C84.9095 71.2074 85.0641 71.1113 85.1943 70.9844C85.3245 70.8542 85.4238 70.6947 85.4922 70.5059L86.3027 70.7402C86.2181 71.0137 86.0749 71.2546 85.873 71.4629C85.6745 71.668 85.4271 71.8291 85.1309 71.9463C84.8346 72.0602 84.5026 72.1172 84.1348 72.1172ZM87.1816 72V66.541H87.9824V67.3711H88.041C88.1419 67.1009 88.3226 66.8828 88.583 66.7168C88.8467 66.5475 89.1413 66.4629 89.4668 66.4629C89.5286 66.4629 89.6051 66.4645 89.6963 66.4678C89.7874 66.4678 89.8574 66.4694 89.9062 66.4727V67.3223C89.877 67.3158 89.8118 67.306 89.7109 67.293C89.61 67.2799 89.5026 67.2734 89.3887 67.2734C89.125 67.2734 88.889 67.3288 88.6807 67.4395C88.4723 67.5501 88.3079 67.7015 88.1875 67.8936C88.0703 68.0856 88.0117 68.3053 88.0117 68.5527V72H87.1816ZM93.1875 72H92.2598L94.9355 64.7246H95.8438L98.5098 72H97.5918L95.4141 65.877H95.3555L93.1875 72ZM93.5293 69.1582H97.25V69.9395H93.5293V69.1582ZM100.053 64.7246V72H99.1738V64.7246H100.053ZM101.088 73.7285L101.518 70.9844H102.484L101.732 73.7285H101.088ZM108.578 72.1172C108.23 72.1172 107.95 72.0586 107.738 71.9414C107.527 71.821 107.364 71.6859 107.25 71.5361C107.136 71.3831 107.048 71.2578 106.986 71.1602H106.889V72H106.088V64.7246H106.918V67.4102H106.986C107.048 67.3158 107.134 67.1953 107.245 67.0488C107.356 66.8991 107.515 66.7656 107.724 66.6484C107.932 66.5312 108.214 66.4727 108.568 66.4727C109.027 66.4727 109.431 66.5882 109.779 66.8193C110.128 67.0472 110.399 67.3727 110.595 67.7959C110.793 68.2158 110.893 68.7122 110.893 69.2852C110.893 69.8613 110.795 70.3626 110.6 70.7891C110.404 71.2122 110.132 71.5394 109.784 71.7705C109.436 72.0016 109.034 72.1172 108.578 72.1172ZM108.471 71.3652C108.819 71.3652 109.11 71.2725 109.345 71.0869C109.579 70.8981 109.755 70.6458 109.872 70.3301C109.993 70.0143 110.053 69.6628 110.053 69.2754C110.053 68.8913 109.994 68.5446 109.877 68.2354C109.76 67.9261 109.584 67.6803 109.35 67.498C109.118 67.3158 108.826 67.2246 108.471 67.2246C108.129 67.2246 107.842 67.3109 107.611 67.4834C107.38 67.6527 107.204 67.8919 107.084 68.2012C106.967 68.5072 106.908 68.8652 106.908 69.2754C106.908 69.6855 106.968 70.0485 107.089 70.3643C107.209 70.6768 107.385 70.9225 107.616 71.1016C107.851 71.2773 108.135 71.3652 108.471 71.3652ZM113.91 72.1172C113.419 72.1172 112.987 72 112.616 71.7656C112.245 71.5312 111.955 71.2025 111.747 70.7793C111.542 70.3561 111.439 69.8646 111.439 69.3047C111.439 68.735 111.542 68.2386 111.747 67.8154C111.955 67.389 112.245 67.0586 112.616 66.8242C112.987 66.5898 113.419 66.4727 113.91 66.4727C114.405 66.4727 114.838 66.5898 115.209 66.8242C115.58 67.0586 115.87 67.389 116.078 67.8154C116.286 68.2386 116.391 68.735 116.391 69.3047C116.391 69.8646 116.286 70.3561 116.078 70.7793C115.87 71.2025 115.58 71.5312 115.209 71.7656C114.838 72 114.405 72.1172 113.91 72.1172ZM113.91 71.3652C114.288 71.3652 114.597 71.2692 114.838 71.0771C115.079 70.8851 115.258 70.6328 115.375 70.3203C115.492 70.0046 115.551 69.666 115.551 69.3047C115.551 68.9368 115.492 68.5951 115.375 68.2793C115.258 67.9635 115.079 67.7096 114.838 67.5176C114.597 67.3223 114.288 67.2246 113.91 67.2246C113.539 67.2246 113.233 67.3223 112.992 67.5176C112.751 67.7096 112.572 67.9635 112.455 68.2793C112.338 68.5951 112.279 68.9368 112.279 69.3047C112.279 69.666 112.338 70.0046 112.455 70.3203C112.572 70.6328 112.751 70.8851 112.992 71.0771C113.233 71.2692 113.539 71.3652 113.91 71.3652ZM119.408 72.1172C118.917 72.1172 118.485 72 118.114 71.7656C117.743 71.5312 117.453 71.2025 117.245 70.7793C117.04 70.3561 116.938 69.8646 116.938 69.3047C116.938 68.735 117.04 68.2386 117.245 67.8154C117.453 67.389 117.743 67.0586 118.114 66.8242C118.485 66.5898 118.917 66.4727 119.408 66.4727C119.903 66.4727 120.336 66.5898 120.707 66.8242C121.078 67.0586 121.368 67.389 121.576 67.8154C121.785 68.2386 121.889 68.735 121.889 69.3047C121.889 69.8646 121.785 70.3561 121.576 70.7793C121.368 71.2025 121.078 71.5312 120.707 71.7656C120.336 72 119.903 72.1172 119.408 72.1172ZM119.408 71.3652C119.786 71.3652 120.095 71.2692 120.336 71.0771C120.577 70.8851 120.756 70.6328 120.873 70.3203C120.99 70.0046 121.049 69.666 121.049 69.3047C121.049 68.9368 120.99 68.5951 120.873 68.2793C120.756 67.9635 120.577 67.7096 120.336 67.5176C120.095 67.3223 119.786 67.2246 119.408 67.2246C119.037 67.2246 118.731 67.3223 118.49 67.5176C118.249 67.7096 118.07 67.9635 117.953 68.2793C117.836 68.5951 117.777 68.9368 117.777 69.3047C117.777 69.666 117.836 70.0046 117.953 70.3203C118.07 70.6328 118.249 70.8851 118.49 71.0771C118.731 71.2692 119.037 71.3652 119.408 71.3652ZM126.557 67.7715L125.805 67.9766C125.733 67.791 125.609 67.6152 125.434 67.4492C125.261 67.2799 124.991 67.1953 124.623 67.1953C124.291 67.1953 124.014 67.2734 123.793 67.4297C123.572 67.5827 123.461 67.7747 123.461 68.0059C123.461 68.2142 123.536 68.3802 123.686 68.5039C123.839 68.6276 124.076 68.7285 124.398 68.8066L125.209 69.002C125.694 69.1191 126.055 69.2998 126.293 69.5439C126.534 69.7881 126.654 70.099 126.654 70.4766C126.654 70.7891 126.565 71.069 126.386 71.3164C126.207 71.5638 125.958 71.7591 125.639 71.9023C125.32 72.0456 124.949 72.1172 124.525 72.1172C123.969 72.1172 123.508 71.9951 123.144 71.751C122.782 71.5068 122.553 71.1536 122.455 70.6914L123.246 70.4961C123.321 70.7891 123.464 71.0088 123.676 71.1553C123.891 71.3018 124.171 71.375 124.516 71.375C124.903 71.375 125.212 71.292 125.443 71.126C125.678 70.9567 125.795 70.7565 125.795 70.5254C125.795 70.1413 125.525 69.8841 124.984 69.7539L124.076 69.5391C123.575 69.4186 123.207 69.2347 122.973 68.9873C122.738 68.7399 122.621 68.429 122.621 68.0547C122.621 67.7454 122.707 67.472 122.88 67.2344C123.056 66.9967 123.295 66.8112 123.598 66.6777C123.9 66.541 124.242 66.4727 124.623 66.4727C125.167 66.4727 125.591 66.5931 125.897 66.834C126.207 67.0716 126.426 67.3841 126.557 67.7715ZM129.818 66.541V67.2539H126.996V66.541H129.818ZM127.816 65.2422H128.646V70.4375C128.646 70.7207 128.705 70.929 128.822 71.0625C128.939 71.1927 129.125 71.2578 129.379 71.2578C129.434 71.2578 129.491 71.2546 129.55 71.248C129.612 71.2415 129.678 71.2318 129.75 71.2188L129.926 71.9707C129.848 72 129.752 72.0228 129.638 72.0391C129.527 72.0586 129.415 72.0684 129.301 72.0684C128.861 72.0684 128.503 71.9382 128.227 71.6777C127.953 71.4173 127.816 71.0788 127.816 70.6621V65.2422ZM130.619 72V66.541H131.449V72H130.619ZM131.039 65.6328C130.876 65.6328 130.736 65.5775 130.619 65.4668C130.502 65.3561 130.443 65.2227 130.443 65.0664C130.443 64.9102 130.502 64.7767 130.619 64.666C130.736 64.5553 130.876 64.5 131.039 64.5C131.202 64.5 131.342 64.5553 131.459 64.666C131.576 64.7767 131.635 64.9102 131.635 65.0664C131.635 65.2227 131.576 65.3561 131.459 65.4668C131.342 65.5775 131.202 65.6328 131.039 65.6328ZM133.354 68.7188V72H132.523V66.541H133.324V67.4004H133.402C133.529 67.1204 133.723 66.8958 133.983 66.7266C134.244 66.5573 134.581 66.4727 134.994 66.4727C135.362 66.4727 135.684 66.5475 135.961 66.6973C136.238 66.847 136.452 67.0749 136.605 67.3809C136.762 67.6836 136.84 68.0677 136.84 68.5332V72H136.01V68.5918C136.01 68.1654 135.897 67.8317 135.673 67.5908C135.448 67.3467 135.142 67.2246 134.755 67.2246C134.488 67.2246 134.249 67.2832 134.037 67.4004C133.826 67.5176 133.658 67.6868 133.534 67.9082C133.414 68.1296 133.354 68.3997 133.354 68.7188ZM140.111 74.1582C139.503 74.1582 139.021 74.0475 138.666 73.8262C138.314 73.6048 138.054 73.3509 137.885 73.0645L138.549 72.5957C138.624 72.6966 138.72 72.8105 138.837 72.9375C138.954 73.0677 139.114 73.18 139.315 73.2744C139.517 73.3688 139.783 73.416 140.111 73.416C140.551 73.416 140.914 73.3102 141.2 73.0986C141.49 72.887 141.635 72.5534 141.635 72.0977V70.9941H141.557C141.498 71.0918 141.412 71.2139 141.298 71.3604C141.187 71.5036 141.026 71.6322 140.814 71.7461C140.606 71.8568 140.323 71.9121 139.965 71.9121C139.525 71.9121 139.132 71.8079 138.783 71.5996C138.435 71.3913 138.158 71.0885 137.953 70.6914C137.751 70.2943 137.65 69.8125 137.65 69.2461C137.65 68.6862 137.748 68.1995 137.943 67.7861C138.142 67.3695 138.417 67.0472 138.769 66.8193C139.12 66.5882 139.525 66.4727 139.984 66.4727C140.339 66.4727 140.621 66.5312 140.829 66.6484C141.041 66.7656 141.202 66.8991 141.312 67.0488C141.426 67.1953 141.514 67.3158 141.576 67.4102H141.664V66.541H142.465V72.1562C142.465 72.625 142.359 73.0059 142.147 73.2988C141.939 73.5951 141.656 73.8115 141.298 73.9482C140.943 74.0882 140.548 74.1582 140.111 74.1582ZM140.082 71.1602C140.587 71.1602 140.972 70.9893 141.239 70.6475C141.509 70.3057 141.645 69.832 141.645 69.2266C141.645 68.8327 141.586 68.486 141.469 68.1865C141.352 67.887 141.176 67.6527 140.941 67.4834C140.71 67.3109 140.424 67.2246 140.082 67.2246C139.727 67.2246 139.431 67.3158 139.193 67.498C138.959 67.6771 138.783 67.918 138.666 68.2207C138.549 68.5234 138.49 68.8587 138.49 69.2266C138.49 69.6042 138.549 69.9395 138.666 70.2324C138.786 70.5221 138.965 70.75 139.203 70.916C139.441 71.0788 139.734 71.1602 140.082 71.1602ZM148.168 72.1172C147.644 72.1172 147.19 72 146.806 71.7656C146.425 71.5312 146.132 71.2041 145.927 70.7842C145.722 70.361 145.619 69.8711 145.619 69.3145C145.619 68.7546 145.72 68.2614 145.922 67.835C146.124 67.4085 146.407 67.0749 146.771 66.834C147.139 66.5931 147.569 66.4727 148.061 66.4727C148.344 66.4727 148.625 66.5199 148.905 66.6143C149.185 66.7087 149.439 66.8617 149.667 67.0732C149.898 67.2848 150.082 67.5648 150.219 67.9131C150.355 68.2614 150.424 68.6895 150.424 69.1973V69.5586H146.215V68.8359H149.97L149.584 69.1094C149.584 68.7448 149.527 68.4209 149.413 68.1377C149.299 67.8545 149.128 67.6315 148.9 67.4688C148.676 67.306 148.396 67.2246 148.061 67.2246C147.725 67.2246 147.437 67.3076 147.196 67.4736C146.959 67.6364 146.776 67.8496 146.649 68.1133C146.522 68.377 146.459 68.6602 146.459 68.9629V69.4414C146.459 69.8548 146.531 70.2048 146.674 70.4912C146.817 70.7777 147.017 70.9958 147.274 71.1455C147.532 71.292 147.829 71.3652 148.168 71.3652C148.386 71.3652 148.585 71.3343 148.764 71.2725C148.943 71.2074 149.097 71.1113 149.228 70.9844C149.358 70.8542 149.457 70.6947 149.525 70.5059L150.336 70.7402C150.251 71.0137 150.108 71.2546 149.906 71.4629C149.708 71.668 149.46 71.8291 149.164 71.9463C148.868 72.0602 148.536 72.1172 148.168 72.1172ZM153.637 66.541V67.2539H150.697V66.541H153.637ZM151.576 72V65.7891C151.576 65.4766 151.649 65.2161 151.796 65.0078C151.946 64.7995 152.138 64.6432 152.372 64.5391C152.606 64.4349 152.852 64.3828 153.109 64.3828C153.318 64.3828 153.487 64.4007 153.617 64.4365C153.751 64.4691 153.848 64.5 153.91 64.5293L153.666 65.252C153.624 65.2357 153.565 65.2178 153.49 65.1982C153.419 65.1755 153.321 65.1641 153.197 65.1641C152.921 65.1641 152.719 65.2357 152.592 65.3789C152.468 65.5189 152.406 65.724 152.406 65.9941V72H151.576ZM156.771 66.541V67.2539H153.832V66.541H156.771ZM154.711 72V65.7891C154.711 65.4766 154.784 65.2161 154.931 65.0078C155.08 64.7995 155.272 64.6432 155.507 64.5391C155.741 64.4349 155.987 64.3828 156.244 64.3828C156.452 64.3828 156.622 64.4007 156.752 64.4365C156.885 64.4691 156.983 64.5 157.045 64.5293L156.801 65.252C156.758 65.2357 156.7 65.2178 156.625 65.1982C156.553 65.1755 156.456 65.1641 156.332 65.1641C156.055 65.1641 155.854 65.2357 155.727 65.3789C155.603 65.5189 155.541 65.724 155.541 65.9941V72H154.711ZM157.484 72V66.541H158.314V72H157.484ZM157.904 65.6328C157.742 65.6328 157.602 65.5775 157.484 65.4668C157.367 65.3561 157.309 65.2227 157.309 65.0664C157.309 64.9102 157.367 64.7767 157.484 64.666C157.602 64.5553 157.742 64.5 157.904 64.5C158.067 64.5 158.207 64.5553 158.324 64.666C158.441 64.7767 158.5 64.9102 158.5 65.0664C158.5 65.2227 158.441 65.3561 158.324 65.4668C158.207 65.5775 158.067 65.6328 157.904 65.6328ZM161.596 72.1172C161.088 72.1172 160.648 71.9967 160.277 71.7559C159.91 71.5117 159.625 71.1781 159.423 70.7549C159.224 70.3317 159.125 69.8483 159.125 69.3047C159.125 68.748 159.228 68.2581 159.433 67.835C159.638 67.4085 159.924 67.0749 160.292 66.834C160.663 66.5931 161.094 66.4727 161.586 66.4727C161.97 66.4727 162.315 66.5443 162.621 66.6875C162.93 66.8275 163.183 67.026 163.378 67.2832C163.576 67.5404 163.699 67.8398 163.744 68.1816H162.904C162.862 68.0156 162.785 67.8594 162.675 67.7129C162.564 67.5664 162.418 67.4492 162.235 67.3613C162.056 67.2702 161.843 67.2246 161.596 67.2246C161.27 67.2246 160.985 67.3092 160.741 67.4785C160.497 67.6478 160.307 67.887 160.17 68.1963C160.033 68.5023 159.965 68.862 159.965 69.2754C159.965 69.6953 160.032 70.0632 160.165 70.3789C160.299 70.6914 160.487 70.9339 160.731 71.1064C160.979 71.279 161.267 71.3652 161.596 71.3652C161.924 71.3652 162.206 71.2806 162.44 71.1113C162.675 70.9388 162.829 70.7044 162.904 70.4082H163.744C163.699 70.7305 163.581 71.0202 163.393 71.2773C163.207 71.5345 162.961 71.7396 162.655 71.8926C162.353 72.0423 161.999 72.1172 161.596 72.1172ZM164.535 72V66.541H165.365V72H164.535ZM164.955 65.6328C164.792 65.6328 164.652 65.5775 164.535 65.4668C164.418 65.3561 164.359 65.2227 164.359 65.0664C164.359 64.9102 164.418 64.7767 164.535 64.666C164.652 64.5553 164.792 64.5 164.955 64.5C165.118 64.5 165.258 64.5553 165.375 64.666C165.492 64.7767 165.551 64.9102 165.551 65.0664C165.551 65.2227 165.492 65.3561 165.375 65.4668C165.258 65.5775 165.118 65.6328 164.955 65.6328ZM168.725 72.1172C168.201 72.1172 167.746 72 167.362 71.7656C166.981 71.5312 166.688 71.2041 166.483 70.7842C166.278 70.361 166.176 69.8711 166.176 69.3145C166.176 68.7546 166.277 68.2614 166.479 67.835C166.68 67.4085 166.964 67.0749 167.328 66.834C167.696 66.5931 168.126 66.4727 168.617 66.4727C168.9 66.4727 169.182 66.5199 169.462 66.6143C169.742 66.7087 169.996 66.8617 170.224 67.0732C170.455 67.2848 170.639 67.5648 170.775 67.9131C170.912 68.2614 170.98 68.6895 170.98 69.1973V69.5586H166.771V68.8359H170.526L170.141 69.1094C170.141 68.7448 170.084 68.4209 169.97 68.1377C169.856 67.8545 169.685 67.6315 169.457 67.4688C169.232 67.306 168.952 67.2246 168.617 67.2246C168.282 67.2246 167.994 67.3076 167.753 67.4736C167.515 67.6364 167.333 67.8496 167.206 68.1133C167.079 68.377 167.016 68.6602 167.016 68.9629V69.4414C167.016 69.8548 167.087 70.2048 167.23 70.4912C167.374 70.7777 167.574 70.9958 167.831 71.1455C168.088 71.292 168.386 71.3652 168.725 71.3652C168.943 71.3652 169.141 71.3343 169.32 71.2725C169.499 71.2074 169.654 71.1113 169.784 70.9844C169.914 70.8542 170.014 70.6947 170.082 70.5059L170.893 70.7402C170.808 71.0137 170.665 71.2546 170.463 71.4629C170.264 71.668 170.017 71.8291 169.721 71.9463C169.424 72.0602 169.092 72.1172 168.725 72.1172ZM172.602 68.7188V72H171.771V66.541H172.572V67.4004H172.65C172.777 67.1204 172.971 66.8958 173.231 66.7266C173.492 66.5573 173.829 66.4727 174.242 66.4727C174.61 66.4727 174.932 66.5475 175.209 66.6973C175.486 66.847 175.701 67.0749 175.854 67.3809C176.01 67.6836 176.088 68.0677 176.088 68.5332V72H175.258V68.5918C175.258 68.1654 175.146 67.8317 174.921 67.5908C174.696 67.3467 174.39 67.2246 174.003 67.2246C173.736 67.2246 173.497 67.2832 173.285 67.4004C173.074 67.5176 172.906 67.6868 172.782 67.9082C172.662 68.1296 172.602 68.3997 172.602 68.7188ZM179.369 72.1172C178.861 72.1172 178.422 71.9967 178.051 71.7559C177.683 71.5117 177.398 71.1781 177.196 70.7549C176.998 70.3317 176.898 69.8483 176.898 69.3047C176.898 68.748 177.001 68.2581 177.206 67.835C177.411 67.4085 177.698 67.0749 178.065 66.834C178.437 66.5931 178.868 66.4727 179.359 66.4727C179.743 66.4727 180.089 66.5443 180.395 66.6875C180.704 66.8275 180.956 67.026 181.151 67.2832C181.35 67.5404 181.472 67.8398 181.518 68.1816H180.678C180.635 68.0156 180.559 67.8594 180.448 67.7129C180.338 67.5664 180.191 67.4492 180.009 67.3613C179.83 67.2702 179.617 67.2246 179.369 67.2246C179.044 67.2246 178.759 67.3092 178.515 67.4785C178.271 67.6478 178.08 67.887 177.943 68.1963C177.807 68.5023 177.738 68.862 177.738 69.2754C177.738 69.6953 177.805 70.0632 177.938 70.3789C178.072 70.6914 178.261 70.9339 178.505 71.1064C178.752 71.279 179.04 71.3652 179.369 71.3652C179.698 71.3652 179.979 71.2806 180.214 71.1113C180.448 70.9388 180.603 70.7044 180.678 70.4082H181.518C181.472 70.7305 181.355 71.0202 181.166 71.2773C180.98 71.5345 180.735 71.7396 180.429 71.8926C180.126 72.0423 179.773 72.1172 179.369 72.1172ZM182.65 74.041C182.507 74.0443 182.38 74.0345 182.27 74.0117C182.159 73.9889 182.081 73.9661 182.035 73.9434L182.25 73.2109L182.333 73.2305C182.613 73.2956 182.847 73.2809 183.036 73.1865C183.228 73.0954 183.396 72.8529 183.539 72.459L183.695 72.0293L181.684 66.541H182.592L184.096 70.8965H184.154L185.658 66.541H186.566L184.252 72.791C184.148 73.0742 184.019 73.3086 183.866 73.4941C183.713 73.6797 183.536 73.8164 183.334 73.9043C183.132 73.9954 182.904 74.041 182.65 74.041ZM187.421 72.0586C187.245 72.0586 187.094 71.9967 186.967 71.873C186.843 71.7461 186.781 71.5947 186.781 71.4189C186.781 71.2432 186.843 71.0934 186.967 70.9697C187.094 70.8428 187.245 70.7793 187.421 70.7793C187.597 70.7793 187.746 70.8428 187.87 70.9697C187.997 71.0934 188.061 71.2432 188.061 71.4189C188.061 71.5947 187.997 71.7461 187.87 71.873C187.746 71.9967 187.597 72.0586 187.421 72.0586Z" fill="white" fill-opacity="0.7"/>
<defs>
<linearGradient id="paint0_linear_44_1229" x1="194.083" y1="261.096" x2="193.422" y2="276.653" gradientUnits="userSpaceOnUse">
<stop stop-color="white"/>
<stop offset="0.480969" stop-color="white" stop-opacity="0"/>
<stop offset="1" stop-color="white"/>
</linearGradient>
</defs>
</svg>
